<svg width="42" height="42" fill="none" xmlns="http://www.w3.org/2000/svg"><path d="M20.994 13.997c-3.856 0-7.002 3.147-7.002 7.003 0 3.856 3.146 7.003 7.002 7.003s7.003-3.147 7.003-7.003c0-3.856-3.147-7.003-7.003-7.003zM41.998 21c0-2.9.026-5.774-.137-8.668-.163-3.363-.93-6.347-3.388-8.805C36.009 1.063 33.03.3 29.668.138 26.768-.025 23.894.002 21 .002c-2.9 0-5.774-.027-8.669.136-3.362.163-6.346.93-8.804 3.389C1.063 5.99.3 8.969.138 12.332-.025 15.232.002 18.105.002 21c0 2.895-.027 5.774.136 8.668.163 3.363.93 6.347 3.389 8.805 2.463 2.464 5.442 3.226 8.804 3.389 2.9.163 5.774.136 8.669.136 2.9 0 5.773.027 8.668-.136 3.362-.163 6.346-.93 8.805-3.389 2.464-2.464 3.225-5.442 3.388-8.805.168-2.894.137-5.768.137-8.668zM20.994 31.775A10.76 10.76 0 0110.22 21a10.76 10.76 0 0110.774-10.775A10.76 10.76 0 0131.77 21a10.76 10.76 0 01-10.775 10.775zM32.211 12.3a2.513 2.513 0 01-2.517-2.516 2.513 2.513 0 012.517-2.517 2.513 2.513 0 012.325 3.48 2.514 2.514 0 01-2.325 1.553z" fill="#000"/></svg>