<svg width="41" height="41" fill="none" xmlns="http://www.w3.org/2000/svg"><rect width="41" height="41" rx="5" fill="#BDBDBD"/><path d="M21.081 7.023c1.444-.023 2.88-.01 4.313-.023.087 1.722.694 3.476 1.93 4.694 1.233 1.248 2.978 1.82 4.676 2.012v4.53c-1.59-.052-3.19-.39-4.633-1.088-.629-.29-1.215-.665-1.788-1.047-.007 3.288.014 6.57-.02 9.845-.087 1.573-.595 3.138-1.492 4.434-1.443 2.158-3.947 3.564-6.52 3.608-1.577.092-3.153-.347-4.498-1.155-2.227-1.34-3.795-3.793-4.024-6.426a19.189 19.189 0 01-.013-1.674c.199-2.14 1.237-4.188 2.849-5.582 1.826-1.622 4.385-2.395 6.781-1.938.023 1.667-.043 3.332-.043 4.998-1.094-.361-2.373-.26-3.33.418a3.886 3.886 0 00-1.505 1.968c-.228.57-.163 1.204-.15 1.81.263 1.846 2.003 3.398 3.862 3.23 1.232-.013 2.412-.742 3.054-1.81.208-.373.44-.756.453-1.195.108-2.013.065-4.017.078-6.03.01-4.535-.013-9.057.02-13.578v-.001z" fill="#333"/></svg>