<svg width="42" height="42" fill="none" xmlns="http://www.w3.org/2000/svg"><path d="M21 8.512c-6.816 0-12.356 5.541-12.366 12.357 0 2.334.657 4.612 1.894 6.572l.29.468-1.246 4.557 4.678-1.229.45.272a12.324 12.324 0 006.29 1.725H21c6.806 0 12.497-5.54 12.497-12.356 0-3.3-1.425-6.403-3.76-8.737A12.261 12.261 0 0021 8.512zm7.266 17.663c-.31.872-1.791 1.66-2.503 1.762-1.182.179-2.1.085-4.454-.928-3.722-1.612-6.159-5.362-6.347-5.606-.187-.244-1.518-2.015-1.518-3.844 0-1.828.956-2.728 1.303-3.103a1.35 1.35 0 01.994-.468c.243 0 .497 0 .712.009.225.01.535-.085.835.637.309.741 1.05 2.57 1.143 2.757.094.187.16.403.028.647-.712 1.424-1.471 1.368-1.087 2.024 1.434 2.466 2.869 3.32 5.053 4.416.375.188.59.16.806-.094.216-.243.928-1.087 1.172-1.453.244-.375.497-.31.835-.187.337.122 2.165 1.022 2.54 1.21.375.187.619.28.713.43.084.178.084.928-.225 1.791zM37.5 0h-33A4.501 4.501 0 000 4.5v33C0 39.984 2.016 42 4.5 42h33c2.484 0 4.5-2.016 4.5-4.5v-33C42 2.016 39.984 0 37.5 0zM20.99 35.737c-2.493 0-4.94-.628-7.106-1.809L6 36l2.11-7.706a14.814 14.814 0 01-1.988-7.435C6.132 12.666 12.797 6 20.99 6c3.975 0 7.706 1.547 10.518 4.36C34.312 13.171 36 16.902 36 20.877c0 8.194-6.816 14.86-15.01 14.86z" fill="#BDBDBD"/></svg>