<svg width="73" height="73" fill="none" xmlns="http://www.w3.org/2000/svg"><path d="M58.045 20.44c-7.589 0-15.907 4.228-21.545 10.64-5.64-6.412-13.957-10.64-21.545-10.64C7.725 20.44 0 24.657 0 36.5c0 11.84 7.725 16.059 14.955 16.06 7.59 0 15.906-4.228 21.545-10.64 5.638 6.412 13.955 10.64 21.544 10.64C65.275 52.56 73 48.34 73 36.5c0-11.842-7.725-16.06-14.955-16.06zm-43.09 25.696c-5.519 0-8.32-3.242-8.32-9.637 0-6.392 2.801-9.636 8.32-9.636 6.103 0 13.19 3.962 17.542 9.636-4.35 5.675-11.436 9.637-17.542 9.637zm43.089 0c-6.104 0-13.191-3.962-17.541-9.637 4.35-5.674 11.439-9.636 17.542-9.636 5.52 0 8.32 3.243 8.32 9.636-.002 6.395-2.801 9.637-8.321 9.637z" fill="#333"/></svg>