<svg width="120" height="120" fill="none" xmlns="http://www.w3.org/2000/svg"><path d="M22.915 86.605C17.765 81.135 15 75 15 65.055c0-17.5 12.285-33.185 30.15-40.94l4.465 6.89C32.94 40.025 29.68 51.73 28.38 59.11c2.685-1.39 6.2-1.875 9.645-1.555 9.02.835 16.13 8.24 16.13 17.445a17.5 17.5 0 01-17.5 17.5c-5.365 0-10.495-2.45-13.74-5.895zm50 0C67.765 81.135 65 75 65 65.055c0-17.5 12.285-33.185 30.15-40.94l4.465 6.89C82.94 40.025 79.68 51.73 78.38 59.11c2.685-1.39 6.2-1.875 9.645-1.555 9.02.835 16.13 8.24 16.13 17.445a17.501 17.501 0 01-17.5 17.5c-5.365 0-10.495-2.45-13.74-5.895z" fill="#fff"/></svg>