<svg width="90" height="69" fill="none" xmlns="http://www.w3.org/2000/svg"><path d="M7.915 62.605C2.765 57.135 0 51 0 41.055 0 23.555 12.285 7.87 30.15.115l4.465 6.89C17.94 16.025 14.68 27.73 13.38 35.11c2.685-1.39 6.2-1.875 9.645-1.555 9.02.835 16.13 8.24 16.13 17.445a17.5 17.5 0 01-17.5 17.5c-5.365 0-10.495-2.45-13.74-5.895zm50 0C52.765 57.135 50 51 50 41.055 50 23.555 62.285 7.87 80.15.115l4.465 6.89C67.94 16.025 64.68 27.73 63.38 35.11c2.685-1.39 6.2-1.875 9.645-1.555 9.02.835 16.13 8.24 16.13 17.445a17.5 17.5 0 01-17.5 17.5c-5.365 0-10.495-2.45-13.74-5.895z" fill="#fff"/></svg>