<svg width="159" height="40" fill="none" xmlns="http://www.w3.org/2000/svg"><path d="M4.338 0l13.07 21.521L30.591 0h4.282L19.38 25.127V40h-3.943V25.014L0 0h4.338zm44.409 0h3.324l16.62 40h-4.169l-5.183-12.507H41.367L36.24 40h-4.225L48.747 0zm9.69 24.394L50.382 4.62l-8.169 19.774h16.225zM78.369 7.268V40h-3.944V0h3.268l26.253 33.352V.056h3.944V40h-3.662L78.368 7.268zM117.944 40V.056h3.944v23.212L143.916 0h4.338l-16.338 17.578L149.099 40h-4.451l-15.267-20.056-7.493 7.774V40h-3.944zm36.202 0V0h3.943v40h-3.943z" fill="#fff"/></svg>