<svg width="107" height="122" fill="none" xmlns="http://www.w3.org/2000/svg"><path d="M10 122H0V42C0 22.7 15.7 7 35 7h72v10H35c-13.8 0-25 11.2-25 25v80zm-6-4h2V42c0-16 13-29 29-29h68v-2H35C17.9 11 4 24.9 4 42v76z" fill="#000"/><path d="M42.8 122h-4V22c0-2.5.4-5 1.2-7.3l3.8 1.3c-.7 1.9-1 3.9-1 6v100zM74.4 10.1C71 6.2 66.1 4 60.9 4c-5.1 0-10 2.2-13.4 6l-3-2.7C48.7 2.7 54.7 0 60.9 0c6.3 0 12.4 2.7 16.5 7.5l-3 2.6zM79 36.3L78.9 22c0-2-.4-4-1-5.9l3.8-1.3c.8 2.3 1.2 4.8 1.3 7.3v14.2h-4zm4 18.4h-4v24.8h4V54.7z" fill="#000"/><path d="M92.001 56.7h-22.3V45.5c0-6.2 5-11.2 11.2-11.2 6.2 0 11.2 5 11.2 11.2v11.2h-.1zm-18.3-4h14.3v-7.2c0-4-3.2-7.2-7.2-7.2s-7.2 3.2-7.2 7.2v7.2h.1z" fill="#000"/><path d="M81 109c-.5 0-1.1 0-1.6-.1C67 108.2 57 98.3 56.1 86c-.6-7.8 2.4-15.3 8.3-20.5 3.4-3 5.3-7.4 5.3-12h2v-.7H90v.5h2c0 4.6 2.1 9.1 5.6 12.3 5.301 4.6 8.401 11.4 8.401 18.4 0 6.7-2.6 12.9-7.3 17.6-4.8 4.8-11 7.4-17.7 7.4zm-7.6-52.3c-.7 4.5-3 8.7-6.4 11.8-4.9 4.4-7.4 10.7-6.9 17.2.8 10.3 9.2 18.6 19.5 19.3 6.1.4 11.9-1.8 16.2-6.1 4-4 6.101-9.2 6.101-14.8 0-5.9-2.5-11.6-7-15.6-3.5-3.2-5.8-7.3-6.6-11.8H73.4z" fill="#000"/><path d="M89.1 77.5H73v4h16.1v-4z" fill="#000"/></svg>