<svg width="89" height="85" fill="none" xmlns="http://www.w3.org/2000/svg"><path d="M2.857 72.857H0A12.133 12.133 0 0012.143 85H88.57V10.714h-75V0h-1.428A12.133 12.133 0 000 12.143v60.714h2.857a9.267 9.267 0 019.286-9.286h1.428v-50h72.143v68.572H12.143a9.267 9.267 0 01-9.286-9.286zm7.857-12.071A12.08 12.08 0 002.857 65V12.143c0-4.643 3.429-8.5 7.857-9.143v57.786z" fill="#000"/><path d="M72.144 19.286h-8.572V67.5l4.286 8.571 4.286-8.571V19.286zm-2.857 2.857V30h-2.858v-7.857h2.858zm-1.429 47.5l-1.429-2.857V32.857h2.858v33.929l-1.429 2.857zM28.572 53.571v2.858h5.715l-3.572 19.785 2.786.5 3.643-20.285h8.571l3.643 20.285 2.786-.5-3.572-19.785h5.715V53.57h-6.215l-1.643-9.428c2.215-1.572 3.572-4.215 3.572-7 0-4.215-3.072-7.786-7.143-8.429v-9.428h-2.857v9.428c-4.072.715-7.143 4.215-7.143 8.429 0 2.785 1.357 5.357 3.571 7l-1.642 9.428h-6.215zm10.143-11.428a5.69 5.69 0 01-3-5c0-3.143 2.572-5.715 5.714-5.715 3.143 0 5.715 2.572 5.715 5.715 0 2.071-1.143 4-3 5l-.929.5 2 10.928h-7.571l1.928-10.928-.857-.5z" fill="#000"/></svg>