<svg width="53" height="56" fill="none" xmlns="http://www.w3.org/2000/svg"><path d="M47.42 0H19.527a5.585 5.585 0 00-5.58 5.579v15.582L.817 34.291a2.79 2.79 0 001.973 4.762V53a2.79 2.79 0 002.79 2.79h44.63A2.79 2.79 0 0053 53V5.58A5.585 5.585 0 0047.42 0zM25.106 50.21H8.368V34.63l8.368-8.369 8.369 8.369v15.58zm22.316 0H30.684V39.054a2.787 2.787 0 001.972-4.762l-13.13-13.13V5.58H47.42v44.632z" fill="#000"/><path d="M25.105 11.158h5.58v5.579h-5.58v-5.58zm11.158 0h5.58v5.579h-5.58v-5.58zm0 11.244h5.58v5.493h-5.58v-5.493zm0 11.072h5.58v5.579h-5.58v-5.58zm-22.316 2.79h5.58v5.578h-5.58v-5.579z" fill="#000"/></svg>