<svg width="94" height="124" fill="none" xmlns="http://www.w3.org/2000/svg"><path d="M0 124h94V21.2L72.8 0H0v124zM74 6.8L87.2 20H74V6.8zM4 4h66v20h20v96H4V4z" fill="#000"/><path d="M82 40H12v4h70v-4zm0 10H12v4h70v-4zm0 10H62v4h20v-4zM62 20H32v4h30v-4zm1 55c-6.8 0-12.6 4-15.4 9.8H22.3l-7.1 5.7 6.8 8.8h6.8l1.7-1.7 1.7 1.7h6.7l1.7-1.7 1.7 1.7h5.5c2.7 5.8 8.6 9.8 15.4 9.8 9.4 0 17-7.6 17-17S72.4 75 63 75zM43.8 95.3L40.5 92l-3.3 3.3h-3.3L30.6 92l-3.3 3.3H24l-3.2-4.2 2.9-2.3h22.6c-.2 1-.3 2.1-.3 3.2s.1 2.2.3 3.2h-2.5v.1zM63 105c-7.2 0-13-5.8-13-13s5.8-13 13-13 13 5.8 13 13-5.8 13-13 13z" fill="#000"/><path d="M68.2 95a3 3 0 100-6 3 3 0 000 6z" fill="#000"/></svg>