<svg width="54" height="54" fill="none" xmlns="http://www.w3.org/2000/svg"><path d="M7.616 47.123c.031-.906.97-1.74 1.54-2.478.843-1.097.696-2.394.696-3.691l-.791.79h2.278l-.791-.79c0 1.096-.127 2.246.39 3.248.21.411.58.791.865 1.16.263.348.633.802.812 1.087.2.327.18.717.18 1.075v4.198l.79-.791h-6.76c-1.023 0-1.023 1.582 0 1.582h6.76a.797.797 0 00.791-.791v-2.51c0-.918.085-1.878-.084-2.785-.116-.611-.517-1.086-.876-1.56-.326-.422-.653-.855-.99-1.277-.465-.6-.286-1.824-.286-2.636a.797.797 0 00-.79-.791H9.07a.797.797 0 00-.79.79v1.382c0 .507-.064.97-.328 1.308-.822 1.055-1.856 2.067-1.909 3.48-.052 1.024 1.53 1.024 1.572 0zm26.777-11.886v16.485l.791-.791H18.805l.79.791V35.238l-.79.791h16.379c1.023 0 1.023-1.582 0-1.582H18.805a.797.797 0 00-.791.791v16.485c0 .432.358.791.79.791h16.38a.797.797 0 00.791-.79V35.236c0-1.012-1.582-1.012-1.582 0z" fill="#000"/><path d="M51.575 50.931h-16.38l.791.791V35.238l-.79.791h16.378l-.791-.79v16.484c0 1.023 1.582 1.023 1.582 0V35.238a.797.797 0 00-.791-.79h-16.38a.797.797 0 00-.79.79v16.485c0 .432.358.791.79.791h16.38c1.012 0 1.012-1.582 0-1.582zM18.014 18.763v16.485l.791-.791H2.426l.79.791V18.763l-.79.791h16.379c1.023 0 1.023-1.582 0-1.582H2.426a.797.797 0 00-.791.791v16.485c0 .432.358.791.79.791h16.38a.797.797 0 00.791-.791V18.763c0-1.023-1.582-1.023-1.582 0z" fill="#000"/><path d="M18.815 17.972H2.436l.79.791V2.278l-.79.791h16.379l-.791-.79v16.484c0 1.023 1.582 1.023 1.582 0V2.278a.797.797 0 00-.791-.79H2.436a.797.797 0 00-.791.79v16.485c0 .432.358.791.79.791h16.38c1.012 0 1.012-1.582 0-1.582z" fill="#000"/><path d="M35.196 34.446h-16.38l.791.791V18.752l-.79.792h16.378l-.791-.792v16.485c0 1.023 1.582 1.023 1.582 0V18.752a.797.797 0 00-.791-.79h-16.38a.797.797 0 00-.79.79v16.485c0 .433.358.791.79.791h16.38c1.012 0 1.012-1.582 0-1.582zm-22.919-3.375v4.177l.79-.791H2.427l.79.79v-4.176l-.79.791h10.642c1.023 0 1.023-1.582 0-1.582H2.426a.797.797 0 00-.791.791v4.177c0 .432.358.79.79.79h10.643a.797.797 0 00.79-.79V31.07c0-1.023-1.581-1.023-1.581 0z" fill="#000"/><path d="M10.199 30.28H2.426l.79.791v-4.177l-.79.792h7.773l-.791-.791v4.176c0 1.023 1.582 1.023 1.582 0v-4.177a.797.797 0 00-.791-.79H2.426a.797.797 0 00-.791.79v4.177c0 .432.358.791.79.791H10.2c1.023 0 1.023-1.582 0-1.582zm3.386 20.651H6.824c-1.023 0-1.023 1.582 0 1.582h6.76c1.024 0 1.024-1.582 0-1.582z" fill="#000"/><path d="M18.014 35.237v16.485l.791-.791H2.426l.79.791V35.238l-.79.791h16.379c1.023 0 1.023-1.582 0-1.582H2.426a.797.797 0 00-.791.791v16.485c0 .432.358.791.79.791h16.38a.797.797 0 00.791-.79V35.236c0-1.012-1.582-1.012-1.582 0z" fill="#000"/><path d="M6.033 47.124v4.598c0 1.023 1.582 1.023 1.582 0v-4.598c0-1.013-1.582-1.013-1.582 0zm24.964-12.677h-8.005l.791.79v-8.743l-.79.791h8.004l-.79-.79v8.742c0 1.023 1.581 1.023 1.581 0v-8.743a.797.797 0 00-.79-.79h-8.006a.797.797 0 00-.79.79v8.743c0 .433.358.791.79.791h8.005c1.023 0 1.023-1.581 0-1.581z" fill="#000"/><path d="M26.209 26.505v8.743c0 1.023 1.582 1.023 1.582 0v-8.743c0-1.023-1.582-1.023-1.582 0z" fill="#000"/><path d="M23.004 31.662h8.005c1.023 0 1.023-1.582 0-1.582h-8.005c-1.023 0-1.023 1.582 0 1.582zm5.715-5.949h-1.72l.792.791v-1.223c0-.422-.074-.875.432-1.012.401-.106.886.02 1.002.432.106.4-.02.98-.506 1.012-1.013.053-1.023 1.635 0 1.582 1.329-.073 2.088-1.075 2.088-2.351 0-1.266-.865-2.258-2.172-2.258-1.192 0-2.352.612-2.426 1.941-.032.622-.01 1.255-.01 1.878 0 .432.358.79.79.79h1.72c1.033 0 1.033-1.582.01-1.582z" fill="#000"/><path d="M27.01 25.713h-1.656c-.56 0-.802-.833-.464-1.244.337-.412 1.329-.264 1.329.337v1.698c0 1.023 1.582 1.023 1.582 0 0-.822.169-1.909-.222-2.668-.706-1.36-2.605-1.487-3.712-.59-.56.463-.654 1.202-.654 1.877 0 .801.369 1.455 1.034 1.888.738.485 1.94.284 2.773.284 1.013 0 1.013-1.582-.01-1.582zm24.565 25.218H40.89l.79.791V39.72l-.79.79h10.684l-.791-.79v12.002c0 1.023 1.582 1.023 1.582 0V39.72a.797.797 0 00-.791-.791H40.89a.797.797 0 00-.791.79v12.003c0 .432.358.791.79.791h10.685c1.012 0 1.012-1.582 0-1.582z" fill="#000"/><path d="M45.435 39.73v12.003c0 1.023 1.583 1.023 1.583 0V39.73c0-1.023-1.583-1.023-1.583 0zM40.89 50.931h-5.695l.791.791v-8.237l-.79.79h5.695l-.791-.79v8.237c0 1.023 1.582 1.023 1.582 0v-8.237a.797.797 0 00-.791-.791h-5.696a.797.797 0 00-.79.79v8.238c0 .432.358.791.79.791h5.696c1.023 0 1.023-1.582 0-1.582z" fill="#000"/></svg>