<svg width="59" height="58" fill="none" xmlns="http://www.w3.org/2000/svg"><path d="M58.274 23.71H30.882a.47.47 0 00-.475.475v7.842h-8.962a.47.47 0 00-.475.475v7.842h-8.45a.47.47 0 00-.475.475v7.842H2.817a.47.47 0 00-.475.475v8.317a.47.47 0 00.475.475h55.466a.47.47 0 00.475-.475V24.185a.497.497 0 00-.484-.475zM39.75 48.67h-8.289v-7.367h17.413v7.368H39.75zm-17.945.95h17.47v7.368h-17.47V49.62zM57.8 32.986v7.368H40.386v-7.368H57.8zm-7.975 15.685v-7.368H57.8v7.368h-7.975zM57.8 32.037h-7.975v-7.368H57.8v7.368zm-26.442-7.378h17.517v7.368H31.357V24.66zm-9.438 8.327h17.413v7.368H21.92v-7.368zM3.291 49.62h17.47v7.368H3.291V49.62zm17.935-.95h-8.231v-7.367h17.517v7.368h-9.286zm18.999 8.328V49.63h17.574v7.368H40.225zM5.036 21.982l10.88-4.539a3.625 3.625 0 002.175-2.725l2.45-1.025 2.648 6.352a2.683 2.683 0 002.497 1.661c.808 0 1.558-.351 2.08-.987L39.662 6.173a2.663 2.663 0 00.4-2.753 2.653 2.653 0 00-2.242-1.652L19.126.01a2.709 2.709 0 00-2.43 1.083 2.665 2.665 0 00-.314 2.64l2.791 6.693-2.269.95a3.769 3.769 0 00-1.016-.646 3.58 3.58 0 00-2.782.01l-10.87 4.537a3.642 3.642 0 00-1.957 4.757A3.612 3.612 0 002.254 22c.446.18.912.275 1.386.275a3.84 3.84 0 001.396-.294zM25.63 8.756a.829.829 0 011.072.437.828.828 0 01-.436 1.072l-5.65 2.355-2.497 1.044a3.656 3.656 0 00-.237-.987 3.51 3.51 0 00-.304-.56l8.052-3.361zm-8.375-5.384a1.728 1.728 0 01.21-1.709c.37-.503.958-.76 1.575-.702l18.705 1.766A1.743 1.743 0 0139.197 3.8a1.74 1.74 0 01-.256 1.785L27.035 20.11c-.39.484-.997.712-1.605.627a1.715 1.715 0 01-1.358-1.054l-2.648-6.352 5.212-2.174a1.77 1.77 0 00.95-2.317 1.766 1.766 0 00-2.317-.95l-5.213 2.175-2.8-6.694zM1.153 19.665a2.688 2.688 0 011.443-3.513l10.88-4.538a2.619 2.619 0 011.035-.21c.342 0 .694.067 1.026.2.36.152.674.37.93.646.01.01.01.019.02.019.208.228.389.484.512.778a2.688 2.688 0 01-1.443 3.513l-10.89 4.548a2.716 2.716 0 01-2.06.01 2.689 2.689 0 01-1.453-1.453z" fill="#000"/></svg>