<svg width="125" height="119" fill="none" xmlns="http://www.w3.org/2000/svg"><path d="M4 102H0c0 9.4 7.6 17 17 17h107V15H19V0h-2C7.6 0 0 7.6 0 17v85h4c0-7.2 5.8-13 13-13h2V19h101v96H17c-7.2 0-13-5.8-13-13zm11-57.5v40.6c-4.4.5-8.3 2.7-11 5.9V17C4 10.5 8.8 5.1 15 4.2v40.3z" fill="#000"/><path d="M25 0v10h87.4l11.7-5-11.7-5H25zm4 4h6v2h-6V4zm82.6 2H39V4h72.6l2.3 1-2.3 1zM44.5 70.5V100h49V70.5h-4V96h-41V70.5h-4zM82 41v7.2l-13-13-31.4 31.4 2.8 2.8L69 40.8l17 17V45h3.5v16.3l8.1 8.1 2.8-2.8-6.9-6.9V41H82z" fill="#000"/></svg>