<svg width="56" height="56" fill="none" xmlns="http://www.w3.org/2000/svg"><path d="M43.232 41.254c-.178.229-4.404 5.753-4.404 8.247a4.736 4.736 0 004.735 4.735 4.736 4.736 0 004.734-4.735c0-2.494-4.217-8.01-4.403-8.247-.145-.212-.501-.212-.662 0zm.34 12.133a3.89 3.89 0 01-3.887-3.886c0-1.68 2.554-5.481 3.886-7.28 1.332 1.807 3.886 5.6 3.886 7.28a3.89 3.89 0 01-3.886 3.886zm5.598-20.024v-4.497c0-7.077-5.761-12.838-12.837-12.838h-3.284v-.382a2.31 2.31 0 00-2.308-2.308h-3.555v-4.64c.085-.077.17-.162.255-.247.483.11.941.255 1.366.424 2.155.883 3.58 1.307 4.352 1.307a4.213 4.213 0 004.209-4.208 4.213 4.213 0 00-4.209-4.209c-.78 0-2.197.433-4.352 1.307a8.562 8.562 0 01-1.366.424 3.633 3.633 0 00-2.673-1.18c-.95 0-1.808.374-2.46.968a17.433 17.433 0 01-.612-.212c-2.146-.883-3.572-1.307-4.344-1.307a4.213 4.213 0 00-4.209 4.209 4.219 4.219 0 004.209 4.208c.772 0 2.198-.424 4.344-1.307.204-.084.407-.152.611-.212.136.12.263.238.416.34v4.327h-4.226a2.31 2.31 0 00-2.307 2.308v.382h-5.304v-1.587a4.137 4.137 0 00-4.132-4.132h-1.85a.42.42 0 00-.424.424v21.967a.42.42 0 00.425.425h1.85a4.137 4.137 0 004.131-4.132v-1.587h5.304v.382a2.31 2.31 0 002.307 2.308H30.75a2.31 2.31 0 002.307-2.308v-.382h2.232a3.076 3.076 0 013.072 3.071v2.894h-.365a2.368 2.368 0 000 4.734h11.157a2.368 2.368 0 00.017-4.734zM29.13 3.86c2.511-1.027 3.58-1.247 4.03-1.247 1.85 0 3.36 1.51 3.36 3.36 0 1.85-1.502 3.36-3.36 3.36-.45 0-1.51-.213-4.03-1.248a9.815 9.815 0 00-1.163-.381 3.63 3.63 0 00.459-1.731 3.63 3.63 0 00-.459-1.731c.408-.11.798-.23 1.163-.382zm-1.553 2.113a2.812 2.812 0 01-2.808 2.808 2.8 2.8 0 01-2.028-.874c-.475-.5-.78-1.18-.78-1.926 0-.747.296-1.417.771-1.917l.009-.009a2.799 2.799 0 012.028-.874 2.792 2.792 0 012.808 2.792zm-6.202 2.112c-2.512 1.035-3.572 1.248-4.022 1.248-1.85 0-3.36-1.51-3.36-3.36 0-1.85 1.51-3.36 3.36-3.36.45 0 1.51.212 4.022 1.247.11.042.229.076.34.119a3.655 3.655 0 00-.603 1.994c0 .738.22 1.425.602 1.994-.11.042-.229.076-.34.118zM23.57 9.41c.374.136.772.22 1.197.22a3.48 3.48 0 001.57-.373v4.073H23.57V9.41zM10.038 28.976a3.286 3.286 0 01-3.284 3.284H5.33V11.15h1.425a3.286 3.286 0 013.284 3.283v14.543zm.848-2.435v-9.673h5.304v9.673h-5.304zm21.323 1.23a1.46 1.46 0 01-1.46 1.46H18.498a1.46 1.46 0 01-1.459-1.46V15.638c0-.806.653-1.46 1.46-1.46H30.75a1.46 1.46 0 011.459 1.46V27.77zm3.072-1.23h-2.232v-9.673h3.284c6.61 0 11.989 5.38 11.989 11.99v4.496H39.2v-2.893a3.922 3.922 0 00-3.92-3.92zm13.872 10.708H37.996a1.518 1.518 0 110-3.038h11.157c.84 0 1.519.679 1.519 1.519 0 .832-.687 1.519-1.519 1.519z" fill="#000"/></svg>