<svg width="42" height="56" fill="none" xmlns="http://www.w3.org/2000/svg"><path d="M38.5 0h-35A3.5 3.5 0 000 3.5v49A3.5 3.5 0 003.5 56h35a3.5 3.5 0 003.5-3.5v-49A3.5 3.5 0 0038.5 0zm-35 52.5v-49h35v49h-35z" fill="#000"/><path d="M10.5 10.5h23.922V7H8.75A1.75 1.75 0 007 8.75v8.172h3.5V10.5zm0 14H7V28h7v-7h-3.5v3.5zm21 0H28V28h7v-7h-3.5v3.5zm-10.5 0h-3.5V28h7v-7H21v3.5zM10.5 35H7v3.5h7v-7h-3.5V35zm21 0H28v3.5h7v-7h-3.5V35zM21 35h-3.5v3.5h7v-7H21V35zM10.5 45.5H7V49h7v-7h-3.5v3.5zm21 0H28V49h7v-7h-3.5v3.5zm-10.5 0h-3.5V49h7v-7H21v3.5z" fill="#000"/></svg>