<svg width="42" height="56" fill="none" xmlns="http://www.w3.org/2000/svg"><path d="M40.788 21.605l.205-.038V5.996h-2.407V4.131c0-1.855-1.455-3.381-3.264-3.381H4.015C2.205.75.75 2.276.75 4.131v5.705c0 1.856 1.456 3.381 3.265 3.381H8.41c.354 1.303 1.51 2.27 2.891 2.27 1.382 0 2.538-.967 2.892-2.27h21.13c1.808 0 3.263-1.525 3.263-3.381V7.971h.487v11.945l-19.107 3.532-.204.038v4.29h-3.325v22.652c0 2.44 1.913 4.44 4.285 4.44s4.285-2 4.285-4.44V27.776h-3.325v-2.638l19.106-3.533zM28.334 11.243l5.022-5.218.167-.173-.167-.174-1.003-1.042-.18-.187-.18.187-6.361 6.607h-3.955l.355-.369.166-.173-.166-.173-1.005-1.043-.18-.187-.18.187-1.692 1.758h-3.898l8.2-8.518h3.898L21.673 8.44l-.167.174.167.173 1.004 1.043.18.187.18-.187 6.84-7.105h3.955l-.746.775-.167.173.167.173L34.09 4.89l.18.187.18-.187 1.751-1.819c.284.258.465.637.465 1.061v2.55l-4.392 4.562h-3.94zM14.305 9.239V5.222l2.404-2.497h3.867l-6.27 6.514zm-10.29 2.004c-.569 0-1.064-.375-1.257-.911 1.114-.001 2.004-.94 2.004-2.075V7.98c0-.17.131-.291.271-.291s.27.122.27.29V9.15c0 .863.42 1.632 1.063 2.093H4.015zm7.286 2.27c-.588 0-1.083-.501-1.083-1.136v-.117c0-1.393-1.093-2.542-2.457-2.542a.554.554 0 01-.537-.568V7.979c0-1.24-.974-2.266-2.19-2.266-1.218 0-2.191 1.025-2.191 2.266v.279c0 .063-.048.099-.087.099-.038 0-.086-.036-.086-.1V4.133c0-.785.612-1.407 1.345-1.407h8.37v9.652s0 0 0 0c0 .635-.495 1.135-1.084 1.135zm24.021-2.27h-.346l1.69-1.756v.349c0 .785-.612 1.407-1.344 1.407zm-14.6 41.651c-1.295 0-2.366-1.097-2.366-2.466V32.002h4.73v18.426c.001 1.369-1.07 2.466-2.364 2.466zm2.365-22.867h-4.73v-.276h4.73v.276z" fill="#000" stroke="#000" stroke-width=".5"/><path d="M21.681 33.222v-.25h-1.92v2.362h1.92v-2.112zm0 3.084v-.25h-1.92v14.526h1.92V36.306z" fill="#000" stroke="#000" stroke-width=".5"/></svg>