<svg width="100" height="69" fill="none" xmlns="http://www.w3.org/2000/svg"><path d="M71.251 28.76v.1h13.177c4.09 0 7.852 2.025 10.066 5.415l.084-.055-.084.055 5.056 7.736.084-.054-.084.054c.157.24.242.524.242.813v17.649c0 .82-.664 1.486-1.486 1.486h-5.422l-.018.077c-.892 3.835-4.332 6.705-8.434 6.705-4.102 0-7.541-2.87-8.433-6.705l-.018-.077H45.316l-.018.077c-.891 3.835-4.33 6.705-8.434 6.705-4.103 0-7.542-2.87-8.433-6.705l-.018-.077H14.27c-.82 0-1.486-.665-1.486-1.486v-1.565c0-3.205 1.937-5.96 4.698-7.177l.06-.026v-7.188H1.585a1.485 1.485 0 110-2.972H17.54v-3.37H11.1a1.484 1.484 0 110-2.972h6.44v-3.37H1.586a1.485 1.485 0 110-2.973h13.423l-.275-.183c-4.15-2.771-6.891-7.494-6.891-12.847C7.843 7.316 14.768.388 23.284.388c7.52 0 13.794 5.408 15.159 12.536l.015.08h24.563c4.539 0 8.23 3.692 8.23 8.231v7.525zM20.612 44.517h-.1v6.544h.1l.024-.002H68.28V21.235c0-2.9-2.36-5.26-5.259-5.26H38.716l-.002.1c-.083 5.25-2.793 9.873-6.88 12.602l-.274.183h9.665a1.486 1.486 0 110 2.972H20.512v3.371h11.2a1.485 1.485 0 010 2.971h-11.2v3.371h3.271a1.485 1.485 0 110 2.972h-3.17zm47.568 14.47h.1V54.03H43.057l.156.168A8.63 8.63 0 0145.44 58.9l.012.087H68.18zm-37.664-4.79l.156-.167h-10.04a4.884 4.884 0 00-4.877 4.856v.1h12.522l.012-.086a8.627 8.627 0 012.227-4.702zm66.204 4.79h.1V43.266l-.016-.025-4.797-7.341-.083.054.083-.054c-1.664-2.548-4.499-4.068-7.58-4.068H71.252v27.155h4.592l.012-.087c.578-4.222 4.199-7.49 8.576-7.49 4.378 0 8 3.268 8.577 7.49l.011.087h3.7zM23.284 3.359c-6.876 0-12.47 5.595-12.47 12.47 0 6.877 5.594 12.472 12.47 12.472 6.877 0 12.471-5.595 12.471-12.471S30.161 3.359 23.285 3.359zm7.886 56.717a5.701 5.701 0 005.694 5.694 5.7 5.7 0 005.695-5.694 5.701 5.701 0 00-5.695-5.694 5.702 5.702 0 00-5.694 5.694zm47.568 0a5.701 5.701 0 005.694 5.694 5.7 5.7 0 005.695-5.694 5.701 5.701 0 00-5.695-5.694 5.702 5.702 0 00-5.694 5.694z" fill="#64D370" stroke="#E5E5E5" stroke-width=".2"/><path d="M22.278 15.372l.02-.027V8.893a1.484 1.484 0 112.971 0v6.937c0 .315-.1.621-.285.875l-3.541 4.855h0a1.482 1.482 0 01-2.076.325h0a1.483 1.483 0 01-.325-2.074h0l3.236-4.44zM93.84 43.718h.001a2.621 2.621 0 01-.008 2.646 2.63 2.63 0 01-2.297 1.324H80.865a1.485 1.485 0 01-1.486-1.486V35.103c0-.821.664-1.486 1.486-1.486h3.033a7.204 7.204 0 016.24 3.62l3.703 6.481zm-11.49.899v.1h8.64l-.086-.15-3.345-5.854s0 0 0 0a4.222 4.222 0 00-3.66-2.124H82.35v8.028z" fill="#64D370" stroke="#E5E5E5" stroke-width=".2"/></svg>