<svg width="51" height="65" fill="none" xmlns="http://www.w3.org/2000/svg"><path d="M8.319 53.37l.78.14c.19.035 2.121.368 4.778.368 3.975 0 9.576-.746 13.405-4.358 6.386-6.026 5.098-17.438 5.04-17.921l-.094-.787-.78-.14c-.479-.086-11.797-2.034-18.183 3.991-6.387 6.026-5.099 17.439-5.04 17.921l.094.787zm17.493-5.408c-4.063 3.833-10.78 3.924-14.196 3.679l9.59-9.05 7.13 1.85c-.63 1.298-1.452 2.51-2.524 3.52zm3.332-5.523l-6.098-1.582 7.264-6.854c.027 2.069-.137 5.331-1.166 8.436zm-.393-9.91L16.758 43.846l-1.59-8.011c4.02-3.39 10.238-3.525 13.583-3.305zm-15.38 5.253l1.547 7.798L10.235 50c-.023-3.034.38-8.398 3.137-12.218z" fill="#64D370"/><path d="M43.041 11.231c0-2.764-1.076-5.363-3.031-7.318A10.277 10.277 0 0032.69.881c-.861 0-1.718.107-2.545.317l.528 2.076a8.186 8.186 0 012.017-.251 8.15 8.15 0 015.804 2.404 8.155 8.155 0 012.405 5.804v8.162H30.62v-8.161c0-5.707-4.643-10.35-10.35-10.35S9.92 5.525 9.92 11.232v8.16H0v39.759a5.36 5.36 0 005.353 5.353h39.83a5.36 5.36 0 005.353-5.353V19.393h-7.495V11.23zm-30.978 0c0-4.525 3.682-8.208 8.208-8.208 4.527 0 8.209 3.683 8.209 8.209v8.16h-3.997v-8.16c0-1.009.18-1.991.536-2.92l-2-.765a10.262 10.262 0 00-.678 3.684v8.162H12.063v-8.161zm26.339 47.92a3.216 3.216 0 01-3.212 3.212H5.353a3.216 3.216 0 01-3.212-3.212V21.534h36.26v37.617zm6.78 3.212h-3.861l3.148-5.486 2.736 4.767a3.195 3.195 0 01-2.022.719zm-1.784-40.829v6.067h2.141v-6.067h2.856v37.617c0 .083-.005.165-.01.246l-2.846-4.957V30.457H43.4V54.44l-2.863 4.989c.005-.093.007-.185.007-.278V21.534h2.855z" fill="#64D370"/></svg>