<svg width="69" height="69" fill="none" xmlns="http://www.w3.org/2000/svg"><path d="M34.083 67.917C15.427 67.917.25 52.74.25 34.084.25 15.427 15.427.25 34.083.25c18.657 0 33.834 15.177 33.834 33.834 0 18.656-15.177 33.833-33.834 33.833zm0-63.907C17.5 4.01 4.01 17.5 4.01 34.084c0 16.583 13.49 30.073 30.073 30.073 16.584 0 30.074-13.49 30.074-30.073 0-16.584-13.49-30.074-30.074-30.074z" fill="#64D370" stroke="#E5E5E5" stroke-width=".5"/><path d="M47.667 51.745v-.001L32.755 36.832a1.88 1.88 0 01-.551-1.328V15.621a1.881 1.881 0 013.76 0v19.103l.073.073 14.287 14.287a1.88 1.88 0 010 2.66h0a1.864 1.864 0 01-1.328.552c-.483 0-.963-.183-1.329-.551z" fill="#64D370" stroke="#E5E5E5" stroke-width=".5"/></svg>