<svg width="69" height="68" fill="none" xmlns="http://www.w3.org/2000/svg"><path d="M63.31 14.883h-.092l.051.078a34.036 34.036 0 01-4.432 42.667 33.992 33.992 0 01-36.777 7.51 1.281 1.281 0 01-.71-1.667l-.046-.019.046.019a1.281 1.281 0 011.667-.71 31.434 31.434 0 0034.008-6.945c10.131-10.132 12.008-25.938 4.949-38.078l-.093-.16v1.837a1.281 1.281 0 11-2.563 0v-5.813c0-.707.574-1.28 1.282-1.28h5.812a1.281 1.281 0 110 2.561h-3.101zM7.056 50.362l.093.155v-2.075a1.281 1.281 0 112.562 0v5.934c0 .707-.574 1.281-1.281 1.281H2.495a1.281 1.281 0 010-2.562h3.257l-.052-.078a34.033 34.033 0 014.315-42.844A33.852 33.852 0 0127.636.818 34.019 34.019 0 0146.99 2.744l.02-.046-.02.046a1.281 1.281 0 11-.97 2.37 31.404 31.404 0 00-34.192 6.87C1.612 22.2-.209 38.184 7.056 50.362z" fill="#64D370" stroke="#E5E5E5" stroke-width=".1"/><path d="M31.218 28.76a.883.883 0 00-.4 1.184l4.399 8.894a.883.883 0 101.583-.783l-4.399-8.894a.884.884 0 00-1.183-.4zm9.327 7.443l-4.399-8.894a.884.884 0 00-1.583.783l4.399 8.894a.883.883 0 001.583-.783z" fill="#64D370" stroke="#64D370" stroke-width=".2"/><path d="M52.377 17.728v.002a.85.85 0 01.008.195.868.868 0 01-.01.162c0 .04-.003.081-.008.121l-.002.012-.005.011-.023.058c-.133.335-3.324 8.176-9.236 13.657l2.034 4.113a8.205 8.205 0 01.822 5.024v.003l-.302 1.684v.001a6.522 6.522 0 00.648 3.896h0l3.277 6.625a.884.884 0 01-1.584.783l-3.276-6.623a8.205 8.205 0 01-.812-5.006v-.002l.301-1.684v-.002a6.522 6.522 0 00-.657-3.914v-.001L38.308 26.24a.883.883 0 111.583-.783l2.392 4.835c4.242-4.108 7.006-9.556 8.021-11.728-2.71-.61-10.453-2.02-17.071-.131.484 2.049.808 4.133.969 6.233h0a.884.884 0 01-1.763.13 42.912 42.912 0 00-2.101-10.04l-8.972 26.508c1.968-.296 5.723-1.255 8.244-4.338l-2.537-5.13a.884.884 0 011.584-.782L33.9 41.615v.002h0a6.517 6.517 0 002.712 2.897l.002.001 1.52.783h.003a8.2 8.2 0 013.485 3.685l3.276 6.623a.883.883 0 11-1.584.783l-3.276-6.624h0a6.516 6.516 0 00-2.703-2.88l-.002-.001-1.53-.802h-.002a8.2 8.2 0 01-3.485-3.684l-1.857-3.755a13.267 13.267 0 01-3.889 2.87m25.806-23.786l-25.85 23.695m25.85-23.695a.622.622 0 00-.15-.307.845.845 0 00-.106-.124h0l-.006-.006a.87.87 0 00-.14-.094.843.843 0 00-.1-.066l-.008-.005-.01-.003-.062-.02v-.001l-.009-.003a8.534 8.534 0 01-.09-.022c-1.107-.28-10.645-2.694-18.919-.356a41.682 41.682 0 00-1.665-4.963h0l-.003-.006h0v-.001h0-.001 0v-.001h0v-.001h0-.001 0v-.001h0v-.001h0-.001 0v-.001h0v-.001h0-.001 0v-.001h0v-.001h0-.001 0v-.001h0v-.001h0-.001 0v-.001h0v-.001h0-.001 0v-.001h0v-.001h0-.001 0v-.001h0v-.001h0-.001 0v-.001h0v-.001h0-.001 0v-.001h0v-.001h0-.001 0v-.001h0v-.001h0-.001v-.001h0v-.001h0-.001v-.001h0v-.001h0-.001v-.001h0v-.001h0l-.001-.001h0v-.001h0-.001v-.001h0v-.001h0l-.001-.001h0v-.001h0l-.001-.001h0v-.001h0l-.001-.001h0v-.001h0l-.001-.001h0v-.001h0l-.001-.001h0v-.001h0l-.001-.001h0v-.001h0l-.001-.001h0v-.001h0v-.001h-.001 0v-.001h0v-.001h0-.001 0V11.7h0v0h0-.001 0v-.001h0v-.001h0-.001 0v-.001h0v-.001h0-.001 0v-.001h0v-.001h0-.001 0v-.001h0v-.001h0-.001 0v-.001h0v-.001h0-.001 0v-.001h0v-.001h0-.001 0v-.001h0v-.001h0-.001 0v-.001h0v-.001h0-.001 0v-.001h0v-.001h0-.001 0v-.001h0v-.001h0-.001 0v-.001h0v-.001h0-.001 0v-.001h0v-.001h0l21.305 6.052zM26.571 41.513l-.043-.09m.043.09s0 0 0 0l-.043-.09m.043.09a16.519 16.519 0 01-6.466 1.66m6.423-1.75a16.419 16.419 0 01-6.449 1.652m.026.098l.019-.009-.045-.09m.026.1l-.019.009-.025.012-.028-.002-.08-.008h-.007l-.007-.002-.126-.031-.013-.003v-.001l-.072-.028-.005-.002h0a.874.874 0 01-.147-.086l-.02-.014-.012-.023-.006-.012m.567.19l-.021.002-.005-.1m0 0l-.541-.093m0 0c-.288-.233-2.174-1.84-3.659-4.441-1.52-2.664-2.624-6.377-1.153-10.725 1.705-5.054 5.754-9.26 8.839-11.894a44.657 44.657 0 016.328-4.548l.006-.004h0l.192-.095.007-.003.007-.003a.908.908 0 01.195-.04l.011-.004.02-.01h.024a.82.82 0 01.215.024h.004a.87.87 0 01.219.097l.024.015.013.026.002.004c.06.04.113.089.16.143l.006.007.004.007-11.464 31.445zm10.875-4.434l.072-.078.048.096-.12-.018zm-11.389-15.23c2.967-4.197 7.146-7.419 9.63-9.119l-5.741 16.98-3.889-7.861zm.669 17.394c-1.813-1.833-5.349-6.383-3.323-12.375.398-1.152.91-2.26 1.529-3.31l4.215 8.523-2.421 7.162z" fill="#64D370" stroke="#64D370" stroke-width=".2"/></svg>