<svg width="63" height="63" fill="none" xmlns="http://www.w3.org/2000/svg"><path d="M53.432 52.175v0c0 5.785-4.765 10.49-10.62 10.49h-32.1c-5.378 0-9.753-4.321-9.753-9.634m52.473-.856L48.685 8.759m4.747 43.416a10.429 10.429 0 00-3.99-8.185m3.99 8.185l-4.044-8.165.055-.02M.959 53.03h.05-.05s0 0 0 0zm0 0a9.508 9.508 0 012.768-6.718 9.743 9.743 0 015.328-2.768 11.033 11.033 0 01-.288-2.494c0-6.257 5.154-11.346 11.488-11.346 1.316 0 2.621.226 3.86.668a19.955 19.955 0 01-.564-4.726m0 0h.05m-.05 0s0 0 0 0h.05m-.05 0c0-10.785 8.593-19.561 19.158-19.561 1.873 0 4.05.08 5.941.688a1.077 1.077 0 01.053 2.033M23.6 25.646c-.001 1.6.19 3.193.57 4.747L48.635 6.82c-1.884-.605-4.053-.686-5.926-.686-10.536 0-19.108 8.752-19.108 19.511zm25.102-16.84l-.018-.047m.018.047s0 0 0 0l-.018-.047m.018.047c-4.73 1.795-8.034 6.624-8.034 11.741 0 6.788 5.391 12.308 12.016 12.308 2.48 0 4.47-.551 6.266-1.734a1.077 1.077 0 011.61 1.25c-1.881 5.451-5.951 9.657-11.118 11.619m-.758-35.231c-4.75 1.803-8.066 6.65-8.066 11.788 0 6.814 5.413 12.359 12.066 12.359 2.488 0 4.488-.554 6.294-1.743a1.026 1.026 0 011.535 1.192c-1.88 5.447-5.951 9.648-11.117 11.599l.046.036M24.129 30.43a11.444 11.444 0 00-3.874-.676c-6.307 0-11.438 5.067-11.438 11.296 0 .837.097 1.67.287 2.486L24.129 30.43zM5.26 47.827h0a7.62 7.62 0 015.226-2.264h0a1.076 1.076 0 00.981-1.441h0a9.04 9.04 0 01-.545-3.071c0-5.068 4.186-9.192 9.333-9.192 3.88 0 7.393 2.413 8.745 6.003a1.076 1.076 0 001.453.601h0a6.762 6.762 0 012.817-.614c3.196 0 5.97 2.236 6.598 5.315a1.077 1.077 0 001.265.841l-.01-.049.01.05a8.672 8.672 0 011.68-.167c4.669 0 8.466 3.741 8.466 8.337s-3.797 8.337-8.466 8.337h-32.1c-4.191 0-7.6-3.357-7.6-7.481a7.366 7.366 0 012.147-5.205zM45.039 8.31c-3.953 2.698-6.524 7.356-6.524 12.238 0 7.974 6.356 14.462 14.17 14.462 1.734 0 3.274-.234 4.694-.724-2.208 4.097-5.943 7.082-10.417 8.236a10.719 10.719 0 00-5.249-.78c-1.179-3.558-4.58-6.046-8.444-6.046a8.86 8.86 0 00-2.685.414 11.422 11.422 0 00-3.813-4.384 17.689 17.689 0 01-1.066-6.079v0c0-9.6 7.63-17.408 17.004-17.408.746 0 1.539.014 2.33.071z" fill="#64D370" stroke="#64D370" stroke-width=".1"/><path d="M53.251 23.163l1.158-1.737 1.158 1.737h0a1.077 1.077 0 001.792-1.195h0l-1.272-1.907 1.743-.582h0a1.076 1.076 0 00-.68-2.043h0l-1.664.555v-1.587a1.077 1.077 0 10-2.154 0v1.587l-1.663-.555s0 0 0 0a1.08 1.08 0 00-1.372.678 1.078 1.078 0 00.69 1.365h.001l1.743.581-1.272 1.908s0 0 0 0a1.078 1.078 0 101.792 1.195s0 0 0 0zM8.067 31.21l-1.272-1.907 1.743-.582h0a1.077 1.077 0 00-.68-2.043h0l-1.664.555v-1.587a1.077 1.077 0 10-2.154 0v1.587l-1.663-.555s0 0 0 0a1.077 1.077 0 10-.681 2.043s0 0 0 0l1.743.581-1.272 1.908s0 0 0 0a1.076 1.076 0 101.792 1.195s0 0 0 0l1.158-1.737 1.158 1.737s0 0 0 0a1.077 1.077 0 101.792-1.195s0 0 0 0zm2.054-20.37h0l1.158-1.737 1.158 1.737h0a1.077 1.077 0 001.792-1.195h0l-1.272-1.908 1.744-.58v-.001a1.077 1.077 0 00-.681-2.043h0l-1.664.554V4.081a1.077 1.077 0 00-2.154 0v1.586L8.54 5.113h0a1.077 1.077 0 00-.682 2.043h0l1.744.581L8.33 9.645s0 0 0 0a1.077 1.077 0 00.299 1.493l.028-.041-.028.041a1.077 1.077 0 001.493-.298zm49.424-3.628a1.077 1.077 0 100-2.154 1.077 1.077 0 000 2.154zM17.439 22.616a1.077 1.077 0 100-2.154 1.077 1.077 0 000 2.154zM32.844 3.104a1.077 1.077 0 100-2.154 1.077 1.077 0 000 2.154zm28.755 40.05a1.077 1.077 0 100-2.154 1.077 1.077 0 000 2.154z" fill="#64D370" stroke="#64D370" stroke-width=".1"/></svg>