<svg width="22" height="34" fill="none" xmlns="http://www.w3.org/2000/svg"><path d="M5.44 12.525a.36.36 0 00.208-.464l-.042-.112a.36.36 0 00-.673.255l.042.112a.36.36 0 00.464.209zm2.503 6.615a.36.36 0 00.21-.464L6.2 13.52a.36.36 0 00-.673.254l1.952 5.158a.36.36 0 00.464.209z" fill="#000"/><path d="M12.39 32.582l7.85-2.97a1.56 1.56 0 00.905-2.01L13.675 7.87a2.52 2.52 0 00-3.132-1.503l-.383-1.012.225-.085a.36.36 0 00.209-.463l-.68-1.794a1.56 1.56 0 00-2.009-.906L3.421 3.803a1.56 1.56 0 00-.906 2.01l.679 1.794a.36.36 0 00.463.209l.225-.085.383 1.012a2.52 2.52 0 00-1.353 3.2l7.47 19.733a1.56 1.56 0 002.009.906zM3.188 5.558a.84.84 0 01.488-1.082L8.16 2.78a.84.84 0 011.082.487l.552 1.458-6.055 2.292-.552-1.458zm6.3.05l.383 1.01-4.934 1.867-.382-1.009L9.488 5.61zm-5.902 6.08A1.8 1.8 0 014.63 9.37l6.055-2.292a1.8 1.8 0 012.318 1.046l1.899 5.016-4.955 1.875a.36.36 0 00-.21.464l.58 1.532a.36.36 0 10.673-.254l-.453-1.196 4.62-1.749 3.145 8.31-4.619 1.749-1.632-4.311a.36.36 0 10-.673.254l1.76 4.648a.36.36 0 00.463.21l4.956-1.877 1.915 5.062a.84.84 0 01-.488 1.082l-7.848 2.97a.84.84 0 01-1.082-.487L3.585 11.689z" fill="#000"/></svg>