<svg width="29" height="37" fill="none" xmlns="http://www.w3.org/2000/svg"><path d="M13.189 4.192h0a3.24 3.24 0 00-1.94.822l-.116.105-.1-.122a3.27 3.27 0 00-3.92-.877 3.27 3.27 0 00-1.804 3.59l.031.154-.155.024a3.24 3.24 0 00-1.863.98h0c-.6.633-.918 1.46-.895 2.332h0a3.239 3.239 0 001.016 2.281l9.746-9.289zm0 0a3.241 3.241 0 012.371.784l.098-.114m-2.47-.67l2.47.67m0 0l-.098.114a3.239 3.239 0 011.122 2.231c.02.27-.044.815-.804 2.74a64.106 64.106 0 01-.785 1.89l-.066.155.16.049a5.775 5.775 0 013.532 3.052c.762 1.608 2.08 5.785 2.87 9.715.442 2.192.663 4.01.662 5.404h.15-.15c-.001.942-.107 1.68-.312 2.226-.205.544-.505.892-.896 1.077-.39.185-.85.197-1.4.011-.554-.187-1.191-.572-1.92-1.168l-.096.117.095-.117c-1.08-.882-2.347-2.204-3.764-3.934-2.542-3.1-4.94-6.764-5.701-8.373a5.775 5.775 0 01-.126-4.667l.063-.155m7.464-10.367L8.194 15.23m0 0l-.16-.046c-.53-.15-1.249-.36-1.961-.59l-.046.144m2.167.492l-2.167-.492m0 0l.046-.143m-.046.143l.046-.143M4.118 12.77h0a2.265 2.265 0 01-.71-1.595l.71 1.595zm0 0l.007.005m-.007-.005l.007.005m0 0c.084.07.252.156.474.25.23.099.535.215.911.347.752.264 1.79.589 3.069.946l.103.029.06-.088c.202-.289.43-.56.684-.811l.102-.1-.095-.107C7.707 11.306 6.409 9.816 5.81 8.9l-.044-.068h-.082c-.624 0-1.215.253-1.65.712h0m.09 3.23l-.09-3.23m0 0a2.267 2.267 0 00-.626 1.63l.625-1.63zm2.038 5.05c-1.971-.632-2.433-.926-2.63-1.113l2.63 1.113zm5.585-2.514l.12-.04-.02-.126a118.276 118.276 0 00-.573-3.378 30.635 30.635 0 00-.312-1.478c-.101-.418-.203-.76-.3-.967a2.284 2.284 0 00-3.04-1.083 2.283 2.283 0 00-1.085 3.037c.095.201.287.483.536.813.25.333.568.723.92 1.142.704.837 1.554 1.794 2.313 2.643l.084.094.107-.067a5.825 5.825 0 011.25-.59zm4.238 16.814l-.181.086.133.15c1.379 1.553 2.431 2.48 3.199 2.993.383.257.7.414.955.492.25.078.463.087.62.013.177-.084.318-.29.422-.589.106-.306.185-.74.213-1.33.057-1.178-.086-3-.63-5.707-.774-3.847-2.051-7.917-2.796-9.488a4.812 4.812 0 00-6.402-2.286 4.812 4.812 0 00-2.285 6.402c.745 1.572 3.086 5.137 5.574 8.172l.26.315.075.09.105-.05 2.11-1a.491.491 0 11.421.887l-1.793.85zm-.193-21.612h0v-.009a2.26 2.26 0 00-.785-1.553 2.267 2.267 0 00-1.657-.548A2.266 2.266 0 0011.664 6l-.051.063.024.078c.345 1.084.697 3.138 1.08 5.55l.023.14.141-.015c.35-.037.7-.041 1.047-.014l.106.008.043-.097a51.557 51.557 0 001.211-2.976c.136-.374.24-.685.308-.926.067-.233.108-.417.107-.528z" fill="#000" stroke="#F5FAFF" stroke-width=".3"/><path d="M12.65 17.388a.491.491 0 01.421.888l-2.05.971a.491.491 0 11-.42-.887l2.05-.972zm1.794 4.332l3.28-1.555a.491.491 0 01.421.888l-3.28 1.555a.491.491 0 11-.421-.888z" fill="#000" stroke="#F5FAFF" stroke-width=".3"/></svg>