<svg width="37" height="38" fill="none" xmlns="http://www.w3.org/2000/svg"><path d="M32.07 22.031h0a1.189 1.189 0 00-.656 1.548l1.695 4.191.23.571-.563-.248-5.033-2.219a1.189 1.189 0 00-.946-.005l-.098-.23.098.23a14.123 14.123 0 01-5.574 1.126c-7.836 0-13.127-6.139-13.127-11.914 0-6.593 5.912-11.914 13.127-11.914 7.215 0 13.127 5.321 13.127 11.914 0 .515-.048 1.128-.13 1.685l-.248-.037.247.037a1.189 1.189 0 001 1.351h0c.65.097 1.255-.35 1.352-1 .101-.679.157-1.403.157-2.036 0-3.835-1.623-7.437-4.58-10.142-2.921-2.674-6.8-4.15-10.925-4.15-4.125 0-8.004 1.476-10.926 4.15-2.642 2.418-4.217 5.551-4.523 8.926l-.01.12-.1.066C2.35 16.245.393 19.754.393 23.526c0 2.357.743 4.594 2.158 6.522l.083.112-.052.13L.48 35.487l-.231-.094.231.094c-.181.448-.073.962.275 1.299h0c.226.22.524.335.828.335l30.487-15.09zm0 0a1.189 1.189 0 011.549.657l3.022 7.476a1.19 1.19 0 01-.275 1.3l.174.179-.174-.18a1.189 1.189 0 01-1.307.235l-7.719-3.403-.094-.042-.096.037c-.954.365-1.938.638-2.944.819l-.11.02-.06.096c-1.023 1.684-2.485 3.112-4.265 4.152-1.986 1.162-4.282 1.783-6.645 1.801h-.016l-.004.001c-.036.003-.06.005-.084.005-1.634 0-3.216-.283-4.712-.84l-.095-.035-.093.041-6.06 2.671h0m30.009-14.99L2.063 37.021m0 0a1.188 1.188 0 01-.48.101l.48-.1zm10.9-4.216h.01c.036-.001.036-.002.04-.003h.009c2.898 0 5.64-1.131 7.559-3.02l.407-.402-.57-.027c-3.928-.184-7.562-1.717-10.307-4.36-2.206-2.123-3.666-4.824-4.183-7.642l-.085-.462-.336.328c-1.737 1.696-2.735 3.937-2.735 6.309 0 2.07.74 4.03 2.131 5.662l.19-.162-.19.162c.287.338.364.806.198 1.217l-1.087 2.689-.231.57.563-.248 3.37-1.485h0c.3-.133.643-.135.946-.006h0c1.352.577 2.799.872 4.3.88z" fill="#020202" stroke="#F5FAFF" stroke-width=".5"/><path d="M21.15 16.582a1.439 1.439 0 100-2.878 1.439 1.439 0 000 2.878zm5.757 0a1.439 1.439 0 100-2.878 1.439 1.439 0 000 2.878zm-11.511 0a1.439 1.439 0 100-2.878 1.439 1.439 0 000 2.878z" fill="#020202"/></svg>