<svg width="24" height="24" fill="none" xmlns="http://www.w3.org/2000/svg"><path d="M18.141 8.966a.68.68 0 100 1.358.68.68 0 000-1.358zM4.134 6.725a.612.612 0 00-.617.608c0 .327.264.609.617.609a.61.61 0 000-1.217z" fill="#020202"/><path d="M23.031 13.895v.002a.561.561 0 01-.077.374c-.093.151-.208.199-.448.296l-.01.004h0l-.002.001c-2.796 1.199-6.348.934-9.359.335a34.54 34.54 0 01-5.277-1.509l-.028-.01c-.859-.33-1.689-.43-2.48-.292-.792.137-1.535.51-2.223 1.113-.76.66-1.254 1.434-1.496 1.845l-.045.078.047.076c.932 1.54 2.264 2.364 3.968 2.428h.001a6.609 6.609 0 002.556-.447l.015-.007.005-.002a.527.527 0 01.722.386h0c.314 1.646.106 2.871-.584 3.686-.785.919-1.918.962-2.091.962a.532.532 0 01-.277-.076c-.089-.053-1.202-.732-2.42-1.917-1.225-1.19-2.544-2.88-3.05-4.95-.59-2.409-.158-5.142 1.686-7.63h0a.526.526 0 01.796-.053.522.522 0 01.048.687h0c-1.345 1.83-1.697 3.617-1.706 4.94l-.003.42.268-.323c.954-1.149 2.04-1.855 3.173-2.16 1.132-.305 2.32-.212 3.484.254.05.02 2.29.896 5.161 1.463l.28.055-.113-.261c-.672-1.558-.966-3.109-.767-4.525.199-1.413.889-2.701 2.204-3.74l.236-.187-.29-.076c-1.255-.332-2.604-.412-3.914-.314-1.095.08-2.372.312-3.404.716h0a7.399 7.399 0 00-1.342.72h0-.001a1.328 1.328 0 01-.053.033l-.02.013a.847.847 0 00-.083.056.52.52 0 01-.66-.065h0l-.002-.002a.523.523 0 01.076-.808s0 0 0 0l.079-.053.078-.052s0 0 0 0c.938-.617 1.75-.989 3.1-1.285l.197-.043-.099-.176C8.482 3.146 7.78 2.32 6.134 1.949h0l-.004-.001c-.514-.103-.583-.83-.059-1.017 2.214-.767 4.451-.784 6.312.545h0c1.05.749 1.689 1.74 2.036 2.417l.033.065.072.013c5.026.973 7.729 4.822 8.507 9.924zM10.015 3.775l.047.097.108-.014a14.204 14.204 0 012.67-.096l.319.02-.188-.258c-.79-1.08-2.203-2.237-4.536-2.046l-.42.034.348.24c.93.639 1.374 1.44 1.652 2.022zM7.98 19.56l-.014-.182-.175.048c-1.405.382-2.905.388-4.244-.162l-.172.236a14.33 14.33 0 002.944 2.622l.048.031.056-.008c.253-.037.746-.16 1.107-.59l.001-.001c.371-.45.512-1.14.449-1.994zm6.934-5.494l.036.067.075.011c2.17.301 4.706.358 6.788-.44l.117-.046-.023-.123c-.64-3.396-2.23-6.36-5.377-7.827l-.072-.033-.068.04c-1.27.757-2.093 1.738-2.432 2.938-.59 2.081.372 4.324.956 5.413z" fill="#020202" stroke="#F5FAFF" stroke-width=".3"/></svg>