<svg width="32" height="27" fill="none" xmlns="http://www.w3.org/2000/svg"><path d="M28.357 12.723l-.03-.163-.066.152a6.4 6.4 0 01-.733 1.28.487.487 0 01-.681.102l-.03.04.03-.04a.487.487 0 01-.102-.682 5.433 5.433 0 00.98-4.178c-.242-1.338-1.024-2.398-2.33-3.174-1.304-.776-3.132-1.268-5.469-1.477-4.32-.385-9.007.338-10.82.667-4.253.77-7.086 4.855-6.316 9.108.77 4.252 4.855 7.086 9.108 6.316 2.015-.365 3.474-1.309 5.009-2.302l.003-.002c1.774-1.148 3.601-2.33 6.453-2.846.166-.03.332-.068.493-.113l-.013-.048.013.048a.487.487 0 01.263.938 6.46 6.46 0 01-.582.133c-2.661.482-4.411 1.614-6.096 2.705h-.002c-1.63 1.055-3.161 2.046-5.367 2.445a8.819 8.819 0 01-8.42-3.13l-.087.043c.984 3.976 4.916 6.563 9.002 5.823 2.015-.364 3.474-1.308 5.009-2.302l.003-.002c1.774-1.147 3.6-2.33 6.453-2.846a5.419 5.419 0 004.362-6.29l-.037-.205zm-8.344-9.11c2.306.206 4.186.694 5.59 1.45 1.735.934 2.77 2.279 3.08 3.997l.67 3.695a6.394 6.394 0 01-5.147 7.422c-2.661.482-4.411 1.614-6.096 2.704l-.002.001c-1.63 1.055-3.162 2.045-5.368 2.445-4.78.865-9.374-2.32-10.24-7.101l-.669-3.694C.965 9.75 4.151 5.156 8.931 4.29c1.856-.336 6.646-1.073 11.082-.678z" fill="#020202" stroke="#F5FAFF" stroke-width=".1"/><path d="M25.724 14.465h0l-.01.007.01-.007zm0 0h0m0 0h0m0 0a.487.487 0 01.572.789h0m-.571-.79l.57.79m0 0a.485.485 0 01-.679-.1l.68.1zM8.003 11.272c-.237-1.308.744-2.593 2.199-2.857 1.455-.263 2.824.596 3.061 1.905.237 1.308-.744 2.593-2.199 2.856-1.455.264-2.824-.596-3.061-1.904zm.958-.174c.144.792 1.016 1.285 1.93 1.12.913-.166 1.557-.934 1.414-1.725-.144-.792-1.016-1.285-1.93-1.12-.913.166-1.557.934-1.414 1.725z" fill="#020202" stroke="#F5FAFF" stroke-width=".1"/></svg>