<svg width="25" height="26" fill="none" xmlns="http://www.w3.org/2000/svg"><path d="M12.216 13.396c-.768 0-1.456-.177-2.064-.529a4.139 4.139 0 01-1.456-1.456c-.352-.607-.528-1.295-.528-2.063 0-.15.043-.267.128-.352a.479.479 0 01.352-.144c.139 0 .256.048.352.144a.447.447 0 01.144.352c0 .576.133 1.098.4 1.567.277.46.645.827 1.104 1.105.47.266.992.4 1.568.4.587 0 1.11-.134 1.568-.4a3.081 3.081 0 001.088-1.104 3.03 3.03 0 00.416-1.568 2.97 2.97 0 00-.416-1.568 2.922 2.922 0 00-1.088-1.104 2.97 2.97 0 00-1.568-.416H9.304a.511.511 0 01-.352-.128.511.511 0 01-.128-.352V1.364c0-.14.043-.251.128-.336a.479.479 0 01.352-.144h5.824c.139 0 .256.048.352.144a.428.428 0 01.144.336.479.479 0 01-.144.352.479.479 0 01-.352.144H9.784V5.3h2.432c.768 0 1.456.176 2.064.528a3.852 3.852 0 011.44 1.456c.363.608.544 1.296.544 2.064s-.181 1.455-.544 2.063a4.01 4.01 0 01-1.44 1.457c-.608.351-1.296.527-2.064.527zm11.587 1.738H5.81c-.19 0-.345.191-.345.427s.154.427.345.427h17.924v1.64h-22.2v-1.64h2.894c.191 0 .346-.191.346-.427s-.155-.427-.346-.427H1.465c-.343 0-.622.345-.622.769v1.81c0 .424.279.77.622.77h.487v6.41c0 .423.279.768.622.768h1.185c.343 0 .622-.345.622-.768v-6.411h16.357v6.496c0 .424.28.768.622.768h1.186c.343 0 .622-.344.622-.768v-6.496h.635c.343 0 .622-.344.622-.768v-1.811c0-.424-.28-.769-.622-.769zM3.69 24.807H2.643v-6.325H3.69v6.325zm18.787.086h-1.048v-6.41h1.048v6.41z" fill="#020202"/></svg>