<svg width="100" height="19" fill="none" xmlns="http://www.w3.org/2000/svg"><path d="M.879 19V.516h6.335c2.09 0 3.681.419 4.773 1.256 1.092.838 1.638 2.087 1.638 3.746 0 .846-.229 1.608-.685 2.285-.458.677-1.126 1.202-2.006 1.574.998.27 1.769.783 2.31 1.536.55.745.825 1.642.825 2.691 0 1.736-.558 3.069-1.675 4-1.11.93-2.7 1.396-4.774 1.396H.88zm3.212-8.34v5.776h3.567c1.007 0 1.794-.25 2.362-.75.567-.499.85-1.193.85-2.082 0-1.92-.982-2.902-2.945-2.945H4.09zm0-2.362h3.148c.999 0 1.778-.224 2.336-.673.567-.457.85-1.1.85-1.93 0-.914-.262-1.574-.786-1.98-.517-.406-1.325-.61-2.425-.61H4.09v5.193zm19.982 3.58h-3.58V19h-3.212V.516h6.5c2.133 0 3.78.478 4.939 1.434 1.16.957 1.739 2.34 1.739 4.152 0 1.235-.3 2.272-.901 3.11-.593.83-1.422 1.468-2.489 1.917l4.152 7.706V19h-3.44l-3.708-7.122zM20.493 9.3h3.3c1.084 0 1.93-.271 2.54-.813.61-.55.914-1.299.914-2.247 0-.99-.284-1.756-.85-2.298-.56-.541-1.397-.82-2.514-.838h-3.39V9.3zm23.36 5.395h-7.16L35.193 19h-3.339L38.838.516h2.882L48.715 19h-3.352l-1.51-4.304zm-6.26-2.59h5.358l-2.678-7.668-2.68 7.668z" fill="#F47500"/><path d="M57.335 14.976L62.032.516h3.53L58.908 19H55.8L49.172.516h3.517l4.646 14.46zm19.703-.28h-7.16L68.38 19h-3.34L72.023.516h2.882L81.9 19h-3.35l-1.51-4.304zm-6.259-2.59h5.358l-2.679-7.668-2.679 7.668zm23.576 2.59h-7.16L85.695 19h-3.339L89.34.516h2.882L99.217 19h-3.352l-1.51-4.304zm-6.26-2.59h5.358l-2.679-7.668-2.678 7.668z" fill="#17181C"/></svg>