<svg width="131" height="120" fill="none" xmlns="http://www.w3.org/2000/svg"><path d="M35.814 73.651c.724.06 1.302.17 1.733.333.432.166.738.381.92.647.18.269.253.59.223.962s-.156.674-.376.907c-.223.236-.56.399-1.013.489-.452.093-1.04.11-1.765.05-.724-.059-1.302-.171-1.733-.337-.432-.163-.737-.378-.915-.647-.183-.266-.258-.585-.228-.957s.158-.676.38-.912c.22-.233.557-.396 1.01-.489.451-.09 1.04-.105 1.764-.046zm-.078.947a5.717 5.717 0 00-.892-.013c-.252.023-.451.082-.596.177a.563.563 0 00-.242.446.55.55 0 00.166.476c.128.12.314.211.56.271.246.064.54.11.882.138.342.028.644.03.907.009.259-.019.466-.077.621-.175a.539.539 0 00.252-.44.553.553 0 00-.176-.482c-.138-.118-.333-.21-.585-.273a6.013 6.013 0 00-.897-.134zm-8.446-.87l-.375 1.323-1.202-.341.437-1.54c.077-.272.194-.49.351-.653.153-.161.337-.279.553-.353.214-.07.447-.107.7-.108.254 0 .519.024.795.075a8.36 8.36 0 011.66.47c.265.104.505.222.72.356.212.133.387.285.526.456.138.174.23.37.275.587.042.22.024.466-.054.739l-.436 1.539-1.203-.341.376-1.323c.072-.257.065-.47-.022-.64-.086-.17-.238-.314-.454-.43a4.413 4.413 0 00-.822-.312 4.29 4.29 0 00-.848-.162c-.248-.015-.454.027-.617.126-.167.098-.287.276-.36.532zm-1.56-2.612l-1.435 2.86-3.455-1.733a2.91 2.91 0 01-.68-.459 1.142 1.142 0 01-.362-.562c-.057-.207-.023-.434.101-.682a.928.928 0 01.294-.361.717.717 0 01.371-.127c.134-.008.275.009.423.05.147.04.295.094.444.161l.295.226a7.483 7.483 0 01-.795-.455c-.18-.124-.29-.24-.328-.349-.044-.107-.032-.227.034-.358l.307-.612 1.117.56-.24.479c-.045.09-.06.165-.047.228.009.064.067.134.174.21.104.075.276.172.514.292l1.747.876.404-.804 1.117.56zm-1.895.99l-2.338-1.172a.557.557 0 00-.245-.067c-.078-.002-.137.039-.18.122-.038.078-.033.145.016.204.045.06.112.112.201.157l2.337 1.172.209-.415zm-7.712-6.205l-.593.644-1.834-1.692a.61.61 0 00-.215-.136c-.074-.023-.146.004-.216.08-.072.078-.093.152-.062.222a.61.61 0 00.154.202l1.775 1.637 1.492-1.617.918.847-2.169 2.353-2.55-2.353a4.202 4.202 0 01-.478-.515 1.717 1.717 0 01-.298-.525.98.98 0 01-.025-.54c.042-.184.15-.37.324-.559.174-.188.346-.306.517-.353a.856.856 0 01.51.014c.17.057.343.152.52.284.176.13.355.279.54.448l1.69 1.56zm-3.046-4.249l-2.56 1.92-2.32-3.092a2.912 2.912 0 01-.404-.715 1.141 1.141 0 01-.073-.664c.042-.211.174-.4.395-.565a.93.93 0 01.424-.193.717.717 0 01.389.052c.123.053.242.13.356.233.114.102.222.216.326.343l.163.334a7.483 7.483 0 01-.51-.762c-.105-.192-.151-.345-.137-.46.01-.115.073-.216.19-.304l.548-.411.75 1-.428.32c-.08.06-.128.122-.144.184-.02.061 0 .15.062.266.06.113.17.276.33.49l1.173 1.564.72-.54.75 1zm-2.138.04l-1.57-2.091a.557.557 0 00-.19-.17c-.068-.036-.14-.026-.214.03-.07.052-.095.115-.077.189.013.073.05.15.11.23l1.569 2.092.372-.28zm-2.666-7.906c.32.653.52 1.206.6 1.66.079.456.05.83-.085 1.122-.14.291-.377.519-.713.683-.335.164-.659.21-.971.14-.317-.07-.63-.277-.939-.62-.311-.341-.627-.838-.946-1.49-.32-.654-.518-1.208-.596-1.663-.08-.454-.051-.826.088-1.117.136-.293.37-.521.706-.685.336-.164.662-.21.979-.14.312.07.624.276.936.617.308.343.622.84.941 1.493zm-.853.418c-.15-.309-.3-.566-.445-.773-.149-.206-.301-.347-.457-.423a.563.563 0 00-.508.02c-.18.088-.287.217-.323.387-.039.17-.021.377.053.62.07.243.182.52.332.828.151.308.303.57.456.784.15.213.305.361.468.445a.539.539 0 00.508-.01.552.552 0 00.323-.397c.032-.178.01-.392-.063-.642a6.015 6.015 0 00-.344-.84zM2.75 47.72c-.115-.435-.169-.806-.16-1.111.008-.306.063-.559.165-.758.102-.2.238-.357.408-.471a1.722 1.722 0 011.167-.3c.203.025.4.103.59.236.19.128.364.322.522.58.158.255.291.588.401 1l.926 3.48-3.092.822-.926-3.478zm2.731 1.705l-.591-2.223a2.74 2.74 0 00-.156-.45.9.9 0 00-.191-.27.429.429 0 00-.223-.117.606.606 0 00-.27.015.575.575 0 00-.237.12.422.422 0 00-.14.214.84.84 0 00-.026.327c.007.133.035.29.083.47l.592 2.222 1.16-.308zM3.17 39.47l-1.373.09-.082-1.246 1.597-.105c.283-.019.527.019.734.112.203.09.375.224.517.402.139.178.251.386.337.624.086.238.151.496.196.774a8.355 8.355 0 01.113 1.721 4.32 4.32 0 01-.093.798c-.054.244-.138.46-.253.648a1.4 1.4 0 01-.461.456c-.193.113-.43.179-.714.197l-1.596.105L2.01 42.8l1.372-.09c.266-.018.465-.096.596-.235.131-.139.215-.33.253-.572a4.41 4.41 0 00.017-.879 4.32 4.32 0 00-.13-.853c-.07-.24-.179-.419-.327-.54-.148-.123-.355-.177-.622-.16zm1.362-8.383c.312.058.56.206.744.445.184.239.302.572.354.999.053.423.039.95-.043 1.577-.062.48-.144.906-.247 1.279a3.431 3.431 0 01-.384.938c-.16.252-.357.435-.59.549-.234.114-.514.15-.841.108-.327-.043-.59-.15-.79-.32a1.474 1.474 0 01-.446-.683 3.305 3.305 0 01-.157-1.008 8.954 8.954 0 01.083-1.3c.082-.629.207-1.142.377-1.54.166-.398.373-.69.622-.872.249-.183.533-.262.853-.237l-.168 1.289a.626.626 0 00-.306.182c-.096.095-.181.245-.255.45a4.228 4.228 0 00-.18.85c-.056.423-.074.77-.055 1.041.015.271.071.475.167.612a.582.582 0 00.423.241.523.523 0 00.435-.13c.122-.108.225-.291.309-.55a5.84 5.84 0 00.208-1.021 4.43 4.43 0 00.046-.861c-.015-.218-.053-.384-.112-.499a.648.648 0 00-.214-.25l.167-1.289zm-1.409-1.37l1.594-4.95.904.291-1.594 4.95-.904-.291zm1.448-1.609l.383-1.19 2.204.71-.384 1.19-2.203-.71zm2.179-3.951l.949-1.929.673.332-.95 1.928-.673-.33zm5.246-5.213c-.42.593-.809 1.034-1.168 1.323-.362.287-.704.44-1.026.462-.322.017-.636-.082-.94-.298-.305-.215-.502-.477-.59-.785-.09-.312-.058-.686.094-1.12.15-.438.435-.953.855-1.546.42-.593.81-1.033 1.173-1.32.36-.289.7-.442 1.022-.459.322-.021.635.076.94.291.305.216.502.48.591.792.089.308.058.68-.092 1.117-.153.435-.439.95-.859 1.543zm-.775-.549a5.77 5.77 0 00.465-.761c.109-.23.16-.43.151-.604a.563.563 0 00-.26-.436c-.164-.115-.329-.148-.495-.098-.168.048-.341.163-.519.344-.18.179-.368.408-.567.689-.198.28-.354.539-.47.776-.115.233-.17.44-.165.624a.539.539 0 00.251.441.552.552 0 00.504.093c.172-.058.35-.18.533-.364.183-.189.374-.424.572-.704zm5.047-6.827l-.948-.996.906-.862 1.103 1.16c.195.205.323.417.383.635.061.214.069.432.023.655-.048.22-.136.44-.264.658a4.322 4.322 0 01-.47.646 8.397 8.397 0 01-1.25 1.189 4.324 4.324 0 01-.671.44 2.114 2.114 0 01-.66.22c-.22.03-.435.009-.646-.062a1.607 1.607 0 01-.608-.422l-1.103-1.16.906-.861.948.996c.183.194.37.296.561.308.19.012.392-.046.602-.173.211-.131.44-.314.686-.548.24-.228.43-.443.571-.647.14-.207.209-.405.206-.596 0-.194-.091-.387-.275-.58zm3.042-.015l-1.731-2.69 3.25-2.092a2.91 2.91 0 01.742-.353c.24-.075.463-.084.667-.025.208.057.386.202.536.434.099.155.153.3.162.437a.717.717 0 01-.08.384 1.32 1.32 0 01-.258.339 3.12 3.12 0 01-.365.3l-.345.14c.335-.213.6-.364.796-.454.199-.092.355-.127.468-.105.115.018.211.088.29.212l.372.576-1.052.676-.29-.45c-.053-.084-.11-.136-.171-.157-.06-.025-.15-.01-.27.043-.117.052-.288.15-.512.294l-1.644 1.058.486.757-1.05.676zm.113-2.135l2.199-1.415a.556.556 0 00.183-.177c.04-.066.036-.138-.015-.217-.047-.073-.108-.103-.183-.09a.557.557 0 00-.237.093l-2.199 1.415.252.391zm9.266-3.48l-.252-.838 2.39-.718a.61.61 0 00.226-.115c.057-.052.071-.128.041-.227-.03-.102-.084-.157-.16-.166a.61.61 0 00-.252.029l-2.312.695.633 2.107-1.197.36L26.885 4l3.323-.999c.24-.072.468-.121.686-.148.22-.032.422-.028.604.011.182.04.342.124.478.253.136.13.242.317.316.563.073.246.087.454.041.625a.856.856 0 01-.272.431 1.886 1.886 0 01-.51.305c-.2.085-.42.163-.66.235l-2.202.662zm5.208-.46l-.35-3.18 3.842-.423c.302-.033.576-.028.822.016.25.04.452.13.609.275.16.143.255.352.285.627a.927.927 0 01-.05.463.716.716 0 01-.242.309 1.324 1.324 0 01-.382.188 3.02 3.02 0 01-.462.106l-.37-.03c.395-.04.7-.057.915-.05.219.006.374.044.465.115.095.066.15.173.166.318l.075.681-1.242.137-.059-.532c-.01-.1-.039-.172-.084-.217-.042-.049-.13-.076-.26-.082a4.17 4.17 0 00-.59.035l-1.944.213.099.895-1.243.136zm1.053-1.86l2.6-.287a.532.532 0 00.242-.077c.066-.04.094-.107.084-.2-.01-.086-.05-.14-.123-.162a.557.557 0 00-.254-.023l-2.6.286.051.462zm8.162 1.729c-.724-.058-1.302-.167-1.734-.328-.432-.165-.739-.38-.922-.645-.18-.269-.254-.589-.225-.96.03-.373.154-.676.373-.91.223-.236.56-.4 1.012-.49.452-.095 1.04-.114 1.765-.057.724.058 1.303.169 1.734.333.432.162.738.377.917.645.183.265.26.584.23.956s-.155.676-.378.913c-.22.233-.555.397-1.007.492-.452.091-1.04.108-1.765.05zm.076-.947c.342.027.64.03.892.01.252-.023.45-.083.596-.178a.563.563 0 00.24-.448c.016-.199-.04-.357-.167-.474-.128-.12-.315-.21-.56-.27a5.287 5.287 0 00-.883-.136 5.562 5.562 0 00-.907-.006c-.26.02-.466.078-.621.176a.539.539 0 00-.25.442c-.017.2.043.36.177.48.138.118.333.209.585.272.256.06.555.105.898.132zm7.957-.72c.434.122.78.265 1.039.427.259.163.448.34.568.529.12.189.186.386.198.59a1.724 1.724 0 01-.336 1.157 1.314 1.314 0 01-.503.389 1.866 1.866 0 01-.765.154c-.3.006-.655-.05-1.066-.164l-3.466-.974.865-3.08 3.466.973zm-2.857 1.483l2.215.622c.18.05.335.082.466.095.133.01.243 0 .33-.027a.429.429 0 00.214-.132.609.609 0 00.124-.24.575.575 0 00.017-.266.422.422 0 00-.112-.228.84.84 0 00-.269-.19 2.407 2.407 0 00-.446-.167l-2.214-.622-.325 1.155zm9.745 3.076l.62-1.227 1.116.564-.722 1.428a1.522 1.522 0 01-.47.575 1.366 1.366 0 01-.61.24c-.224.03-.46.02-.709-.028a4.32 4.32 0 01-.766-.225 8.37 8.37 0 01-1.54-.779 4.317 4.317 0 01-.638-.485 2.112 2.112 0 01-.43-.548 1.4 1.4 0 01-.157-.63c.001-.223.065-.46.193-.714l.723-1.427 1.115.564-.62 1.227c-.121.238-.155.449-.102.632.053.184.174.354.364.51.195.154.444.308.747.461.295.15.562.257.801.322.242.062.452.06.63-.006.183-.065.334-.216.455-.454zm6.523 5.44a1.174 1.174 0 01-.761.414c-.3.037-.646-.031-1.04-.204-.392-.17-.837-.45-1.336-.84a9.507 9.507 0 01-.975-.863 3.43 3.43 0 01-.613-.808 1.468 1.468 0 01-.172-.788c.02-.259.133-.518.336-.778s.429-.433.677-.518c.25-.088.522-.1.815-.036.295.06.61.187.948.378.337.192.696.436 1.077.734.499.39.877.759 1.133 1.107.259.346.403.672.434.98.03.307-.046.592-.23.854l-1.024-.8a.625.625 0 00-.001-.356c-.033-.131-.12-.281-.258-.45a4.222 4.222 0 00-.64-.587 5.48 5.48 0 00-.868-.577c-.241-.125-.445-.18-.612-.167a.582.582 0 00-.423.241.523.523 0 00-.11.44c.032.16.138.343.317.546.18.204.437.437.774.7.286.223.525.383.717.478.195.097.357.15.486.157a.648.648 0 00.325-.058l1.024.8zm1.897-.516l3.45 3.892-.712.63-3.449-3.892.71-.63zm.648 2.065l.829.936-1.733 1.535-.829-.935 1.733-1.536zm2.292 3.886l1.177 1.8-.628.41-1.176-1.8.627-.41zm1.817 7.171c-.297-.664-.478-1.224-.544-1.68-.062-.458-.021-.83.124-1.118.15-.286.395-.505.735-.658.341-.153.666-.189.976-.108.315.081.62.299.917.652.3.351.598.858.895 1.522.297.663.477 1.223.54 1.681.065.456.023.828-.126 1.114-.145.288-.388.508-.729.66-.34.153-.668.188-.982.106-.31-.08-.615-.296-.915-.648-.297-.352-.594-.86-.89-1.523zm.867-.389c.14.313.28.576.419.788.142.21.29.356.442.437.157.08.326.079.508-.003.183-.081.295-.206.337-.375.044-.17.034-.377-.032-.621a5.298 5.298 0 00-.305-.839 5.549 5.549 0 00-.429-.8c-.141-.217-.292-.37-.453-.46a.539.539 0 00-.507-.008.552.552 0 00-.337.387c-.037.177-.023.392.042.644.07.253.175.537.315.85zm3.309 7.819l1.34-.309.28 1.218-1.559.36a1.523 1.523 0 01-.742.007 1.364 1.364 0 01-.576-.314 2.245 2.245 0 01-.432-.563 4.319 4.319 0 01-.317-.732 8.336 8.336 0 01-.387-1.681 4.312 4.312 0 01-.037-.802c.015-.25.063-.477.146-.68a1.4 1.4 0 01.382-.525 1.62 1.62 0 01.673-.309l1.56-.359.28 1.218-1.34.309c-.26.06-.443.169-.55.327-.108.158-.16.36-.158.606.005.248.047.538.123.87.074.321.163.595.266.82.107.226.243.386.408.481.167.099.38.118.64.058zm-1.536 2.626l3.197-.12.146 3.861c.012.303-.013.576-.074.819a1.142 1.142 0 01-.318.587c-.154.15-.37.23-.646.24a.927.927 0 01-.459-.083.715.715 0 01-.29-.264 1.322 1.322 0 01-.16-.394 3.025 3.025 0 01-.072-.468l.056-.367a7.48 7.48 0 01-.016.916c-.022.218-.07.37-.148.456-.073.09-.183.137-.33.142l-.684.026-.047-1.249.534-.02a.365.365 0 00.223-.068c.052-.04.085-.124.1-.254.016-.128.018-.325.008-.591l-.074-1.954-.9.034-.047-1.249zm1.78 1.184l.1 2.613c.003.1.023.182.059.248.036.068.1.101.194.097.086-.003.143-.04.17-.111a.556.556 0 00.041-.252l-.099-2.613-.465.018zm-1.72 9.747l.85.21-.598 2.422a.61.61 0 00-.016.254c.015.076.073.126.174.15.103.026.178.009.224-.052a.61.61 0 00.103-.232l.58-2.345-2.137-.527.3-1.213 3.106.766-.83 3.37c-.06.242-.135.464-.222.666-.085.205-.19.377-.317.514a.98.98 0 01-.462.282c-.18.052-.396.047-.645-.015-.249-.061-.435-.155-.558-.282a.857.857 0 01-.234-.454 1.89 1.89 0 01-.002-.593c.029-.216.073-.445.133-.688l.551-2.233zm-2.255 4.718l2.916 1.317-1.591 3.522a2.93 2.93 0 01-.432.7 1.142 1.142 0 01-.547.384c-.204.065-.433.04-.685-.074a.928.928 0 01-.373-.279.717.717 0 01-.142-.365 1.322 1.322 0 01.032-.425c.035-.149.083-.299.144-.45l.214-.304c-.166.36-.307.63-.422.813-.117.185-.229.299-.336.342-.106.047-.225.04-.359-.02l-.624-.282.515-1.139.487.22a.358.358 0 00.23.039c.064-.012.131-.073.203-.183.07-.107.16-.282.27-.525l.805-1.782-.82-.37.515-1.14zm1.066 1.853l-1.077 2.383a.556.556 0 00-.057.248c.002.078.045.136.13.174.079.036.147.028.203-.023a.557.557 0 00.148-.207l1.077-2.383-.424-.192zm-5.643 6.147c.418-.595.807-1.037 1.166-1.327.361-.288.702-.443 1.024-.465.322-.018.636.08.941.295.306.215.503.476.592.783.09.312.06.686-.091 1.122-.15.437-.433.953-.85 1.547-.419.595-.808 1.036-1.17 1.324-.359.29-.7.443-1.021.46-.322.023-.635-.073-.94-.288-.306-.214-.504-.478-.594-.79-.09-.307-.06-.68.09-1.117.15-.436.435-.95.853-1.545zm.777.546a5.73 5.73 0 00-.463.762c-.108.23-.158.43-.15.604.012.175.1.32.263.435.164.115.329.148.494.097.169-.048.342-.163.518-.345.18-.18.368-.41.565-.69.198-.281.354-.54.468-.778.115-.233.17-.44.164-.624a.539.539 0 00-.253-.44.552.552 0 00-.504-.092c-.171.058-.349.18-.532.365-.182.19-.372.425-.57.706zm-3.431 7.216c-.325.31-.623.536-.895.677-.272.14-.52.213-.744.22a1.227 1.227 0 01-.61-.13 1.723 1.723 0 01-.825-.878 1.31 1.31 0 01-.078-.631c.022-.229.108-.474.257-.737.147-.261.375-.539.684-.834l2.601-2.488 2.212 2.313-2.602 2.488zm.178-3.214l-1.662 1.59a2.74 2.74 0 00-.32.353.9.9 0 00-.144.297.429.429 0 00.005.251.615.615 0 00.144.23.577.577 0 00.22.15.422.422 0 00.253.02.84.84 0 00.3-.135 2.3 2.3 0 00.371-.3l1.663-1.59-.83-.866zm-7.607 6.822l.74 1.16-1.053.672-.861-1.348a1.522 1.522 0 01-.256-.697 1.363 1.363 0 01.103-.647c.09-.207.218-.406.385-.596.167-.19.362-.372.584-.545a8.344 8.344 0 011.454-.929c.252-.13.5-.23.743-.302.24-.07.47-.1.69-.091a1.4 1.4 0 01.622.184c.192.115.364.292.516.53l.862 1.349-1.054.673-.74-1.16c-.143-.224-.308-.36-.493-.408-.184-.048-.393-.03-.623.054a4.408 4.408 0 00-.778.408 4.323 4.323 0 00-.685.526c-.176.176-.281.358-.315.546-.037.19.016.397.16.622zm-8.002 2.847c-.1-.3-.09-.59.03-.866.121-.276.356-.54.705-.792.346-.25.814-.49 1.403-.722.45-.177.863-.31 1.24-.4.375-.094.71-.132 1.007-.116.298.02.553.104.765.253.213.15.38.378.5.685.12.307.154.59.1.847-.051.26-.179.5-.383.72-.202.222-.472.43-.808.622-.336.193-.73.378-1.18.554-.589.231-1.099.369-1.53.412-.429.047-.783.005-1.063-.125a1.235 1.235 0 01-.62-.632l1.211-.475a.625.625 0 00.307.18c.13.039.302.041.518.007a4.22 4.22 0 00.83-.251c.398-.156.711-.307.94-.454.23-.144.382-.291.455-.442a.582.582 0 00.008-.487.523.523 0 00-.324-.318c-.154-.055-.364-.056-.63-.005-.267.05-.599.154-.996.31a4.464 4.464 0 00-.777.374c-.182.118-.31.23-.383.338a.648.648 0 00-.115.308l-1.21.475zm-.522 1.895l-5.105.99-.18-.934 5.105-.988.18.932zm-2.107-.493l-1.227.238-.44-2.273 1.227-.238.44 2.273zm-4.512-.004l-2.148.097-.034-.749 2.148-.097.034.749z" fill="#E6E6E6"/><circle cx="39" cy="39" r="15.5" stroke="#FCCF31" stroke-width="3"/><circle cx="39" cy="39" r="3.696" fill="#FCCF30"/></svg>