<svg width="118" height="94" fill="none" xmlns="http://www.w3.org/2000/svg"><path d="M107.469 80.297c11.007-11.947 9.899-27.289 9.864-27.464V6.167A5.834 5.834 0 00111.5.333h-35C70.065.333 64.833 5.566 64.833 12v40.833a5.833 5.833 0 005.833 5.834h17.955a16.859 16.859 0 01-2.502 8.143c-2.963 4.672-8.546 7.863-16.602 9.473l-4.684.934v16.45h5.833c16.234 0 28.619-4.498 36.803-13.37zm-64.208 0c11.014-11.947 9.9-27.289 9.864-27.464V6.167A5.833 5.833 0 0047.292.333h-35C5.858.333.625 5.566.625 12v40.833a5.833 5.833 0 005.834 5.834h17.955a16.859 16.859 0 01-2.503 8.143c-2.963 4.672-8.546 7.863-16.601 9.473l-4.685.934v16.45H6.46c16.234 0 28.618-4.498 36.802-13.37z" fill="#FCCF31"/></svg>