<svg width="228" height="50" fill="none" xmlns="http://www.w3.org/2000/svg"><path d="M23.418 25.985v23.18H.311v-23.18h23.107zm25.52 0v23.18H25.83v-23.18h23.107zm70.339-8.092c.904 0 1.847.113 2.751.303.98.189 1.697.491 2.337.756l.038.038v4.802l-.188-.151c-1.471-1.059-3.091-1.588-4.675-1.588-1.884 0-3.43.642-4.598 1.89-1.169 1.248-1.734 2.95-1.734 5.105 0 2.08.565 3.744 1.696 4.954 1.093 1.248 2.639 1.815 4.599 1.815.678 0 1.47-.151 2.337-.454.829-.265 1.658-.718 2.375-1.248l.188-.151v4.538l-.038.037c-1.583.908-3.581 1.4-5.918 1.4-2.035 0-3.845-.454-5.39-1.324-1.621-.87-2.827-2.155-3.694-3.743-.867-1.626-1.32-3.404-1.32-5.408 0-2.306.453-4.31 1.357-6.05.867-1.702 2.224-3.063 3.921-4.046 1.696-.983 3.732-1.475 5.956-1.475zm32.266.038c3.242 0 5.843.945 7.615 2.874 1.847 1.928 2.752 4.575 2.752 7.903 0 3.365-.943 6.088-2.903 8.13-1.922 2.042-4.599 3.063-7.954 3.063-3.204 0-5.767-.983-7.652-2.874-1.884-1.929-2.865-4.575-2.865-7.828 0-3.478.943-6.239 2.903-8.243 1.922-2.004 4.674-3.025 8.104-3.025zm39.844 0c3.242 0 5.843.945 7.614 2.874 1.847 1.928 2.752 4.575 2.752 7.903 0 3.365-.942 6.088-2.902 8.13-1.923 2.042-4.599 3.063-7.954 3.063-3.204 0-5.767-.983-7.652-2.874-1.885-1.929-2.865-4.575-2.865-7.828 0-3.478.98-6.239 2.903-8.243 1.922-2.004 4.674-3.025 8.104-3.025zm-18.998-.038c.678 0 1.507.076 2.412.227.905.19 1.659.416 2.224.643l.113.038v4.613l-.188-.151c-.603-.454-1.357-.794-2.186-1.021-.83-.227-1.697-.378-2.526-.378-.942 0-1.583.189-2.149.567-.565.378-.791.945-.791 1.512 0 .681.188 1.21.565 1.588.453.417 1.433.908 2.978 1.55 1.96.757 3.317 1.703 4.41 2.61.83.945 1.207 2.193 1.207 3.592 0 2.005-.792 3.555-2.3 4.765-1.47 1.248-3.543 1.815-6.069 1.815-.829 0-1.771-.151-2.827-.34-1.055-.265-1.922-.492-2.638-.832l-.114-.038v-4.802l.189.15a10.482 10.482 0 002.752 1.4c1.017.34 1.884.491 2.714.491 2.148 0 3.204-.68 3.204-2.08 0-.49-.113-.869-.302-1.171-.264-.265-.603-.605-1.131-.908-.527-.303-1.394-.68-2.525-1.172-1.357-.567-2.337-1.172-3.016-1.702a5.745 5.745 0 01-1.508-1.966c-.339-.719-.49-1.588-.49-2.572 0-1.852.717-3.44 2.224-4.613 1.508-1.248 3.431-1.815 5.768-1.815zm40.936-9.907c1.169 0 2.074.151 2.752.378l.113.038v4.273l-.188-.114c-.792-.34-1.508-.491-2.187-.491-.98 0-1.771.302-2.299.907s-.829 1.55-.829 2.76v2.648h7.388v-4.727l.113-.038 4.674-1.399.151-.038v6.202h4.938v4.046h-5.013v9.907c0 1.286.226 2.155.678 2.685.49.567 1.169.794 2.149.794.264 0 .603-.038.98-.151.452-.114.716-.265 1.018-.454l.188-.151v4.046l-.038.038c-.301.15-.829.34-1.545.491-.679.114-1.395.227-2.073.227-4.147 0-6.22-2.231-6.22-6.655V22.43h-7.388v16.903h-4.938v-16.94h-3.43v-4.008h3.43v-2.912c0-1.475.339-2.76.98-3.895a6.552 6.552 0 012.676-2.685 8.806 8.806 0 013.92-.907zM95.001 10.14v29.193h-5.014v-18.53c.038-1.171.114-3.1.227-5.255H90.1c-.189.832-.377 1.815-.566 2.306l-8.67 21.516h-3.317l-8.745-21.327a17.71 17.71 0 01-.678-2.495h-.114c.038.453.114 1.058.151 1.852.027 1.135.035 2.115.037 2.996v19.05h-4.711v-29.23h7.124l7.275 18.34a27.452 27.452 0 011.32 3.781h.113l1.357-3.857 7.463-18.34H95zm9.65 8.244v20.949h-4.9v-20.95h4.9zm33.548-.34c.83 0 1.508.113 1.847.34l.114.037v4.916l-.189-.15c-.264-.19-.641-.341-1.168-.492-.566-.076-1.018-.19-1.471-.19-1.281 0-2.337.568-3.166 1.702-.829 1.097-1.206 2.61-1.206 4.424v10.702h-4.901v-20.95h4.901v3.669h.038c.49-1.173 1.055-2.156 1.884-2.836a5.16 5.16 0 013.317-1.173zm13.118 3.932c-1.771 0-3.166.605-4.184 1.815-.98 1.21-1.508 2.912-1.508 5.143 0 2.155.49 3.857 1.508 5.029 1.018 1.248 2.45 1.815 4.222 1.815 1.772 0 3.204-.567 4.109-1.74.942-1.172 1.357-2.949 1.432-5.218 0-2.23-.528-3.932-1.508-5.105-.98-1.172-2.337-1.739-4.071-1.739zm39.806 0c-1.772 0-3.166.605-4.184 1.815-.98 1.21-1.508 2.912-1.508 5.143 0 2.155.49 3.857 1.508 5.029 1.018 1.248 2.413 1.815 4.222 1.815 1.772 0 3.204-.567 4.109-1.74.942-1.172 1.432-2.949 1.432-5.218 0-2.23-.528-3.932-1.508-5.105-.98-1.172-2.375-1.739-4.071-1.739zM23.418.385v23.18H.311V.385h23.107zm25.52 0v23.18H25.83V.385h23.107zm53.3 9.151c.867 0 1.584.303 2.074.832.565.567.867 1.248.867 2.042 0 .794-.302 1.475-.867 2.004a3.002 3.002 0 01-2.074.794c-.829 0-1.507-.264-2.073-.794a2.664 2.664 0 01-.867-2.004c0-.832.302-1.512.867-2.042.566-.53 1.244-.832 2.073-.832z" fill="#E6E6E6"/></svg>