<svg width="116" height="68" fill="none" xmlns="http://www.w3.org/2000/svg"><path fill-rule="evenodd" clip-rule="evenodd" d="M43.154 0c-2.264 0-3.878 1.093-3.878 3.782v47.374c0 1.055.72 1.503 1.63 1.503h5.685c2.273 0 3.881-1.098 3.881-3.788V1.502c0-1.06-.725-1.503-1.63-1.503h-5.688zm-29.63 16.15C4.865 16.15.32 21.019.32 27.224c0 5.515 3.499 8.874 10.487 10.385l11.156 2.421c2.267.495 2.972 1.115 2.972 2.236 0 .861-.705 1.55-2.752 1.55H4.884c-2.772 0-3.888 1.558-3.888 3.752v3.506c0 .878.45 1.585 1.536 1.585h18.975c10.249 0 14.386-4.876 14.386-10.636 0-5.959-3.549-9.315-10.49-10.823l-11.16-2.427c-2.267-.492-2.969-1.112-2.969-2.237 0-.857.704-1.542 2.753-1.542h16.599c2.765 0 3.884-1.564 3.884-3.762v-3.496c0-.88-.45-1.585-1.535-1.585h-19.45zm52.114 1.503c1.02-1.06 1.931-1.502 3.64-1.502h8.224c2.016 0 2.902.493 3.742 1.782l13.603 20.788 9.752-21.005c.503-1.092 1.132-1.566 2.514-1.566h6.912c.927 0 1.597.442 1.597 1.336 0 .403-.192.796-.391 1.208l-.064.13L92.87 65.478c-.518 1.09-1.12 1.559-2.518 1.559h-6.857c-.924 0-1.6-.433-1.6-1.329 0-.374.175-.75.357-1.134.031-.066.063-.133.093-.2l7.56-15.504-17.098-24.527-8.661 9.05 11.407 16.382.047.066c.36.499.627.868.627 1.423 0 .946-.673 1.395-1.83 1.395h-7.738c-1.136 0-1.762-.496-2.513-1.556L51.157 32.74l14.48-15.086z" fill="#E6E6E6"/></svg>