<svg width="136" height="39" fill="none" xmlns="http://www.w3.org/2000/svg"><path d="M6.018.748l7.433 21.3V.748h5.754v35.121c-2.037.367-4.11.477-6.254.77l-6.54-19.65v20.493c-2.038.22-3.896.514-5.826.807V.748h5.433zm115.972 0l3.753 9.862 4.003-9.862H136l-7.255 17.854L136 38.289c-2.145-.294-4.289-.697-6.433-1.064l-4.11-10.85-4.181 9.971c-2.073-.367-4.075-.477-6.147-.77l7.362-17.194L115.843.748h6.147zm-81.413 0v5.866H30.463v7.882c2.216 0 5.611-.11 7.648-.11v5.866c-2.538 0-5.504 0-7.648.11v8.725c3.36-.22 6.719-.514 10.114-.623v5.645l-15.832 1.283V.748h15.832zm70.37 0v34.535c-1.859-.22-3.789-.33-5.611-.44V.748h5.611zm-20.157 0v27.386c3.252.073 6.54.33 9.721.513v5.792c-5.11-.33-10.221-.66-15.44-.77V.748h5.719zm-28.948 0v5.866h-5.933v26.982c-1.93 0-3.86 0-5.718.073V6.614h-5.933V.748h17.584zm19.656 0v5.866H71.133v7.479h7.828v5.865h-7.828v13.308h-5.61V.748h15.975z" fill="#E6E6E6"/></svg>