<svg width="138" height="46" fill="none" xmlns="http://www.w3.org/2000/svg"><path d="M17.711.726h1.216c4.22.092 8.372 1.79 11.354 4.794-1.1 1.124-2.225 2.202-3.303 3.326-1.675-1.514-3.693-2.684-5.895-3.097-3.257-.688-6.767-.068-9.496 1.79-2.982 1.95-5 5.252-5.437 8.785-.481 3.486.505 7.156 2.776 9.863 2.179 2.638 5.505 4.29 8.946 4.404 3.21.184 6.56-.803 8.9-3.05 1.835-1.583 2.683-3.992 2.959-6.331-3.808 0-7.616.023-11.424 0v-4.726h16.034c.826 5.07-.367 10.781-4.22 14.405-2.57 2.57-6.125 4.083-9.75 4.382-3.509.344-7.133-.322-10.252-2.019-3.74-1.996-6.721-5.367-8.19-9.336C.555 20.27.532 16.14 1.816 12.47c1.17-3.349 3.418-6.308 6.308-8.372C10.9 2.057 14.27.933 17.711.726zm91.981 1.194h4.909v32.755c-1.628 0-3.28.022-4.909-.023.023-10.896 0-21.814 0-32.733zM45.26 13.273c3.028-.573 6.308.07 8.808 1.881 2.271 1.606 3.854 4.129 4.335 6.882.62 3.188-.16 6.674-2.225 9.198-2.225 2.821-5.872 4.335-9.427 4.105-3.257-.183-6.423-1.811-8.35-4.472-2.179-2.936-2.706-6.974-1.513-10.414 1.192-3.693 4.564-6.515 8.372-7.18zm.688 4.358a6.167 6.167 0 00-3.211 2.042c-2.225 2.66-2.087 6.996.367 9.473 1.399 1.422 3.51 2.088 5.46 1.698 1.811-.321 3.394-1.537 4.266-3.143 1.513-2.73 1.078-6.491-1.24-8.625-1.49-1.376-3.67-1.95-5.642-1.445zm23.626-4.358c3.463-.665 7.248.298 9.84 2.73 4.221 3.784 4.68 10.872 1.079 15.23-2.18 2.753-5.712 4.267-9.199 4.106-3.326-.091-6.606-1.743-8.579-4.473-2.225-3.004-2.706-7.133-1.445-10.643 1.262-3.578 4.565-6.308 8.304-6.95zm.688 4.358a6.272 6.272 0 00-3.211 2.019c-2.202 2.615-2.11 6.881.252 9.381 1.4 1.491 3.578 2.225 5.597 1.813 1.789-.345 3.394-1.537 4.267-3.143 1.49-2.753 1.054-6.514-1.285-8.648-1.491-1.376-3.67-1.926-5.62-1.422zm19.933-3.027c2.639-1.652 6.148-2.11 8.992-.688.895.39 1.629 1.055 2.34 1.72.023-.62 0-1.262.023-1.904 1.537.023 3.074 0 4.633.023v20.231c-.023 3.05-.803 6.285-3.005 8.51-2.408 2.454-6.101 3.211-9.427 2.707-3.556-.528-6.652-3.12-8.028-6.4 1.376-.665 2.821-1.193 4.243-1.812.803 1.88 2.432 3.487 4.473 3.854 2.042.367 4.404-.138 5.735-1.835 1.422-1.744 1.422-4.13 1.353-6.262-1.055 1.032-2.27 1.95-3.739 2.293-3.188.895-6.698-.206-9.152-2.362-2.478-2.156-3.946-5.482-3.808-8.786.07-3.738 2.18-7.34 5.367-9.29zm4.749 2.936c-1.4.229-2.707 1.009-3.602 2.087-2.156 2.569-2.156 6.675.024 9.198 1.238 1.491 3.234 2.317 5.16 2.11 1.812-.183 3.487-1.33 4.382-2.913 1.514-2.683 1.261-6.33-.78-8.67-1.262-1.445-3.28-2.156-5.184-1.812zm25.552-1.766c2.753-2.57 6.996-3.441 10.529-2.088 3.349 1.262 5.482 4.45 6.56 7.73-4.978 2.065-9.933 4.106-14.909 6.17.687 1.308 1.742 2.5 3.165 2.983 1.995.71 4.381.458 6.055-.872.665-.505 1.193-1.17 1.697-1.812 1.262.849 2.524 1.674 3.785 2.523-1.789 2.684-4.793 4.565-8.028 4.863-3.579.436-7.386-.94-9.702-3.739-3.808-4.404-3.441-11.79.848-15.758zm2.454 4.243c-.78 1.124-1.101 2.5-1.078 3.854 3.326-1.377 6.653-2.753 9.978-4.152-.551-1.285-1.881-2.064-3.234-2.27-2.179-.39-4.45.779-5.666 2.568z" fill="#E6E6E6"/></svg>