<svg width="155" height="48" fill="none" xmlns="http://www.w3.org/2000/svg"><path fill-rule="evenodd" clip-rule="evenodd" d="M22.974 30.842c11.524 6.771 25.772 10.845 40.49 10.845 9.927 0 20.847-2.074 30.887-6.378 1.517-.65 2.786 1.003 1.302 2.115-8.96 6.67-21.946 10.228-33.128 10.228-15.678 0-29.793-5.856-40.47-15.597-.84-.766-.088-1.81.919-1.213zm80.23-.664c.98 1.226-.255 9.733-5.067 13.793-.739.624-1.443.292-1.114-.535 1.08-2.725 3.503-8.832 2.355-10.317-1.14-1.477-7.57-.698-10.456-.352-.88.108-1.014-.664-.222-1.22 5.121-3.64 13.524-2.59 14.504-1.37zm16.9-29.215c7.08 0 10.913 6.141 10.913 13.95 0 7.544-4.235 13.53-10.913 13.53-6.953 0-10.739-6.142-10.739-13.794 0-7.7 3.833-13.686 10.739-13.686zM74.029.726c2.322 0 5.356.624 7.188 2.4 2.206 2.08 2.116 4.82 2.102 7.815l-.001 7.985c0 2.257.926 3.247 1.798 4.467.302.433.37.955-.02 1.28-.973.82-2.705 2.346-3.658 3.2l-.006-.014c-.316.285-.772.305-1.128.116-1.584-1.329-1.873-1.946-2.738-3.213-2.618 2.698-4.477 3.504-7.866 3.504-4.02 0-7.141-2.501-7.141-7.51 0-3.911 2.094-6.575 5.087-7.877 2.59-1.152 6.208-1.355 8.973-1.674v-.623c0-1.146.088-2.502-.584-3.491-.577-.888-1.69-1.254-2.677-1.254-1.82 0-3.437.942-3.833 2.894-.08.434-.396.861-.832.881l-4.624-.501c-.39-.088-.826-.407-.712-1.01C64.417 2.434 69.492.726 74.03.726zm-62.559 0c2.322 0 5.356.624 7.188 2.4 2.322 2.189 2.1 5.11 2.1 8.29v7.51c0 2.257.927 3.247 1.8 4.467.308.433.375.955-.014 1.28-.973.82-2.705 2.346-3.658 3.2l-.013-.014c-.316.285-.772.305-1.128.116-1.584-1.329-1.865-1.946-2.738-3.213-2.617 2.698-4.47 3.504-7.866 3.504-4.013 0-7.141-2.501-7.141-7.51 0-3.911 2.1-6.575 5.087-7.877 2.591-1.152 6.209-1.355 8.974-1.674v-.623c0-1.146.087-2.502-.577-3.491-.584-.888-1.698-1.254-2.678-1.254-1.82 0-3.443.942-3.84 2.894-.08.434-.395.861-.825.881l-4.63-.501C1.12 9.023.69 8.704.798 8.1 1.866 2.434 6.933.726 11.47.726zm40.203.237c2 0 4.188.834 5.523 2.705 1.51 2.08 1.202 5.104 1.202 7.754l-.007 15.61c0 .495-.41.895-.92.895h-4.765c-.477-.034-.859-.42-.859-.895V13.923c0-1.043.094-3.646-.134-4.636-.356-1.66-1.423-2.128-2.806-2.128-1.154 0-2.362.78-2.852 2.026-.381.97-.438 2.449-.444 3.718v14.13a.904.904 0 01-.919.894h-4.765a.907.907 0 01-.859-.895l-.007-13.109c0-2.758.45-6.819-2.94-6.819-3.086 0-3.286 3.207-3.295 5.933v13.995c0 .495-.41.895-.92.895h-4.771a.905.905 0 01-.852-.82V2.373c0-.495.409-.888.919-.888h4.45c.463.02.832.38.866.827v3.233h.087C33.766 2.421 35.947.963 38.887.963c2.987 0 4.852 1.458 6.195 4.582C46.236 2.421 48.86.963 51.672.963zm95.693 0c2.141 0 4.229.78 5.571 2.915 1.248 1.98 1.248 5.307 1.248 7.7v15.57c-.054.434-.449.78-.919.78h-4.786c-.436-.035-.798-.36-.845-.78V13.713c0-2.704.308-6.663-2.987-6.663-1.161 0-2.228.786-2.758 1.98-.672 1.511-.759 3.016-.759 4.683v13.32a.922.922 0 01-.933.894h-4.752c-.476-.034-.859-.42-.859-.895l-.006-24.74c.04-.454.436-.807.919-.807h4.423c.416.02.758.305.852.692v3.782h.088c1.335-3.382 3.208-4.996 6.503-4.996zm-41.672.454c.503 0 .906.366.906.895v3.03c-.007.508-.429 1.173-1.181 2.223l-8.128 11.72c3.02-.075 6.208.38 8.947 1.939.617.352.785.867.832 1.375v3.776c0 .515-.564 1.118-1.155.807-4.825-2.556-11.235-2.834-16.57.027-.544.298-1.114-.299-1.114-.814V22.81c0-.576.006-1.56.577-2.434l9.416-13.638h-8.195c-.503 0-.906-.359-.906-.888V2.312a.87.87 0 01.886-.895h15.685zM76.619 15.07c-3.456 0-7.1.745-7.1 4.853 0 2.081 1.073 3.49 2.906 3.49 1.335 0 2.543-.833 3.302-2.188.94-1.668.892-3.234.892-5.111V15.07zm-62.558 0c-3.45 0-7.094.745-7.094 4.853 0 2.081 1.067 3.49 2.899 3.49 1.342 0 2.544-.833 3.302-2.188.94-1.668.893-3.234.893-5.111V15.07zm106.083-9.056c-3.517 0-3.738 4.84-3.738 7.856 0 3.023-.047 9.476 3.698 9.476 3.698 0 3.872-5.206 3.872-8.378 0-2.088-.087-4.582-.711-6.561-.537-1.722-1.604-2.393-3.121-2.393z" fill="#E6E6E6"/></svg>