<svg width="374" height="136" fill="none" xmlns="http://www.w3.org/2000/svg"><path fill-rule="evenodd" clip-rule="evenodd" d="M97.961 117.883c-17.88-2.097-31.733-7.6-45.539-13.616C7.147 84.518-6.245 59.19 27.956 38.727c53.175-31.72 171.34-44.689 260.217-25.3 19.684 4.281 46.44 8.935 65.092 22.605 17.352 12.711 15.364 25.709 5.81 37.021-9.736 11.605-27.344 21.477-41.202 27.585-60.579 26.64-178.626 44.965-281.492 19.875-2.117-.496-4.309-.188-5.008.677-.699.865.282 1.955 2.245 2.437 105.888 25.824 227.669 7.217 290.02-20.198 17.244-7.62 40.112-20.894 47.716-36.128 5.144-10.417 3.267-21.732-11.763-32.828-19.806-14.556-48.216-19.7-69.11-24.253C198.728-9.8 76.517 3.492 21.699 36.262-15.117 58.251-.977 85.475 47.714 106.704c14.84 6.514 30.052 12.367 49.46 14.642 2.14.251 4.047-.323 4.137-1.29.244-.954-1.363-1.937-3.35-2.173z" fill="#FCCF31"/></svg>