<svg width="95" height="95" fill="none" xmlns="http://www.w3.org/2000/svg"><path d="M95 64.146V13.395c0-4.295-3.495-7.789-7.79-7.789H38.031a1.392 1.392 0 000 2.785h49.18a5.01 5.01 0 015.003 5.004v49.37H2.785v-49.37A5.01 5.01 0 017.79 8.39h19.97a1.392 1.392 0 000-2.785H7.788C3.494 5.606.001 9.1.001 13.395v50.751L0 64.159v.285c0 4.295 3.495 7.789 7.79 7.789h32v7.74h-10.3c-1.28 0-2.32 1.04-2.32 2.32v4.78c0 1.28 1.04 2.321 2.32 2.321h36.02c1.28 0 2.32-1.04 2.32-2.32v-4.781c0-1.28-1.04-2.32-2.32-2.32h-10.3v-7.74h32c4.295 0 7.79-3.494 7.79-7.788v-.299zm-29.956 18.61v3.853H29.955v-3.852h35.089zm-22.47-2.784v-7.656h9.852v7.656h-9.852zm49.503-14.367a4.92 4.92 0 01-.091.335l-.026.074a4.931 4.931 0 01-.106.292l-.03.073a4.919 4.919 0 01-.143.31l-.046.088a5.048 5.048 0 01-.166.291l-.05.078a4.964 4.964 0 01-.192.278l-.035.046c-.066.087-.134.17-.206.252l-.053.061a4.978 4.978 0 01-.562.537l-.054.042a5.21 5.21 0 01-.271.202l-.034.024c-.1.067-.202.13-.306.19l-.066.038a5.074 5.074 0 01-.316.162l-.068.03a4.97 4.97 0 01-.34.14l-.038.013a4.88 4.88 0 01-.342.107l-.05.014a5.023 5.023 0 01-.808.143l-.07.005a5 5 0 01-.388.017H7.78c-.13 0-.26-.007-.389-.017l-.069-.005a5.038 5.038 0 01-.808-.142l-.05-.015a4.874 4.874 0 01-.342-.107l-.038-.013a4.924 4.924 0 01-.34-.139l-.068-.03a5.126 5.126 0 01-.316-.162l-.066-.038a5.023 5.023 0 01-.306-.19l-.034-.025a4.928 4.928 0 01-.271-.201c-.018-.015-.037-.028-.054-.043a5.142 5.142 0 01-.562-.536l-.054-.062a5.098 5.098 0 01-.205-.25l-.036-.048a5.115 5.115 0 01-.19-.277 4.902 4.902 0 01-.406-.767l-.03-.074a5.033 5.033 0 01-.106-.291l-.026-.075a5.06 5.06 0 01-.103-.389H92.09l-.013.054z" fill="#DFDFDF"/><path d="M86.867 41.123c.77 0 1.393-.623 1.393-1.392V19.315c0-1.28-1.041-2.32-2.32-2.32H9.06a2.322 2.322 0 00-2.32 2.32V56.04a2.323 2.323 0 002.32 2.321h76.88c1.279 0 2.32-1.04 2.32-2.32v-6.468a1.392 1.392 0 00-2.785 0v6.003H9.525V19.78h75.95v19.952c0 .77.623 1.392 1.392 1.392z" fill="#DFDFDF"/><path d="M59.92 33.87h-3.095a11.169 11.169 0 00-.039-.095l2.188-2.188a2.17 2.17 0 000-3.065l-2.319-2.318a2.17 2.17 0 00-3.065 0l-2.188 2.188a6.7 6.7 0 00-.095-.04v-3.094a2.17 2.17 0 00-2.167-2.167h-3.28a2.17 2.17 0 00-2.166 2.167v3.095a9.459 9.459 0 00-.095.04l-2.188-2.19a2.17 2.17 0 00-3.065 0l-2.319 2.32a2.17 2.17 0 000 3.064l2.188 2.188-.04.095h-3.094a2.17 2.17 0 00-2.167 2.168v3.279a2.17 2.17 0 002.167 2.167h3.095l.039.095-2.188 2.188a2.17 2.17 0 000 3.065l2.319 2.319a2.17 2.17 0 003.065 0l2.188-2.189.095.04v3.094a2.17 2.17 0 002.167 2.168h3.28a2.17 2.17 0 002.166-2.168v-3.094l.095-.04 2.188 2.189a2.17 2.17 0 003.065 0l2.319-2.319a2.17 2.17 0 000-3.065l-2.188-2.188.04-.095h3.093a2.17 2.17 0 002.168-2.167v-3.28a2.17 2.17 0 00-2.168-2.167zm-.618 4.83h-2.901c-.911 0-1.733.58-2.044 1.444a7.26 7.26 0 01-.265.64 2.173 2.173 0 00.42 2.46l2.056 2.056-1.445 1.445-2.056-2.056a2.173 2.173 0 00-2.459-.42 7.278 7.278 0 01-.64.264 2.181 2.181 0 00-1.446 2.044v2.902h-2.044v-2.902c0-.912-.581-1.733-1.447-2.044a7.173 7.173 0 01-.639-.265 2.173 2.173 0 00-2.459.421l-2.055 2.056-1.446-1.445 2.056-2.056c.642-.642.812-1.63.42-2.46a7.266 7.266 0 01-.265-.64 2.182 2.182 0 00-2.044-1.445h-2.9v-2.044h2.9c.911 0 1.733-.58 2.044-1.445a7.3 7.3 0 01.265-.64 2.173 2.173 0 00-.42-2.46l-2.056-2.055 1.446-1.446 2.056 2.056c.642.642 1.63.812 2.458.421.207-.097.422-.187.64-.265a2.181 2.181 0 001.446-2.044v-2.902h2.044v2.902a2.18 2.18 0 001.447 2.044 7.3 7.3 0 01.64.265c.828.39 1.816.221 2.458-.421l2.056-2.056 1.446 1.446-2.056 2.055a2.173 2.173 0 00-.42 2.46c.097.208.187.423.265.64a2.182 2.182 0 002.043 1.445h2.901v2.044z" fill="#DFDFDF"/><path d="M51.553 33.624c-1.77-1.77-4.917-2.555-7.96-.32a2.163 2.163 0 00-.465.466c-2.235 3.043-1.45 6.19.32 7.96a5.774 5.774 0 004.066 1.69c1.237 0 2.575-.402 3.894-1.37.178-.131.334-.288.465-.465 2.235-3.044 1.45-6.191-.32-7.961zm-1.87 6.236c-1.799 1.274-3.419.75-4.267-.099-.848-.848-1.373-2.468-.099-4.267 1.799-1.274 3.419-.75 4.267.1.848.847 1.373 2.467.099 4.266zM11.978 12.406a1.629 1.629 0 00-.235-.563 1.544 1.544 0 00-.437-.44 1.565 1.565 0 00-.566-.233 1.54 1.54 0 00-.616 0 1.569 1.569 0 00-1.24 1.238 1.553 1.553 0 00.234 1.184 1.554 1.554 0 00.712.585c.103.041.2.07.29.087a1.59 1.59 0 001.621-.67 1.603 1.603 0 00.237-.567 1.563 1.563 0 000-.621zm5.322.004a1.591 1.591 0 00-.235-.57 1.509 1.509 0 00-.195-.236 1.553 1.553 0 00-.807-.433 1.612 1.612 0 00-.916.089 1.602 1.602 0 00-.707.581 1.614 1.614 0 00-.234.566 1.558 1.558 0 00.235 1.187 1.582 1.582 0 002.189.435 1.546 1.546 0 00.67-1.002 1.553 1.553 0 000-.617zm5.321-.004a1.64 1.64 0 00-.234-.563 1.57 1.57 0 00-1.62-.672 1.573 1.573 0 00-.809.431c-.293.293-.46.7-.46 1.116 0 .415.167.822.46 1.115a1.59 1.59 0 001.117.463 1.59 1.59 0 001.31-.702 1.595 1.595 0 00.268-.876c0-.103-.01-.207-.032-.312z" fill="#DFDFDF"/></svg>