<svg width="92" height="92" fill="none" xmlns="http://www.w3.org/2000/svg"><path d="M86.612 42.216c-.744 0-1.347.603-1.347 1.347v4.874a1.347 1.347 0 002.695 0v-4.874c0-.744-.603-1.347-1.348-1.347z" fill="#DFDFDF"/><path d="M84.903 7.696H7.097A7.105 7.105 0 000 14.793v5.154a1.348 1.348 0 102.695 0v-5.154a4.407 4.407 0 014.402-4.402h5.806V81.61H7.097a4.407 4.407 0 01-4.402-4.402V29.65a1.347 1.347 0 10-2.695 0v47.557a7.105 7.105 0 007.097 7.097h77.806A7.105 7.105 0 0092 77.207V14.793c0-3.913-3.184-7.097-7.097-7.097zm4.402 69.51a4.407 4.407 0 01-4.402 4.403h-1.96v-40.94a1.347 1.347 0 10-2.696 0v40.94H15.598V10.39h64.65v20.457a1.347 1.347 0 102.694 0V10.39h1.961a4.407 4.407 0 014.402 4.402v62.414z" fill="#DFDFDF"/><path d="M28.318 12.51h-9.163c-.744 0-1.347.604-1.347 1.348v9.464a1.348 1.348 0 102.695 0v-8.117h7.815a1.348 1.348 0 000-2.695zm47.972 0h-9.163a1.348 1.348 0 100 2.695h7.815v8.117a1.348 1.348 0 102.695 0v-9.464c0-.745-.603-1.348-1.347-1.348zM28.318 76.847h-7.815V68.73a1.348 1.348 0 10-2.695 0v9.465c0 .744.603 1.347 1.347 1.347h9.163a1.348 1.348 0 000-2.695zm47.972-9.464c-.745 0-1.348.603-1.348 1.348v8.117h-7.815a1.348 1.348 0 100 2.695h9.163c.744 0 1.347-.604 1.347-1.348V68.73c0-.744-.603-1.347-1.347-1.347zM42.627 37.726h-2.223c-.744 0-1.347.604-1.347 1.348v2.084a1.348 1.348 0 002.695 0v-.737h.875a1.348 1.348 0 100-2.695zm12.416 0H52.82a1.347 1.347 0 000 2.695h.875v.737a1.348 1.348 0 102.696 0v-2.084c0-.744-.604-1.348-1.348-1.348zM42.626 51.631h-.875v-.736a1.347 1.347 0 10-2.695 0v2.084c0 .744.603 1.348 1.347 1.348h2.223a1.348 1.348 0 000-2.696zm12.417-2.084c-.744 0-1.348.603-1.348 1.347v.737h-.875a1.347 1.347 0 000 2.695h2.223c.744 0 1.348-.603 1.348-1.348v-2.084c0-.744-.604-1.347-1.348-1.347zm-5.24-4.869h-.732v-.732a1.348 1.348 0 10-2.696 0v.732h-.732a1.348 1.348 0 000 2.696h.732v.731a1.347 1.347 0 102.696 0v-.731h.732a1.348 1.348 0 100-2.696zM7.962 41.85A4.156 4.156 0 003.81 46a4.156 4.156 0 004.15 4.152A4.156 4.156 0 0012.114 46a4.156 4.156 0 00-4.151-4.151zm0 5.607A1.458 1.458 0 016.506 46c0-.803.653-1.456 1.456-1.456.803 0 1.456.653 1.456 1.456 0 .803-.653 1.456-1.456 1.456z" fill="#DFDFDF"/></svg>