<svg width="64" height="108" fill="none" xmlns="http://www.w3.org/2000/svg"><path d="M55.318 0H10.134C5.426 0 1.596 3.83 1.596 8.537v10.35a1.59 1.59 0 00-1.451 1.584v3.589a1.59 1.59 0 001.451 1.583v2.341a1.59 1.59 0 00-1.451 1.584v3.589a1.59 1.59 0 001.451 1.584v6.604a1.584 1.584 0 003.17 0V12.33h55.92v77.3H4.766v-36.9a1.584 1.584 0 00-3.17 0v46.732c0 4.707 3.83 8.537 8.538 8.537h21.745a1.584 1.584 0 100-3.169H10.134a5.374 5.374 0 01-5.369-5.368v-6.665h55.921v6.665a5.374 5.374 0 01-5.368 5.368H43.096a1.585 1.585 0 000 3.169h12.222c4.707 0 8.537-3.83 8.537-8.537V8.537C63.855 3.83 60.025 0 55.318 0zm5.368 9.162H4.766v-.625a5.375 5.375 0 015.368-5.368h45.184a5.374 5.374 0 015.368 5.368v.625z" fill="#DFDFDF"/><path d="M32.726 93.944a4.891 4.891 0 00-4.885 4.886 4.89 4.89 0 004.885 4.885 4.89 4.89 0 004.886-4.885 4.891 4.891 0 00-4.886-4.886zm0 6.603c-.946 0-1.716-.77-1.716-1.717 0-.947.77-1.717 1.716-1.717.947 0 1.717.77 1.717 1.717a1.72 1.72 0 01-1.717 1.717zM11.774 14.275h-3.16c-.874 0-1.584.71-1.584 1.585v2.962a1.584 1.584 0 003.169 0v-1.378h1.575a1.584 1.584 0 000-3.169zm45.063 0h-3.159a1.584 1.584 0 000 3.17h1.575v1.377a1.584 1.584 0 003.168 0V15.86c0-.875-.709-1.585-1.584-1.585zm-45.063 70.24h-1.575v-1.377a1.584 1.584 0 00-3.169 0V86.1c0 .875.71 1.584 1.585 1.584h3.159a1.584 1.584 0 000-3.169zm45.063-2.962c-.875 0-1.584.71-1.584 1.585v1.377h-1.575a1.584 1.584 0 000 3.169h3.16c.874 0 1.583-.71 1.583-1.584v-2.962c0-.875-.709-1.585-1.584-1.585zM45.14 49.395h-1.31a11.24 11.24 0 00-9.52-9.52v-1.309a1.584 1.584 0 00-3.169 0v1.309a11.24 11.24 0 00-9.52 9.52h-1.308a1.584 1.584 0 000 3.169h1.308a11.24 11.24 0 009.52 9.52v1.308a1.584 1.584 0 003.169 0v-1.308a11.24 11.24 0 009.52-9.52h1.308a1.584 1.584 0 100-3.17zm-13.998-6.308v6.308h-6.308a8.073 8.073 0 016.308-6.308zm0 15.785a8.073 8.073 0 01-6.308-6.309h6.308v6.309zm3.169 0v-6.309h6.308a8.073 8.073 0 01-6.308 6.308zm0-9.477v-6.308a8.073 8.073 0 016.308 6.308h-6.308zm1.271-44.582h-5.713a1.584 1.584 0 000 3.17h5.713a1.584 1.584 0 000-3.17z" fill="#DFDFDF"/></svg>