<svg width="102" height="102" fill="none" xmlns="http://www.w3.org/2000/svg"><g clip-path="url(#clip0)" fill="#DFDFDF"><path d="M24.503 23.998c-.755 0-1.2.387-1.47 1.142-.949 2.69-1.84 5.788-2.807 8.517l-2.865-8.536c-.252-.755-.775-1.142-1.549-1.142-1.026 0-1.548.523-1.548 1.549 0 .193.038.406.096.619l4.104 11.382c.368 1.026.949 1.548 1.742 1.548.852 0 1.471-.561 1.878-1.703l3.968-11.189c.078-.155.136-.367.136-.561 0-.833-.89-1.626-1.684-1.626zm10.996 8.498c1.567-1.007 2.284-2.498 2.284-3.969 0-2.303-1.8-4.51-5.053-4.51h-3.852c-1.258 0-1.916.503-1.916 1.607v11.75c0 1.142.523 1.703 1.568 1.703 1.026 0 1.53-.561 1.53-1.703v-4.085h2.245l2.439 4.956c.348.677.87.851 1.413.851 1.006 0 1.47-.62 1.47-1.49 0-.33-.115-.678-.25-1.007l-1.878-4.103zm-2.633-2.285H30.06v-3.097h2.807c1.22 0 1.742.697 1.742 1.413 0 .813-.658 1.684-1.742 1.684z"/><path d="M101.961 64.685l-1.662-11a3.469 3.469 0 00-3.45-2.968h-5.041c-1.872-4.489-6.165-7.692-11.202-8.028l-.633-.042c-10.81-.72-22.061-2.426-32.883-1.705l-1.063.071a21.433 21.433 0 001.868-8.774c0-11.89-9.673-21.563-21.563-21.563-8.172 0-15.545 4.531-19.243 11.825a1.5 1.5 0 102.674 1.356c3.185-6.28 9.533-10.182 16.57-10.182 10.236 0 18.564 8.327 18.564 18.564 0 3.266-.849 6.336-2.336 9.005l-21.674 1.445a13.035 13.035 0 00-7.396 2.927c-3.223-3.09-5.347-7.326-5.677-12.069a1.5 1.5 0 00-2.992.209 21.472 21.472 0 006.566 14.025 13.06 13.06 0 00-1.704 2.936H5.151a3.469 3.469 0 00-3.45 2.968l-1.662 11a3.485 3.485 0 00.805 2.797 3.485 3.485 0 002.645 1.213h3.439l-1.005 7.903a13.08 13.08 0 003.16 10.293 13.08 13.08 0 009.812 4.432h10.427c2.522 0 5.008-.42 7.39-1.248l13.513-4.697h1.042l13.512 4.697a1.499 1.499 0 10.985-2.832l-13.752-4.78a1.5 1.5 0 00-.492-.084h-1.548a1.5 1.5 0 00-.492.083l-13.752 4.781a19.468 19.468 0 01-6.406 1.082H18.895a10.08 10.08 0 01-9.998-11.349l1.217-9.574 2.078-14.835c1.27-3.822 4.755-6.61 8.894-6.886l25.808-1.72c10.952-.73 22.41.98 33.425 1.714l.087.006c4.798.32 8.72 4.014 9.327 8.784l2.861 22.511a10.081 10.081 0 01-9.997 11.349h-6.475a1.5 1.5 0 000 2.998h6.476a13.08 13.08 0 009.812-4.432 13.08 13.08 0 003.16-10.293l-1.005-7.903h3.946a3.486 3.486 0 003.45-4.01zM8.785 54.087l-1.476 11.61H3.49a.484.484 0 01-.371-.17.484.484 0 01-.114-.394l1.662-11a.487.487 0 01.485-.417h3.69c-.02.123-.04.247-.056.371zm90.098 11.44a.484.484 0 01-.372.17h-3.837l-1.678-11.98h3.853c.244 0 .448.175.485.416l1.662 11a.485.485 0 01-.113.393z"/><path d="M56.266 50.717H43.68a1.5 1.5 0 100 2.999h12.586a1.5 1.5 0 100-2.999zm19.774 9.385a1.5 1.5 0 00-2.114-.166l-7.253 6.196a1.5 1.5 0 101.948 2.28l7.253-6.196a1.5 1.5 0 00.166-2.114zm7.607 2.88a1.5 1.5 0 00-2.114-.166L63.417 78.29a1.5 1.5 0 101.948 2.28L83.48 65.096a1.5 1.5 0 00.167-2.114zm-52.548-2.88a1.5 1.5 0 00-2.114-.166l-7.253 6.196a1.5 1.5 0 101.947 2.28l7.253-6.196a1.5 1.5 0 00.167-2.114zm7.607 2.88a1.5 1.5 0 00-2.114-.166L18.477 78.29a1.5 1.5 0 101.947 2.28L38.54 65.096a1.5 1.5 0 00.166-2.114z"/></g><defs><clipPath id="clip0"><path fill="#fff" d="M0 0h102v102H0z"/></clipPath></defs></svg>