<svg width="98" height="98" fill="none" xmlns="http://www.w3.org/2000/svg"><path d="M4.305 4.755H1.439A1.44 1.44 0 000 6.195V8.88a1.44 1.44 0 102.879 0V7.634h1.426a1.44 1.44 0 100-2.88zm92.255 0h-2.865a1.44 1.44 0 100 2.879h1.426V8.88a1.44 1.44 0 102.88 0V6.194a1.44 1.44 0 00-1.44-1.44zM4.305 88.848H2.879v-1.247a1.44 1.44 0 10-2.879 0v2.687c0 .795.644 1.44 1.44 1.44h2.865a1.44 1.44 0 100-2.88zm92.255-2.686a1.44 1.44 0 00-1.439 1.439v1.247h-1.426a1.44 1.44 0 100 2.88h2.866a1.44 1.44 0 001.44-1.44V87.6a1.44 1.44 0 00-1.44-1.44zM49.017 25.088a1.44 1.44 0 00-1.44 1.44v5.757a1.44 1.44 0 102.879 0v-5.758a1.44 1.44 0 00-1.44-1.44z" fill="#DFDFDF"/><path d="M87.025 65.982V48.137a1.44 1.44 0 10-2.88 0v17.845a5.847 5.847 0 00-2.593 1.44l-4.141-2.035a1.44 1.44 0 00-1.27 2.584l3.872 1.903a5.825 5.825 0 00-.217 2.6L53.593 83.763a5.86 5.86 0 00-3.136-2.033V55.34a1.44 1.44 0 001.117-2.648l-1.117-.549V48.32a5.859 5.859 0 004.329-6.625l26.188-11.476a5.861 5.861 0 003.171 2.077v5.477a1.44 1.44 0 102.88 0v-5.477a5.859 5.859 0 004.408-5.669 5.855 5.855 0 00-5.848-5.848 5.84 5.84 0 00-4.61 2.256L54.785 11.56a5.855 5.855 0 00-5.77-6.805 5.855 5.855 0 00-5.768 6.805L17.034 23.047a5.84 5.84 0 00-4.62-2.268 5.855 5.855 0 00-5.848 5.849 5.858 5.858 0 004.445 5.676v33.67a5.858 5.858 0 00-4.445 5.676 5.855 5.855 0 005.849 5.849 5.843 5.843 0 004.7-2.374l6.824 2.939a1.436 1.436 0 001.891-.753 1.44 1.44 0 00-.752-1.891l-6.872-2.96a5.822 5.822 0 00-.215-2.571l3.903-1.918a1.44 1.44 0 10-1.27-2.584l-4.164 2.046a5.845 5.845 0 00-2.57-1.442V32.287a5.861 5.861 0 003.144-2.08l26.214 11.487a5.859 5.859 0 004.33 6.626v3.823l-1.117.548a1.44 1.44 0 001.117 2.649v26.388a5.859 5.859 0 00-3.137 2.033L34.42 79.444a1.44 1.44 0 10-1.139 2.644l9.977 4.297a5.855 5.855 0 005.759 6.86 5.855 5.855 0 005.85-5.848 5.85 5.85 0 00-.09-1.01l26.116-11.25a5.843 5.843 0 004.693 2.362 5.855 5.855 0 005.848-5.848 5.858 5.858 0 00-4.408-5.67zm-1.44-42.324a2.973 2.973 0 012.97 2.97 2.973 2.973 0 01-2.97 2.97 2.973 2.973 0 01-2.97-2.97 2.973 2.973 0 012.97-2.97zm-70.2 47.992a2.973 2.973 0 01-2.97 2.97 2.973 2.973 0 01-2.97-2.97 2.973 2.973 0 012.97-2.97 2.973 2.973 0 012.97 2.97zm-.226-43.89c-.007.014-.016.029-.022.045l-.013.033a2.972 2.972 0 01-2.709 1.76 2.973 2.973 0 01-2.97-2.97 2.973 2.973 0 012.97-2.97 2.973 2.973 0 012.97 2.97c0 .4-.081.782-.226 1.131zM49.017 7.633a2.973 2.973 0 012.97 2.97 2.973 2.973 0 01-2.97 2.97 2.973 2.973 0 01-2.97-2.97 2.973 2.973 0 012.97-2.97zm-4.61 31.425l-26.22-11.49a5.854 5.854 0 000-1.884l26.22-11.49a5.862 5.862 0 003.17 2.077v4.498a1.44 1.44 0 102.88 0v-4.498a5.861 5.861 0 003.17-2.077l26.19 11.476a5.857 5.857 0 000 1.913L53.627 39.06a5.848 5.848 0 00-3.788-2.198 1.431 1.431 0 00-1.644 0 5.848 5.848 0 00-3.788 2.197zm1.64 3.592a2.973 2.973 0 012.97-2.97 2.973 2.973 0 012.97 2.97 2.973 2.973 0 01-2.97 2.97 2.973 2.973 0 01-2.97-2.97zm2.97 47.716a2.973 2.973 0 01-2.97-2.97 2.973 2.973 0 012.97-2.97 2.973 2.973 0 012.97 2.97 2.973 2.973 0 01-2.97 2.97zM85.585 74.62a2.971 2.971 0 01-2.7-1.741 1.464 1.464 0 00-.053-.145c-.01-.024-.023-.045-.034-.068a2.947 2.947 0 01.2-2.468c.093-.1.174-.216.237-.345l.012-.027a2.963 2.963 0 012.338-1.145 2.973 2.973 0 012.97 2.97 2.973 2.973 0 01-2.97 2.97z" fill="#DFDFDF"/><path d="M43.22 55.887a1.44 1.44 0 00-1.926-.657l-5.168 2.54a1.44 1.44 0 001.27 2.583l5.167-2.539a1.44 1.44 0 00.657-1.927zm-10.334 5.078a1.44 1.44 0 00-1.927-.657l-5.168 2.54a1.44 1.44 0 001.27 2.583l5.167-2.539a1.44 1.44 0 00.657-1.927zm29.023-3.195l-5.167-2.54a1.44 1.44 0 00-1.27 2.584l5.167 2.54a1.44 1.44 0 001.27-2.584zm10.335 5.077l-5.168-2.539a1.44 1.44 0 00-1.27 2.584l5.168 2.54a1.44 1.44 0 001.27-2.584z" fill="#DFDFDF"/></svg>