<svg width="102" height="102" fill="none" xmlns="http://www.w3.org/2000/svg"><path d="M53.309 4.424h-4.617a1.499 1.499 0 100 2.998h4.617a1.499 1.499 0 000-2.998z" fill="#DFDFDF"/><path d="M79.61 0H22.39c-4.354 0-7.895 3.541-7.895 7.894v71.801c0 4.353 3.541 7.895 7.894 7.895h6.527a1.499 1.499 0 000-2.998H22.39a4.902 4.902 0 01-4.896-4.897v-4.328h27.714a48.983 48.983 0 012.504 5.544 15.94 15.94 0 001.99 3.68H39.308a1.499 1.499 0 100 2.999h13.19a17.15 17.15 0 002.227 1.578l-.84 11.221A1.5 1.5 0 0055.38 102h16.654a1.5 1.5 0 001.495-1.611l-.838-11.22a17.142 17.142 0 002.226-1.58h4.693c4.353 0 7.894-3.54 7.894-7.894V7.894c0-4.353-3.54-7.894-7.893-7.894zm-1.898 75.438c0 4.793-2.79 9.222-7.279 11.558a1.5 1.5 0 00-.803 1.441l.79 10.565H56.996l.79-10.564a1.5 1.5 0 00-.802-1.442c-3.018-1.57-5.316-4.109-6.47-7.15-1.877-4.938-4.364-9.348-7.393-13.108l-.475-.59c-.59-1.049-.197-2.036.38-2.62.564-.57 1.537-.962 2.572-.349.55.325.968.772 1.277 1.365a1.5 1.5 0 002.828-.691l.012-19.463c0-.656.283-1.288.774-1.735a2.322 2.322 0 011.805-.599c1.185.115 2.112 1.18 2.112 2.423v19.036a1.499 1.499 0 102.998 0v-5.988c0-1.25 1.149-2.346 2.459-2.346a2.348 2.348 0 012.345 2.345v5.989a1.499 1.499 0 102.998 0v-5.934c0-.019.003-.036.003-.054a2.348 2.348 0 012.345-2.346c1.16 0 2.144.85 2.318 1.991v2.811c0 .072.007.142.016.211v3.321a1.499 1.499 0 102.998 0v-3.788c.132-1.104 1.102-1.964 2.278-1.964h.254c1.265 0 2.294.996 2.294 2.22v15.455zM51.376 32.7c-3.28 0-5.95 2.67-5.95 5.95 0 1.553.6 2.967 1.577 4.027a5.308 5.308 0 00-.285 1.71v.947a8.146 8.146 0 01-3.492-6.683c0-4.495 3.656-8.15 8.15-8.15 4.495 0 8.15 3.655 8.15 8.15a8.11 8.11 0 01-2.133 5.486 5.49 5.49 0 00-.824-2.59 5.904 5.904 0 00.757-2.897c0-3.28-2.669-5.95-5.95-5.95zm2.953 5.95c0 .293-.045.576-.125.844a5.286 5.286 0 00-1.62-.423 5.36 5.36 0 00-3.753 1.07 2.924 2.924 0 01-.407-1.49 2.956 2.956 0 012.952-2.953 2.956 2.956 0 012.953 2.952zm30.178 41.044c0 2.7-2.196 4.897-4.896 4.897h-1.895c1.917-2.652 2.993-5.83 2.993-9.154v-.07h3.798v4.328zm0-7.325h-3.798V59.983c0-2.878-2.374-5.219-5.291-5.219h-.255c-.974 0-1.888.261-2.673.716a5.347 5.347 0 00-4.936-3.297 5.329 5.329 0 00-3.845 1.637 5.329 5.329 0 00-3.473-1.623c4.416-2.894 7.339-7.882 7.339-13.546 0-1.282-.15-2.559-.447-3.795a1.499 1.499 0 10-2.915.7 13.25 13.25 0 01.364 3.095c0 5.108-2.918 9.543-7.173 11.736V48.02c3.077-1.985 5.12-5.44 5.12-9.368 0-6.147-5.001-11.148-11.148-11.148-6.148 0-11.149 5.001-11.149 11.148 0 4.484 2.663 8.354 6.488 10.122l-.002 2.224c-4.984-1.888-8.538-6.708-8.538-12.346 0-7.279 5.922-13.2 13.2-13.2 2.595 0 5.105.75 7.26 2.172a1.5 1.5 0 001.65-2.502 16.13 16.13 0 00-8.91-2.668c-8.931 0-16.198 7.266-16.198 16.198 0 7.311 4.87 13.502 11.534 15.51l-.004 6.215c-1.96-.936-4.243-.542-5.813 1.045-1.714 1.733-2.022 4.289-.766 6.359.034.057.072.111.114.163l.544.675a40.961 40.961 0 012.68 3.752H17.494V11.577h67.014V72.37zm0-63.79H17.493v-.686c0-2.7 2.196-4.896 4.896-4.896h57.222c2.7 0 4.896 2.196 4.896 4.896v.686z" fill="#DFDFDF"/></svg>