<svg width="124" height="124" fill="none" xmlns="http://www.w3.org/2000/svg"><circle cx="62" cy="62" r="49" stroke="url(#paint0_linear)" stroke-width="2"/><circle cx="62" cy="62" r="61" stroke="url(#paint1_linear)" stroke-width="2"/><circle cx="116" cy="90" r="4" fill="#fff"/><path fill-rule="evenodd" clip-rule="evenodd" d="M72.045 60.555a3.062 3.062 0 010 2.89c-.232.434-.576.747-.894.996-.308.241-.708.508-1.16.81l-8.474 5.648c-.552.368-1.028.686-1.426.91-.398.222-.886.453-1.443.48a3.062 3.062 0 01-2.775-1.485c-.287-.479-.366-1.013-.4-1.467-.036-.456-.036-1.028-.035-1.692v-11.29c0-.664 0-1.236.034-1.692.035-.454.114-.988.4-1.467a3.062 3.062 0 012.776-1.485c.557.027 1.045.258 1.443.48.398.224.874.542 1.426.91l8.474 5.649c.452.301.852.568 1.16.81.318.248.662.56.894.995zm-2.511 1.818c.138-.108.19-.165.204-.18a.438.438 0 000-.386 1.515 1.515 0 00-.204-.18c-.22-.173-.535-.384-1.038-.72l-8.393-5.594c-.606-.404-.997-.664-1.297-.832a1.878 1.878 0 00-.308-.149.438.438 0 00-.36.193c-.008.025-.031.12-.048.34-.027.342-.028.812-.028 1.54v11.19c0 .728.001 1.198.028 1.54.017.22.04.315.047.34.081.12.216.192.36.193.025-.009.117-.041.309-.149.3-.168.691-.428 1.297-.832l8.393-5.595c.503-.335.818-.546 1.038-.719z" fill="#fff"/><path fill-rule="evenodd" clip-rule="evenodd" d="M62 43.188c-10.39 0-18.813 8.422-18.813 18.812S51.61 80.813 62 80.813c10.39 0 18.813-8.423 18.813-18.813 0-10.39-8.423-18.813-18.813-18.813zM45.812 62c0-8.94 7.248-16.188 16.188-16.188 8.94 0 16.188 7.248 16.188 16.188 0 8.94-7.248 16.188-16.188 16.188-8.94 0-16.188-7.248-16.188-16.188z" fill="#fff"/><defs><linearGradient id="paint0_linear" x1="100" y1="93.5" x2="24.5" y2="32.5" gradientUnits="userSpaceOnUse"><stop stop-color="#fff"/><stop offset="1" stop-color="#fff" stop-opacity="0"/></linearGradient><linearGradient id="paint1_linear" x1="17" y1="18.5" x2="23.5" y2="114" gradientUnits="userSpaceOnUse"><stop stop-color="#fff"/><stop offset="1" stop-color="#fff" stop-opacity="0"/></linearGradient></defs></svg>