<svg width="68" height="68" fill="none" xmlns="http://www.w3.org/2000/svg"><g clip-path="url(#clip0)" fill="#707078"><path d="M37.887 50.44h-2.032c-.747 0-1.354.607-1.354 1.354v6.124c0 .746.607 1.354 1.354 1.354h2.032c1.87 0 3.39-1.52 3.39-3.388v-2.057a3.393 3.393 0 00-3.39-3.387zm1.383 5.444c0 .761-.62 1.38-1.383 1.38h-1.379v-4.817h1.38c.762 0 1.382.62 1.382 1.38v2.057zm-8.184-5.444h-3.358a1.004 1.004 0 100 2.007h3.122v1.405h-3.122a1.004 1.004 0 100 2.007h3.122v1.405h-3.122a1.004 1.004 0 100 2.008h3.358c.976 0 1.771-.795 1.771-1.773v-5.287c0-.977-.795-1.772-1.771-1.772z"/><path d="M67.94 57.089l-1.69-5.932a1.004 1.004 0 10-1.931.55l1.192 4.184-11.99-6.679c.005-.146.004-7.617.004-7.617a1.004 1.004 0 10-2.008 0s.004 7.675-.011 7.801c-.04.03-4.922 2.756-4.922 2.756-1.177-5.49-5.86-9.693-11.582-10.136v-2.732l16.515-9.196v6.904a1.004 1.004 0 102.008 0v-8.816c-.015-.502-.279-.914-.79-1.235l-17.733-9.874V3.44l3.074 3.076a1 1 0 001.42 0 1.004 1.004 0 000-1.419L35.142.741A1.607 1.607 0 0034 .266c-.431 0-.836.167-1.14.47l-4.358 4.362a1.004 1.004 0 101.42 1.42l3.074-3.077v13.625l-6.9 3.841a1.004 1.004 0 00.977 1.754L34 18.805l16.827 9.37L34 37.545l-16.827-9.371 6.387-3.582a1.003 1.003 0 10-.981-1.751l-7.311 4.1c-.504.28-.792.732-.79 1.238v.006s-.002 20.885.002 21.027L2.49 55.89l1.19-4.182a1.004 1.004 0 10-1.931-.55L.06 57.096c-.115.412-.064.844.142 1.216.208.374.563.655.968.768l5.928 1.69a1.003 1.003 0 10.55-1.93l-4.185-1.194 11.876-6.614c.128.093 5.801 3.266 5.801 3.266a12.96 12.96 0 00-.012.559c0 7.101 5.774 12.878 12.871 12.878S46.87 61.957 46.87 54.856a13.1 13.1 0 00-.012-.559s5.677-3.173 5.804-3.266l11.875 6.615-4.184 1.194a1.004 1.004 0 10.551 1.93l5.929-1.691a1.622 1.622 0 001.107-1.99zm-51.183-7.531a2.653 2.653 0 01-.263-.161c-.014-.126-.01-19.309-.01-19.309l16.511 9.196v2.732c-5.72.444-10.404 4.646-11.581 10.136l-4.657-2.594zm17.242 16.169c-5.99 0-10.864-4.877-10.864-10.871 0-5.995 4.873-10.872 10.864-10.872 5.99 0 10.864 4.877 10.864 10.872 0 5.994-4.874 10.871-10.864 10.871z"/></g><defs><clipPath id="clip0"><path fill="#fff" d="M0 0h68v68H0z"/></clipPath></defs></svg>