<svg width="62" height="62" fill="none" xmlns="http://www.w3.org/2000/svg"><g clip-path="url(#clip0)" fill="#707078"><path d="M60.063 60.184h-1.908V45.195a.908.908 0 00-1.816 0v14.989H45.913v-8.388h5.213a.908.908 0 000-1.816h-5.213v-4.692h5.213a.908.908 0 100-1.816h-5.213v-4.688h5.213a.908.908 0 100-1.816h-5.213v-4.689h5.213a.908.908 0 000-1.816h-5.213v-5.361H56.34v16.166a.908.908 0 001.816 0V25.005c0-.948-.771-1.72-1.72-1.72h-1.734v-2.28a.908.908 0 00-1.816 0v2.28h-2.937v-3.783a.908.908 0 10-1.816 0v3.783h-2.218V10.766h.1c.785 0 1.423-.638 1.423-1.422v-3.78c0-.784-.638-1.422-1.423-1.422H19.896V2.235a.908.908 0 00-1.817 0v1.907h-2.936V.908a.908.908 0 10-1.817 0v3.234H9.948c-.783 0-1.42.638-1.42 1.422v3.78c0 .784.637 1.422 1.42 1.422h.104v25.357a6.375 6.375 0 00-1.285-.133c-4.008 0-7.268 3.739-7.268 8.335 0 3.324 1.706 6.198 4.166 7.536v8.323H1.937a.908.908 0 000 1.816h58.125a.908.908 0 100-1.816zM3.315 44.324c0-3.593 2.446-6.518 5.452-6.518a4.636 4.636 0 011.874.398c2.085.916 3.577 3.314 3.577 6.12 0 3.595-2.446 6.52-5.451 6.52-3.006 0-5.452-2.925-5.452-6.52zm4.166 15.86v-7.657c.418.085.847.133 1.286.133a6.44 6.44 0 001.285-.133v7.657h-2.57zm27.96-13.928H20.52v-2.705h14.92v2.705zM21.917 60.184V48.072h5.157v12.112h-5.157zm6.974 0V48.072h5.154v12.112h-5.154zm6.97 0V48.072h.008c.765 0 1.388-.624 1.388-1.392v-3.554c0-.767-.623-1.392-1.388-1.392H20.097c-.768 0-1.392.625-1.392 1.392v3.555c0 .767.624 1.391 1.392 1.391h.003v12.112h-8.232V51.86c2.46-1.337 4.166-4.212 4.166-7.536s-1.706-6.199-4.166-7.536V10.766h14.65a.908.908 0 000-1.816H10.345V5.958H45.62V8.95H30.54a.908.908 0 000 1.816h13.558v49.418h-8.236z"/><path d="M21.35 14.663h-3.878c-.7 0-1.268.569-1.268 1.268v6.331c0 .7.569 1.268 1.268 1.268h3.879a1.27 1.27 0 001.267-1.268v-6.331c0-.7-.569-1.268-1.267-1.268zm-.548 7.05H18.02V16.48h2.782v5.233zm9.381-7.05h-3.879c-.699 0-1.267.569-1.267 1.268v6.331c0 .7.568 1.268 1.267 1.268h3.88a1.27 1.27 0 001.267-1.268v-6.331c0-.7-.569-1.268-1.268-1.268zm-.549 7.05h-2.781V16.48h2.781v5.233zm-8.284 5.451h-3.878c-.7 0-1.268.569-1.268 1.268v6.331c0 .7.569 1.268 1.268 1.268h3.879a1.27 1.27 0 001.267-1.268v-6.331c0-.7-.569-1.268-1.267-1.268zm-.548 7.05H18.02v-5.233h2.782v5.233zm9.381-7.05h-3.879c-.699 0-1.267.569-1.267 1.268v6.331c0 .7.568 1.268 1.267 1.268h3.88a1.27 1.27 0 001.267-1.268v-6.331c0-.7-.569-1.268-1.268-1.268zm-.549 7.05h-2.781v-5.233h2.781v5.233zm9.382-19.551h-3.88a1.27 1.27 0 00-1.267 1.268v6.331c0 .7.569 1.268 1.267 1.268h3.88c.699 0 1.267-.569 1.267-1.268v-6.331c0-.7-.568-1.268-1.267-1.268zm-.55 7.05h-2.78V16.48h2.78v5.233zm.55 5.451h-3.88a1.27 1.27 0 00-1.267 1.268v6.331c0 .7.569 1.268 1.267 1.268h3.88c.699 0 1.267-.569 1.267-1.268v-6.331c0-.7-.568-1.268-1.267-1.268zm-.55 7.05h-2.78v-5.233h2.78v5.233z"/></g><defs><clipPath id="clip0"><path fill="#fff" d="M0 0h62v62H0z"/></clipPath></defs></svg>