<svg width="67" height="67" fill="none" xmlns="http://www.w3.org/2000/svg"><path d="M66.03 35.496a4.079 4.079 0 00-2.363-1.375l-1.7-5.8a3.562 3.562 0 00-3.399-2.546H17.436a.981.981 0 000 1.963h41.132c.697 0 1.32.467 1.516 1.136l1.801 6.146-3.182 9.966a3.469 3.469 0 00-3.058-1.837H35.973c-.974 0-1.854.404-2.484 1.052a3.456 3.456 0 00-2.485-1.052H11.355a3.469 3.469 0 00-3.059 1.838L5.114 35.02l1.802-6.146a1.589 1.589 0 011.516-1.136h4.438a.982.982 0 000-1.963H8.432a3.562 3.562 0 00-3.4 2.547l-1.7 5.8A4.079 4.079 0 00.97 35.496a4.082 4.082 0 00-.914 3.315l2.261 13.577a7.708 7.708 0 006.648 6.404v5.132c0 .543.44.982.981.982h3.693a.981.981 0 00.9-.592l2.364-5.46h21.552a.981.981 0 100-1.963H9.946a5.754 5.754 0 01-5.693-4.825L1.993 38.49a2.123 2.123 0 011.414-2.364l4.53 14.186a.98.98 0 00.934.682H58.13a.981.981 0 00.935-.682l4.529-14.186a2.123 2.123 0 011.415 2.364l-2.261 13.577a5.754 5.754 0 01-5.693 4.825H43.059a.981.981 0 100 1.963h6.37l2.363 5.46c.156.36.51.592.901.592h3.693c.542 0 .982-.44.982-.982v-5.077a7.709 7.709 0 007.315-6.459l2.261-13.577a4.082 4.082 0 00-.914-3.316zM10.928 58.854h3.836l-1.77 4.09h-2.066v-4.09zm21.579-9.823H9.853v-2.416c0-.83.674-1.503 1.502-1.503h19.65c.828 0 1.502.674 1.502 1.502v2.417zm24.64 0H34.47v-2.416c0-.83.674-1.503 1.502-1.503h19.673c.828 0 1.502.674 1.502 1.502v2.417zm-1.742 13.913h-2.067l-1.77-4.09h3.837v4.09zm-35.46-40.438h27.087c.542 0 .981-.44.981-.981v-4.927a.981.981 0 10-1.962 0v3.945H20.925V4.056H46.05v7.981a.981.981 0 101.962 0V3.075a.981.981 0 00-.981-.982H19.945a.982.982 0 00-.981.982v18.45c0 .542.44.981.981.981z" fill="#707078"/><path d="M23.874 6.023a.982.982 0 00-.982.982v10.59c0 .542.44.98.982.98h19.23a.98.98 0 00.98-.98V7.004a.981.981 0 00-.98-.982h-19.23zm18.248 10.59H24.855v-1.085l3.302-3.65 3.177 2.582a.981.981 0 001.154.061l2.545-1.656 7.089 2.908v.84zm0-2.961l-6.82-2.798a.982.982 0 00-.908.085l-2.377 1.547-3.345-2.718a.982.982 0 00-1.347.103l-2.47 2.73V7.987h17.267v5.666zM17.45 33.13a.98.98 0 100-1.96.98.98 0 000 1.96zm10.603 0a.98.98 0 100-1.96.98.98 0 000 1.96zm-5.303 6.605a.98.98 0 100-1.96.98.98 0 000 1.96zm10.605 0a.98.98 0 100-1.959.98.98 0 000 1.96zm5.569-6.605a.98.98 0 100-1.96.98.98 0 000 1.96zm5.292 6.606a.98.98 0 100-1.96.98.98 0 000 1.96zm5.314-6.606a.98.98 0 100-1.959.98.98 0 000 1.96z" fill="#707078"/></svg>