<svg width="61" height="62" fill="none" xmlns="http://www.w3.org/2000/svg"><path d="M61 30.974c0-6.651-6.068-12.497-15.092-15.608-.527-1.502-1.055-2.95-1.741-4.29C40.843 4.05 35.83.027 30.5.027c-9.815 0-17.836 13.891-17.836 30.947 0 4.773.634 9.385 1.795 13.569-7.652-2.95-12.718-7.938-12.718-13.57 0-4.987 3.958-9.653 10.87-12.764.423-.215.634-.697.423-1.18-.211-.43-.739-.644-1.161-.43C4.38 20.033 0 25.29 0 30.975c0 6.65 6.068 12.496 15.092 15.66.739 2.2 1.583 4.237 2.638 6.06 3.377 5.954 7.915 9.28 12.77 9.28 5.646 0 10.818-4.452 14.195-12.175.21-.43 0-.966-.422-1.18-.423-.215-.95 0-1.161.429-3.114 7.08-7.705 11.156-12.612 11.156-4.221 0-8.18-2.95-11.24-8.367-.791-1.395-1.477-2.896-2.11-4.559 4.01 1.18 8.548 1.824 13.35 1.824 16.78 0 30.5-8.153 30.5-18.128zM16.464 45.24c-1.372-4.29-2.058-9.171-2.058-14.267 0-16.09 7.229-29.23 16.094-29.23 4.644 0 9.076 3.701 12.137 10.083a35.12 35.12 0 011.16 2.843c-4.01-1.18-8.548-1.824-13.297-1.824-4.169 0-8.232.483-11.978 1.448-.475.108-.74.59-.634 1.073.106.483.58.751 1.056.644 3.64-.912 7.546-1.395 11.556-1.395 5.066 0 9.868.751 14.036 2.092.37 1.234.74 2.52 1.003 3.808.739 3.325 1.055 6.865 1.055 10.459 0 4.076-.475 7.99-1.372 11.638-.105.483.159.965.633 1.072.475.108.95-.16 1.056-.643.95-3.808 1.372-7.884 1.372-12.067 0-3.755-.37-7.348-1.108-10.834a51.743 51.743 0 00-.686-2.736c7.651 2.95 12.664 7.938 12.664 13.57.106 9.01-12.823 16.358-28.653 16.358-5.066 0-9.868-.751-14.036-2.092z" fill="#707078"/><path d="M21.794 32.529c1.16-.43 1.74-1.234 1.74-2.253 0-1.287-1.107-2.36-3.112-2.36-1.214 0-2.322.375-2.903.697l.475 1.61c.37-.215 1.214-.59 1.953-.59.95 0 1.372.428 1.372 1.018 0 .805-.95 1.073-1.689 1.127h-.844v1.609h.897c.95 0 1.9.429 1.9 1.394 0 .697-.581 1.287-1.742 1.287-.897 0-1.794-.375-2.163-.59l-.475 1.663c.527.375 1.583.697 2.796.697 2.375 0 3.852-1.233 3.852-2.95 0-1.287-.95-2.145-2.057-2.36zm7.598-1.341c-.897 0-1.53.268-2.005.75h-.053c.264-1.126 1.108-2.145 3.06-2.306.37-.053.634-.053.845-.053v-1.716h-.897c-1.478.053-2.691.536-3.641 1.394-1.003.965-1.689 2.467-1.689 4.237 0 2.306 1.214 4.183 3.747 4.183 2.058 0 3.483-1.555 3.483-3.486.052-1.877-1.267-3.003-2.85-3.003zm-.58 4.934c-1.003 0-1.478-.912-1.53-1.93 0-.269.052-.43.105-.537a1.417 1.417 0 011.319-.858c.95 0 1.425.75 1.425 1.662-.053.966-.528 1.663-1.32 1.663zm7.968-8.259c-2.428 0-3.589 2.198-3.589 4.987 0 2.736 1.108 4.935 3.536 4.935 2.427 0 3.588-2.038 3.588-4.988-.053-2.628-1.055-4.934-3.535-4.934zm-.053 8.205c-.844 0-1.372-1.072-1.372-3.218 0-2.199.528-3.271 1.372-3.271.897 0 1.32 1.126 1.32 3.218 0 2.199-.423 3.271-1.32 3.271zm5.698-13.837c-1.741 0-3.166 1.448-3.166 3.218s1.425 3.218 3.166 3.218c1.742 0 3.167-1.448 3.167-3.218.052-1.77-1.425-3.218-3.167-3.218zm0 4.72a1.43 1.43 0 01-1.424-1.448 1.43 1.43 0 011.424-1.448 1.43 1.43 0 011.425 1.448c.053.804-.633 1.448-1.425 1.448z" fill="#707078"/></svg>