<svg width="76" height="76" fill="none" xmlns="http://www.w3.org/2000/svg"><path d="M56.5 55.886l-.426.168a.889.889 0 00-.51 1.159.891.891 0 001.165.497l.425-.168a.89.89 0 10-.654-1.656zm-11.044 6.278l8.338-3.294a.89.89 0 10-.655-1.656l-8.337 3.293a.89.89 0 10.655 1.657zM41.76 6.575a24.802 24.802 0 019.753 3.382l-3.651 2.116a.891.891 0 00.893 1.541l5.49-3.182a.89.89 0 00.324-1.218l-3.19-5.49a.89.89 0 10-1.54.895l2.019 3.473a26.61 26.61 0 00-9.88-3.285.89.89 0 10-.217 1.768zm-6.51.074a.886.886 0 00.13-.01c.963-.14 1.935-.22 2.908-.24a.89.89 0 10-.037-1.782 25.614 25.614 0 00-3.129.26.89.89 0 00.127 1.772h.001zm-13.048 6.263a.89.89 0 00.604-.237 23.947 23.947 0 015.125-3.624 23.246 23.246 0 012.92-1.283.89.89 0 10-.602-1.676 24.98 24.98 0 00-3.145 1.38 25.74 25.74 0 00-5.506 3.894.891.891 0 00.604 1.546zM34.24 69.425a24.802 24.802 0 01-9.753-3.382l3.651-2.116a.89.89 0 00-.893-1.541l-5.49 3.182a.892.892 0 00-.324 1.218l3.19 5.49a.89.89 0 001.54-.895l-2.019-3.473a26.612 26.612 0 009.88 3.285.891.891 0 00.218-1.768zm6.381-.065c-.964.14-1.935.22-2.909.242a.89.89 0 10.018 1.78h.02a25.616 25.616 0 003.128-.258.89.89 0 00-.256-1.763zm12.573-6.035a23.953 23.953 0 01-5.125 3.624c-.943.494-1.918.923-2.92 1.283a.89.89 0 10.602 1.676 25.054 25.054 0 003.145-1.38 25.738 25.738 0 005.507-3.894.89.89 0 10-1.208-1.309h-.001z" fill="#707078"/><path d="M60.71 27v-1.798a3.108 3.108 0 002.277-3.025 3.157 3.157 0 00-5.782-1.737L41.14 15.245c.001-.036.003-.07.003-.106a3.143 3.143 0 10-6.286 0c0 .036.004.07.005.106l-15.988 5.17a3.14 3.14 0 00-2.688-1.522 3.173 3.173 0 00-3.174 3.142 3.108 3.108 0 002.276 3.027V27C3.294 29.056.742 31.97.742 34.076c0 2.274 2.856 4.211 8.486 5.757 1.784.49 3.824.93 6.061 1.315v8.118a3.108 3.108 0 00-2.276 3.027 3.156 3.156 0 005.58 2.008l16.269 6.274c-.003.054-.006.107-.006.161a3.143 3.143 0 006.286 0c0-.055-.006-.108-.008-.163l16.158-6.271a3.138 3.138 0 002.52 1.273 3.173 3.173 0 003.174-3.142 3.108 3.108 0 00-2.275-3.027v-8.255a70.478 70.478 0 004.465-.908c6.69-1.605 10.082-3.68 10.082-6.167 0-2.105-2.552-5.02-14.547-7.076zm-3.324-2.909c.388.502.801.886 1.544 1.081v10.811l-8.164 3.165V26.663l6.62-2.572zm1.544 13.803v1.744c-2.06.318-4.264.588-6.578.806l6.578-2.55zM38 13.779a1.361 1.361 0 110 2.722 1.361 1.361 0 010-2.722zm-2.575 3.156a3.135 3.135 0 005.15 0l4.721 1.527L38.7 20.76l-6.885-2.656 3.611-1.168zm1.531 24.08l-7.402-4.506a.889.889 0 00-1.35.76v3.029l-1.188-.459V27.36l7.827 3.027c-.006.077.001.154.001.233a3.159 3.159 0 002.265 3.012v7.502a.89.89 0 00-.153-.12zm.153 1.401v1.32l-1.296-.504 1.143-.696a.889.889 0 00.153-.12zm-2.326-.64l-4.799 2.92v-5.842l4.8 2.921zm1.855-11.156a1.36 1.36 0 112.72 0 1.36 1.36 0 01-2.719 0zM38 27.478a3.136 3.136 0 00-2.498 1.244l-6.744-2.618 9.91-3.448 8.752 3.375-6.921 2.69A3.136 3.136 0 0038 27.478zm-23.174-5.443a1.362 1.362 0 112.723 0 1.362 1.362 0 01-2.723 0zm2.244 15.859l6.573 2.548c-2.315-.219-4.519-.49-6.573-.807v-1.741zm-7.37.222c-5.29-1.453-7.176-3.04-7.176-4.04 0-1.531 3.96-3.718 12.766-5.267V39.34c-2.06-.361-3.938-.772-5.59-1.225zm6.487 15.537a1.361 1.361 0 11-.002-2.723 1.361 1.361 0 01.002 2.723zm9.047 1.318l-5.955-2.308c.009-.123.01-.247.006-.371a3.085 3.085 0 00-2.215-2.996v-7.86c2.533.384 5.28.697 8.164.933V54.97zm0-15.824l-8.164-3.164V25.032a3.045 3.045 0 001.453-.966l6.711 2.603v12.478zm-5.933-16.712c.013-.096.02-.193.023-.293l9.797-3.168 6.975 2.69-9.9 3.446-6.895-2.675zm16.131 36.459l-8.416-3.236V42.502a145 145 0 001.187.077v3.702a.89.89 0 001.35.76l4.342-2.642 3.214 1.247v12.078a3.217 3.217 0 00-1.677 1.17zM38 62.097a1.36 1.36 0 110-2.721 1.36 1.36 0 010 2.72zm10.984-6.46l-8.418 3.256a3.218 3.218 0 00-1.675-1.17V45.647l7.78-3.003c.78-.041 1.55-.088 2.313-.14v13.133zm0-15.798l-2.693 1.04a161.56 161.56 0 01-4.443.163.89.89 0 00-.366 1.692l-2.591 1.001V33.632a3.147 3.147 0 002.251-3.012c0-.079.021-.156.015-.233l7.827-3.032v12.484zM41.27 21.75l6.836-2.378 8.567 2.77-.002.036c0 .085.007.17.013.254l-6.798 2.642-8.616-3.323zm15.433 30.683c0 .066.017.13.021.196l-5.957 2.317V42.37a119.15 119.15 0 008.164-.93v7.996a3.097 3.097 0 00-2.228 2.996zm4.472 0a1.362 1.362 0 11-2.724-.001 1.362 1.362 0 012.724.002v-.001zm-1.361-28.895a1.36 1.36 0 110-2.723 1.36 1.36 0 010 2.723zm11.614 12.649c-1.538.85-3.781 1.632-6.667 2.325a68.296 68.296 0 01-4.05.832V28.808c10.043 1.761 12.767 4.12 12.767 5.268 0 .63-.728 1.38-2.05 2.11z" fill="#707078"/></svg>