<svg width="54" height="54" fill="none" xmlns="http://www.w3.org/2000/svg"><path d="M4.5 23.625a3.375 3.375 0 116.75 0V40.5a6.75 6.75 0 01-6.75 6.75V23.625z" fill="#A0AECA"/><path fill-rule="evenodd" clip-rule="evenodd" d="M31.466 7.313c.46-.01.902.169 1.227.494l.9.899.086.087c.349.347.72.716.98 1.164.343.587.528 1.254.536 1.933.007.519-.121 1.027-.241 1.504l-.03.12-1.864 7.452c-.164.659-.264 1.063-.317 1.368a1.71 1.71 0 00-.033.296.562.562 0 00.288.37c.021.005.104.024.295.039.309.022.726.023 1.405.023h7.94a6.3 6.3 0 015.72 8.94l-3.611 7.823-.104.226c-.772 1.674-1.305 2.83-2.102 3.743a8.438 8.438 0 01-3.99 2.554c-1.165.34-2.437.34-4.28.34h-6.206c-1.522 0-2.75 0-3.748-.069-1.027-.07-1.936-.218-2.796-.574a8.437 8.437 0 01-4.566-4.566c-.356-.86-.504-1.769-.574-2.796-.069-.999-.069-2.226-.069-3.748v-7.502c0-1.156 0-1.955.147-2.732a8.439 8.439 0 011.138-2.912c.42-.67.962-1.258 1.746-2.106l.102-.111L30.26 7.854a1.687 1.687 0 011.206-.542zm.081 4.124L21.925 21.86c-.924 1.001-1.235 1.348-1.467 1.718a5.063 5.063 0 00-.683 1.747c-.08.43-.087.895-.087 2.258v7.291c0 1.596 0 2.708.06 3.578.058.856.167 1.354.325 1.734a5.062 5.062 0 002.74 2.74c.38.158.878.267 1.734.325.87.06 1.982.06 3.578.06h5.897c2.189 0 2.94-.016 3.58-.203a5.063 5.063 0 002.395-1.532c.439-.503.768-1.179 1.686-3.166l3.61-7.823a2.925 2.925 0 00-2.655-4.15h-7.997c-.605 0-1.148 0-1.597-.034-.47-.034-.998-.114-1.514-.365a3.938 3.938 0 01-2.125-2.722c-.119-.561-.068-1.093.012-1.558.077-.443.209-.97.356-1.557l1.877-7.507c.078-.316.123-.495.15-.632a.887.887 0 00.02-.131.563.563 0 00-.075-.274 1.106 1.106 0 00-.085-.102 5.19 5.19 0 00-.113-.12zm.2.223s-.002 0-.002-.002z" fill="#0D0B4E"/></svg>