<svg width="54" height="54" fill="none" xmlns="http://www.w3.org/2000/svg"><path fill-rule="evenodd" clip-rule="evenodd" d="M14.565 7.313h24.87c1.522 0 2.75 0 3.748.068 1.027.07 1.936.217 2.796.574a8.437 8.437 0 014.566 4.566c.356.86.504 1.769.574 2.796.069.999.069 2.226.069 3.748v15.87c0 1.522 0 2.75-.069 3.748-.07 1.027-.218 1.936-.574 2.796a8.437 8.437 0 01-4.566 4.566c-.86.356-1.769.504-2.796.574-.999.069-2.226.069-3.748.069h-24.87c-1.522 0-2.75 0-3.748-.069-1.027-.07-1.936-.218-2.796-.574a8.437 8.437 0 01-4.566-4.566c-.357-.86-.504-1.769-.574-2.796-.069-.999-.069-2.226-.068-3.748v-15.87c0-1.522 0-2.75.068-3.748.07-1.027.217-1.936.574-2.796A8.438 8.438 0 018.02 7.955c.86-.357 1.769-.504 2.796-.574.999-.069 2.226-.069 3.748-.069zm-3.518 3.435c-.856.058-1.354.167-1.734.325a5.062 5.062 0 00-2.74 2.74c-.158.38-.267.878-.325 1.734-.06.87-.06 1.982-.06 3.578v15.75c0 1.596 0 2.708.06 3.578.058.856.167 1.354.325 1.734a5.062 5.062 0 002.74 2.74c.38.158.878.267 1.734.325.87.06 1.982.06 3.578.06h24.75c1.596 0 2.708 0 3.578-.06.856-.058 1.354-.167 1.734-.325a5.062 5.062 0 002.74-2.74c.158-.38.267-.878.325-1.734.06-.87.06-1.982.06-3.578v-15.75c0-1.596 0-2.708-.06-3.578-.058-.856-.167-1.354-.325-1.734a5.062 5.062 0 00-2.74-2.74c-.38-.158-.878-.267-1.734-.325-.87-.06-1.982-.06-3.578-.06h-24.75c-1.596 0-2.708 0-3.578.06z" fill="#0D0B4E"/><path fill-rule="evenodd" clip-rule="evenodd" d="M9.969 19.152a1.687 1.687 0 012.38-.183l9.16 7.852c2.184 1.872 2.955 2.498 3.735 2.787a5.063 5.063 0 003.512 0c.78-.289 1.551-.915 3.735-2.787l9.16-7.852a1.687 1.687 0 112.197 2.562l-9.16 7.852-.254.218c-1.829 1.569-3.085 2.646-4.507 3.172a8.437 8.437 0 01-5.854 0c-1.422-.526-2.678-1.603-4.506-3.172l-.254-.218-9.161-7.852a1.687 1.687 0 01-.183-2.38z" fill="#A0AECA"/></svg>