<svg width="53" height="53" fill="none" xmlns="http://www.w3.org/2000/svg"><path fill-rule="evenodd" clip-rule="evenodd" d="M35.862 22.642a8.282 8.282 0 015.5.27c1.316.537 2.463 1.558 4.132 3.043l.23.204 3.96 3.52a1.656 1.656 0 11-2.2 2.476l-3.96-3.52c-1.991-1.77-2.693-2.362-3.415-2.657a4.969 4.969 0 00-3.3-.162c-.747.223-1.503.745-3.658 2.311l-5.677 4.13a1.656 1.656 0 01-1.948-2.68l5.677-4.129.249-.18c1.806-1.316 3.048-2.22 4.41-2.626z" fill="#0D0B4E"/><path fill-rule="evenodd" clip-rule="evenodd" d="M16.753 25.735c2-.76 4.215-.715 6.183.123.818.349 1.527.862 2.264 1.507.716.626 1.538 1.448 2.556 2.466l6.54 6.54a1.656 1.656 0 01-2.343 2.342l-6.498-6.499c-1.068-1.068-1.813-1.811-2.435-2.355-.61-.534-1.018-.798-1.382-.953a4.968 4.968 0 00-3.71-.074c-.37.14-.787.387-1.419.896-.643.52-1.417 1.232-2.527 2.257l-7.338 6.774a1.656 1.656 0 01-2.247-2.434l7.38-6.813c1.059-.977 1.913-1.766 2.654-2.363.762-.614 1.491-1.099 2.322-1.414z" fill="#A0AECA"/><path fill-rule="evenodd" clip-rule="evenodd" d="M14.354 17.115a1.656 1.656 0 100 3.312 1.656 1.656 0 000-3.312zM9.386 18.77a4.969 4.969 0 119.937 0 4.969 4.969 0 01-9.937 0z" fill="#0D0B4E"/><path fill-rule="evenodd" clip-rule="evenodd" d="M14.296 7.177h24.409c1.494 0 2.698 0 3.679.067 1.008.069 1.9.214 2.744.563a8.281 8.281 0 014.481 4.482c.35.844.495 1.736.564 2.744.067.98.067 2.185.067 3.679v15.576c0 1.494 0 2.698-.067 3.679-.069 1.008-.214 1.9-.564 2.744a8.281 8.281 0 01-4.481 4.482c-.844.35-1.736.494-2.744.563-.98.067-2.185.067-3.679.067h-24.41c-1.493 0-2.698 0-3.678-.067-1.008-.069-1.9-.214-2.744-.563A8.281 8.281 0 013.39 40.71c-.35-.844-.495-1.736-.563-2.744-.067-.98-.067-2.185-.067-3.679V18.712c0-1.494 0-2.698.067-3.679.068-1.008.213-1.9.563-2.744a8.281 8.281 0 014.482-4.482c.844-.35 1.736-.494 2.744-.563.98-.067 2.185-.067 3.679-.067zm-3.454 3.372c-.84.057-1.328.164-1.701.319a4.969 4.969 0 00-2.69 2.689c-.154.373-.261.862-.319 1.702-.058.854-.059 1.946-.059 3.512v15.458c0 1.566.001 2.658.06 3.512.057.84.164 1.329.318 1.702a4.969 4.969 0 002.69 2.69c.373.154.862.26 1.701.318.855.059 1.946.06 3.512.06h24.292c1.566 0 2.658-.002 3.512-.06.84-.057 1.329-.164 1.702-.319a4.969 4.969 0 002.69-2.689c.154-.373.26-.862.318-1.702.058-.854.06-1.946.06-3.512V18.771c0-1.566-.002-2.658-.06-3.512-.057-.84-.164-1.329-.319-1.702a4.969 4.969 0 00-2.689-2.69c-.373-.154-.862-.261-1.702-.318-.854-.058-1.946-.06-3.512-.06H14.355c-1.567 0-2.658.002-3.513.06z" fill="#0D0B4E"/></svg>