<svg width="58" height="58" fill="none" xmlns="http://www.w3.org/2000/svg"><path fill-rule="evenodd" clip-rule="evenodd" d="M36.854 31.213v-4.426c-.001-.5-.002-1.035.127-1.55a4.23 4.23 0 01.97-1.814c.357-.393.803-.688 1.22-.966l.104-.069 4.891-3.26c.763-.509 1.42-.947 1.97-1.256.55-.308 1.224-.627 1.993-.664a4.229 4.229 0 013.832 2.051c.396.66.505 1.398.553 2.026.048.63.048 1.42.048 2.336V34.38c0 .916 0 1.706-.048 2.335-.048.628-.157 1.366-.553 2.026a4.23 4.23 0 01-3.832 2.051c-.77-.037-1.444-.356-1.993-.664-.55-.309-1.208-.747-1.97-1.255l-4.89-3.26-.105-.07c-.417-.277-.863-.573-1.22-.966a4.23 4.23 0 01-.97-1.814c-.13-.514-.128-1.049-.127-1.55zm3.643.669zm0-5.764c-.001.009-.007.046-.011.134-.007.142-.007.33-.007.66v4.176c0 .331 0 .518.007.66.004.088.01.124.011.134a.607.607 0 00.138.258c.007.007.035.032.106.084.114.084.27.188.545.372l4.833 3.222c.837.558 1.377.917 1.791 1.15.266.148.392.193.426.204a.7.7 0 01-.032 0c.026 0 .042.004.042.003l-.01-.003a.6.6 0 00.498-.266l-.003.01.02-.038a.627.627 0 01-.017.028c.01-.035.042-.165.066-.468.036-.474.037-1.123.037-2.128V23.69c0-1.005-.001-1.654-.037-2.127a2.586 2.586 0 00-.066-.468.63.63 0 01.017.027l-.02-.037.003.01a.604.604 0 00-.498-.267l.01-.003s-.015.003-.042.004h.032c-.034.01-.16.055-.426.204-.414.233-.954.591-1.79 1.15l-4.834 3.221a15.84 15.84 0 00-.545.372 1.156 1.156 0 00-.106.084.6.6 0 00-.138.258z" fill="#A0AECA"/><path fill-rule="evenodd" clip-rule="evenodd" d="M18.06 12.688h9.796c1.634 0 2.953 0 4.026.073 1.103.075 2.079.234 3.003.616a9.063 9.063 0 014.904 4.905c.383.924.542 1.9.617 3.003.073 1.073.073 2.391.073 4.026v7.378c0 1.635 0 2.953-.073 4.026-.075 1.104-.234 2.08-.617 3.003a9.063 9.063 0 01-4.904 4.905c-.924.382-1.9.541-3.003.616-1.073.074-2.392.074-4.026.074h-9.795c-1.635 0-2.953 0-4.026-.074-1.104-.075-2.08-.234-3.003-.616a9.063 9.063 0 01-4.905-4.905c-.382-.924-.541-1.9-.616-3.003-.074-1.073-.074-2.391-.074-4.026v-7.378c0-1.635 0-2.953.074-4.026.075-1.104.234-2.08.616-3.003a9.063 9.063 0 014.905-4.905c.924-.382 1.9-.541 3.003-.616 1.073-.073 2.391-.073 4.026-.073zm-3.778 3.69c-.92.062-1.454.18-1.863.348a5.437 5.437 0 00-2.943 2.943c-.169.409-.286.944-.349 1.863-.064.935-.065 2.13-.065 3.843v7.25c0 1.714.001 2.908.065 3.843.063.92.18 1.454.35 1.863a5.437 5.437 0 002.942 2.943c.409.169.944.286 1.862.349.936.064 2.13.065 3.844.065h9.667c1.713 0 2.908-.002 3.843-.065.919-.063 1.454-.18 1.863-.35a5.438 5.438 0 002.942-2.942c.17-.409.287-.944.35-1.863.063-.935.064-2.13.064-3.843v-7.25c0-1.714 0-2.908-.065-3.843-.062-.92-.18-1.454-.349-1.863a5.438 5.438 0 00-2.942-2.943c-.409-.169-.944-.286-1.863-.349-.935-.063-2.13-.064-3.843-.064h-9.667c-1.714 0-2.908 0-3.844.064z" fill="#0D0B4E"/></svg>