<svg width="53" height="53" fill="none" xmlns="http://www.w3.org/2000/svg"><path fill-rule="evenodd" clip-rule="evenodd" d="M20.831 7.495c1.443-5.943 9.895-5.943 11.338 0a2.521 2.521 0 003.761 1.558c5.223-3.182 11.2 2.794 8.017 8.017a2.521 2.521 0 001.558 3.761c5.943 1.443 5.943 9.895 0 11.338a2.521 2.521 0 00-1.558 3.761c3.182 5.223-2.794 11.2-8.017 8.017a2.521 2.521 0 00-3.761 1.558c-1.443 5.943-9.895 5.943-11.338 0a2.521 2.521 0 00-3.761-1.558c-5.223 3.182-11.2-2.794-8.017-8.017a2.521 2.521 0 00-1.558-3.761c-5.943-1.443-5.943-9.895 0-11.338a2.521 2.521 0 001.558-3.761c-3.182-5.223 2.794-11.2 8.017-8.017a2.521 2.521 0 003.761-1.558zm8.119.781c-.624-2.568-4.276-2.568-4.9 0-.932 3.84-5.33 5.661-8.704 3.606-2.257-1.376-4.84 1.207-3.464 3.464 2.055 3.374.233 7.772-3.606 8.704-2.568.624-2.568 4.276 0 4.9 3.84.932 5.661 5.33 3.606 8.704-1.375 2.257 1.207 4.84 3.464 3.464 3.374-2.055 7.772-.233 8.704 3.606.624 2.568 4.276 2.568 4.9 0 .932-3.84 5.33-5.661 8.704-3.605 2.257 1.375 4.84-1.208 3.464-3.465-2.055-3.374-.233-7.772 3.606-8.704 2.568-.624 2.568-4.276 0-4.9-3.84-.932-5.66-5.33-3.605-8.704 1.375-2.257-1.208-4.84-3.465-3.464-3.374 2.055-7.772.233-8.704-3.606z" fill="#0D0B4E"/><path fill-rule="evenodd" clip-rule="evenodd" d="M36.526 18.726a1.656 1.656 0 01-.043 2.341L25.027 32.11a1.656 1.656 0 01-2.302-.003l-6.211-6.023a1.656 1.656 0 012.306-2.378l5.061 4.908 10.303-9.93a1.656 1.656 0 012.342.043z" fill="#A0AECA"/></svg>