<svg width="52" height="52" fill="none" xmlns="http://www.w3.org/2000/svg"><path fill-rule="evenodd" clip-rule="evenodd" d="M31.393 2.864c-.788-.156-1.601-.156-2.777-.156H18.359c-1.465 0-2.648 0-3.61.066-.989.067-1.863.21-2.692.553A8.125 8.125 0 007.66 7.724c-.343.828-.485 1.703-.553 2.692-.065.962-.065 2.144-.065 3.61v23.948c0 1.466 0 2.648.065 3.61.068.989.21 1.864.553 2.692a8.125 8.125 0 004.397 4.397c.829.343 1.703.485 2.692.553.962.066 2.144.066 3.61.066H33.64c1.465 0 2.647 0 3.61-.066.989-.068 1.863-.21 2.692-.553a8.125 8.125 0 004.397-4.397c.343-.828.485-1.703.553-2.692.065-.962.065-2.144.065-3.61V19.051c0-1.176 0-1.99-.156-2.777a8.126 8.126 0 00-1.213-2.929c-.446-.668-1.021-1.243-1.853-2.074l-5.34-5.34c-.832-.832-1.407-1.407-2.074-1.853a8.125 8.125 0 00-2.93-1.214zM28.46 5.958c1.389 0 1.863.008 2.298.094l.116.025v9.09c0 .897.727 1.625 1.625 1.625h9.09l.025.116c.086.434.093.909.093 2.297v18.712c0 1.536 0 2.607-.058 3.445-.056.824-.161 1.304-.313 1.67a4.875 4.875 0 01-2.638 2.639c-.366.151-.846.256-1.67.313-.838.057-1.91.058-3.446.058H18.417c-1.537 0-2.608-.001-3.446-.058-.824-.057-1.304-.162-1.67-.313a4.875 4.875 0 01-2.638-2.639c-.152-.366-.257-.846-.313-1.67-.057-.838-.058-1.909-.058-3.445V14.083c0-1.536 0-2.607.058-3.446.056-.823.161-1.303.313-1.67A4.875 4.875 0 0113.3 6.33c.366-.151.846-.256 1.67-.313.838-.057 1.91-.058 3.446-.058H28.46zm10.95 7.584a31.463 31.463 0 00-.083-.082l-5.121-5.122-.082-.082v5.286h5.285z" fill="#0D0B4E"/><path fill-rule="evenodd" clip-rule="evenodd" d="M15.708 17.333c0-.897.728-1.625 1.625-1.625H26a1.625 1.625 0 010 3.25h-8.667a1.625 1.625 0 01-1.625-1.625zm0 8.667c0-.898.728-1.625 1.625-1.625h17.334a1.625 1.625 0 110 3.25H17.333A1.625 1.625 0 0115.708 26zm0 8.667c0-.898.728-1.625 1.625-1.625h17.334a1.625 1.625 0 110 3.25H17.333a1.625 1.625 0 01-1.625-1.625z" fill="#A0AECA"/></svg>