<svg width="49" height="49" fill="none" xmlns="http://www.w3.org/2000/svg"><path fill-rule="evenodd" clip-rule="evenodd" d="M31.476 13.33a1.531 1.531 0 012.154-.23L45.88 23a1.531 1.531 0 01.034 2.352L33.664 35.87a1.531 1.531 0 11-1.994-2.323l10.855-9.32-10.82-8.744a1.531 1.531 0 01-.229-2.154zm-13.952 0a1.531 1.531 0 00-2.154-.23L3.12 23a1.531 1.531 0 00-.035 2.352l12.25 10.518a1.531 1.531 0 101.995-2.323l-10.855-9.32 10.82-8.744c.658-.532.76-1.496.229-2.154z" fill="#0D0B4E"/><path fill-rule="evenodd" clip-rule="evenodd" d="M28.954 6.681a1.531 1.531 0 011.115 1.857l-8.167 32.667a1.531 1.531 0 11-2.971-.743l8.166-32.667a1.531 1.531 0 011.857-1.114z" fill="#A0AECA"/></svg>