<svg width="45" height="45" fill="none" xmlns="http://www.w3.org/2000/svg"><path fill-rule="evenodd" clip-rule="evenodd" d="M22.5 5.156a7.969 7.969 0 100 15.938 7.969 7.969 0 000-15.938zm-10.781 7.969c0-5.954 4.827-10.781 10.781-10.781 5.954 0 10.781 4.827 10.781 10.781 0 5.954-4.827 10.781-10.781 10.781-5.954 0-10.781-4.827-10.781-10.781z" fill="#0D0B4E"/><path fill-rule="evenodd" clip-rule="evenodd" d="M15.506 26.719h13.988c.526 0 .887 0 1.229.033a7.031 7.031 0 015.481 3.614c.165.301.308.634.515 1.117l.028.066.065.152c.433 1.01.723 1.685.862 2.25a7.031 7.031 0 01-5.677 8.61c-.575.096-1.31.096-2.409.095H15.412c-1.099 0-1.834 0-2.409-.095a7.031 7.031 0 01-5.677-8.61c.139-.565.429-1.24.862-2.25.02-.05.043-.101.065-.152l.028-.066c.207-.483.35-.816.514-1.117a7.031 7.031 0 015.482-3.614c.341-.033.703-.033 1.229-.033zm.071 2.812c-.624 0-.84.002-1.027.02a4.219 4.219 0 00-3.29 2.169c-.09.165-.176.363-.422.936-.521 1.217-.705 1.657-.78 1.965a4.219 4.219 0 003.406 5.166c.313.052.79.057 2.113.057h13.846c1.323 0 1.8-.005 2.113-.057a4.219 4.219 0 003.406-5.166c-.075-.308-.259-.748-.78-1.965-.246-.573-.332-.77-.423-.936a4.219 4.219 0 00-3.289-2.169c-.188-.018-.404-.02-1.027-.02H15.577z" fill="#A0AECA"/></svg>