<svg width="67" height="67" fill="none" xmlns="http://www.w3.org/2000/svg"><g clip-path="url(#clip0)" fill="#fff"><path d="M57.453 28.484a.981.981 0 10-.975 1.703c5.436 3.111 8.429 7.123 8.429 11.296 0 8.11-11.432 15.19-26.591 16.467a.982.982 0 00.165 1.955c7.737-.651 14.848-2.801 20.024-6.053 5.393-3.388 8.364-7.78 8.364-12.37 0-4.906-3.344-9.522-9.416-12.998zM34.19 59.675l.016-.026.037-.066.014-.03a.888.888 0 00.061-.171l.009-.03c.005-.026.01-.052.013-.079l.004-.028a1.065 1.065 0 000-.216c0-.009-.002-.018-.004-.027a.998.998 0 00-.013-.079l-.009-.03a.897.897 0 00-.061-.172l-.014-.03a1.047 1.047 0 00-.038-.066l-.015-.025a.916.916 0 00-.054-.074l-.008-.01a.828.828 0 00-.07-.078l-.023-.02a1.122 1.122 0 00-.057-.05l-.01-.009-5.156-3.96a.982.982 0 00-1.196 1.556l2.768 2.126c-7.395-.369-14.246-2.102-19.54-4.977-5.812-3.155-9.012-7.282-9.012-11.621 0-4.173 2.993-8.184 8.428-11.295a.982.982 0 00-.975-1.704C3.213 31.96-.13 36.576-.13 41.483c0 5.092 3.565 9.832 10.038 13.346 5.615 3.048 12.866 4.871 20.658 5.225l-2.949 2.266a.981.981 0 101.196 1.556l5.155-3.96.01-.01a.547.547 0 00.058-.05c.007-.006.015-.012.022-.02a.917.917 0 00.07-.076l.009-.011c.019-.024.037-.049.054-.074z"/><path d="M13.63 36.987l19.293 9.83.032.013.046.02c.024.01.05.019.074.027.016.005.03.01.046.013a.968.968 0 00.084.018l.039.007a1.02 1.02 0 00.25 0l.039-.007a.832.832 0 00.084-.018c.015-.003.03-.008.045-.013a1.323 1.323 0 00.12-.047c.012-.005.022-.008.033-.014l19.292-9.829a.982.982 0 00.536-.874V32.17a.981.981 0 10-1.963 0v3.341l-17.33 8.83V24.38l17.33-8.829v12.693a.982.982 0 001.963 0V13.95a.947.947 0 00-.01-.132c-.001-.015-.005-.029-.008-.044-.005-.028-.01-.056-.017-.083l-.017-.05a.738.738 0 00-.084-.188l-.03-.047a.897.897 0 00-.043-.059.982.982 0 00-.234-.216l-.026-.018-.037-.02-.03-.018-19.293-9.829a.981.981 0 00-.891 0L30.148 4.66a.982.982 0 00.89 1.75l2.33-1.188L50.5 13.951l-1.073.547-16.058 8.18-16.058-8.18-1.073-.547 11.291-5.753a.981.981 0 10-.89-1.749L13.63 13.076l-.03.019c-.012.006-.025.012-.037.02-.009.005-.016.011-.026.018-.017.01-.032.022-.049.034a.996.996 0 00-.227.24l-.03.047c-.013.021-.023.044-.035.066l-.023.049c-.01.024-.018.049-.026.073-.006.017-.012.032-.017.05a.946.946 0 00-.017.084l-.01.043a1.03 1.03 0 00-.008.132v7.495a.981.981 0 101.963 0v-5.894l17.33 8.83V44.34l-17.33-8.829v-10.14a.981.981 0 10-1.963 0v10.742a.98.98 0 00.535.874z"/></g><defs><clipPath id="clip0"><path fill="#fff" d="M0 0h67v67H0z"/></clipPath></defs></svg>