<svg width="134" height="113" fill="none" xmlns="http://www.w3.org/2000/svg"><path d="M8.242 109.71l-1.639 1.734a.849.849 0 00.62 1.434.843.843 0 00.62-.267l1.638-1.726a.855.855 0 00-.034-1.208.852.852 0 00-1.205.033zm17.206-15.694l3.493-3.69a.847.847 0 00-.033-1.201.846.846 0 00-1.2.033l-3.493 3.686a.853.853 0 00.62 1.439.839.839 0 00.613-.267zm13.379-16.603L37.19 79.14a.862.862 0 00.032 1.209.858.858 0 001.206-.035l1.636-1.732a.85.85 0 10-1.236-1.169zm85.43 32.298a.851.851 0 10-1.237 1.17l1.639 1.731c.165.176.39.266.617.266a.818.818 0 00.582-.233.85.85 0 00.036-1.205l-1.637-1.729zm-6.488-6.853a.85.85 0 00-1.234 1.169l3.494 3.691a.847.847 0 001.199.034.849.849 0 00.034-1.201l-3.493-3.693zm-9.482-10.014l-3.494-3.686a.852.852 0 10-1.238 1.169l3.495 3.69a.851.851 0 001.205.037.859.859 0 00.032-1.21zM94.692 80.58a.857.857 0 00.619-1.44l-1.643-1.73a.846.846 0 00-1.202-.031.847.847 0 00-.033 1.197l1.638 1.734c.168.178.394.27.62.27zM8.3 100.147a.852.852 0 00-.85-.854H2.682a.852.852 0 000 1.706H7.45c.47 0 .85-.384.85-.852zm16.855-.854h-4.699l2.004-2.111a.854.854 0 00-.035-1.205.847.847 0 00-1.2.033l-3.497 3.69a.85.85 0 101.236 1.168l.593-.626a.846.846 0 00.833.756h4.766c.47 0 .854-.384.854-.852a.857.857 0 00-.855-.853zm70.822 0h-4.765a.853.853 0 100 1.706h4.765a.853.853 0 000-1.706zm8.854 0h-4.768a.85.85 0 00-.848.854.85.85 0 00.848.852h4.768a.853.853 0 000-1.706zm-17.704 0h-4.764a.853.853 0 100 1.706h4.764a.855.855 0 00.852-.852.854.854 0 00-.852-.854zm-17.707 0h-4.766a.85.85 0 00-.851.854.85.85 0 00.852.852h4.766a.854.854 0 000-1.706zm8.854 0h-4.768a.852.852 0 000 1.706h4.768a.853.853 0 000-1.706zm45.114.854a.85.85 0 00-.848-.854h-4.768a.853.853 0 000 1.706h4.768a.853.853 0 00.848-.852zm-71.671-.854h-4.768a.852.852 0 100 1.706h4.768a.853.853 0 000-1.706zm-8.855 0h-4.77a.852.852 0 000 1.706h4.77a.853.853 0 000-1.706zm87.394 0h-3.63a.858.858 0 00-.858.854c0 .468.387.852.858.852h3.63a.858.858 0 00.855-.852.858.858 0 00-.855-.854zm-96.247 0H29.24a.853.853 0 000 1.706h4.768a.853.853 0 100-1.706zm26.56 0H55.8a.853.853 0 000 1.706h4.768c.47 0 .852-.384.852-.852a.851.851 0 00-.852-.854zm39.494-83.92h4.768a.85.85 0 100-1.7h-4.768a.847.847 0 00-.848.85c0 .471.379.85.848.85zm-26.557 0h4.768a.85.85 0 100-1.7h-4.768a.85.85 0 100 1.7zm8.857 0h4.764a.85.85 0 100-1.7h-4.764a.85.85 0 100 1.7zm8.849 0h4.765a.849.849 0 00.852-.85.847.847 0 00-.852-.85h-4.765a.85.85 0 100 1.7zm17.705 0h4.771a.85.85 0 00.442-.14.835.835 0 00.614.267.85.85 0 00.849-.851V9.884a.85.85 0 10-1.697 0v3.83c-.068-.017-.133-.04-.208-.04h-4.771a.85.85 0 000 1.7zm-53.116 0h4.768a.85.85 0 100-1.7H55.8a.85.85 0 100 1.7zm-8.852 0h4.768a.85.85 0 100-1.7h-4.768a.849.849 0 00-.853.85c0 .471.379.85.853.85zm-26.56 0h4.766a.85.85 0 100-1.7h-4.767a.85.85 0 100 1.7zm-8.852 0h4.382a.837.837 0 00.422.127.85.85 0 00.852-.851V9.884a.85.85 0 00-.852-.852.85.85 0 00-.852.852v3.79h-3.952a.85.85 0 100 1.7zm-8.855 0H7.45a.85.85 0 100-1.7H2.682a.85.85 0 100 1.7zm26.558 0h4.769a.85.85 0 100-1.7H29.24a.85.85 0 100 1.7zm88.532 0h4.768a.848.848 0 00.848-.85.846.846 0 00-.848-.85h-4.768a.85.85 0 100 1.7zm-79.68 0h4.77a.85.85 0 100-1.7h-4.77a.85.85 0 100 1.7zm88.534 0h3.63a.853.853 0 00.855-.85.854.854 0 00-.855-.85h-3.63a.855.855 0 00-.858.85c0 .471.388.85.858.85zm-44.31 68.604a.851.851 0 10.003-1.704H77.55a.851.851 0 100 1.704h4.765zm8.854 0a.852.852 0 100-1.704H86.4a.85.85 0 000 1.704h4.768zm-35.41 0a.85.85 0 00.85-.85.849.849 0 00-.85-.854h-4.768a.853.853 0 100 1.704h4.768zm17.702 0a.852.852 0 100-1.704h-4.765a.851.851 0 100 1.704h4.765zm-26.557 0a.851.851 0 000-1.704h-4.768a.85.85 0 00-.85.854c0 .468.38.85.85.85h4.768zm17.708 0a.855.855 0 00.852-.85.853.853 0 00-.852-.854h-4.767a.852.852 0 100 1.704h4.767zM16.341 97.556a.855.855 0 00-.852.853v.884h-3.952a.855.855 0 00-.853.853c0 .468.382.852.853.852h3.952v1.621a.84.84 0 00-.756.238l-3.493 3.692a.841.841 0 00.034 1.201.844.844 0 001.202-.033l3.492-3.691c.018-.019.024-.043.04-.065a.85.85 0 001.183-.784v-4.77a.854.854 0 00-.85-.85zm-.001 8.854a.853.853 0 00-.852.852v4.769c0 .473.383.849.852.849.47 0 .852-.376.852-.849v-4.769a.854.854 0 00-.852-.852zm0-79.672a.848.848 0 00-.852.847v4.77a.853.853 0 001.704 0v-4.77a.849.849 0 00-.852-.847zm0 61.968c-.47 0-.852.38-.852.853v4.766a.852.852 0 001.704 0V89.56a.853.853 0 00-.852-.853zm0-82.056c.47 0 .852-.384.852-.854V1.028a.852.852 0 00-1.704 0v4.768c0 .47.38.854.852.854zm.85 12.086a.85.85 0 00-.852-.853.85.85 0 00-.852.853v4.766a.852.852 0 101.704 0v-4.766zm-.85 43.41c-.47 0-.852.38-.852.853v4.768a.852.852 0 101.704 0V63a.853.853 0 00-.852-.853zm0-8.856a.855.855 0 00-.852.855v4.767a.85.85 0 101.704 0v-4.767a.856.856 0 00-.852-.855zm0 26.562a.854.854 0 00-.852.852v4.77a.852.852 0 001.704 0v-4.77a.855.855 0 00-.852-.852zm0-35.41a.852.852 0 00-.852.854v4.766a.851.851 0 001.704 0v-4.766a.853.853 0 00-.852-.854zm0 26.559a.85.85 0 00-.852.852v4.764a.853.853 0 001.704 0v-4.764A.852.852 0 0016.34 71zm98.405-17.711a.851.851 0 00-.849.855v4.767a.85.85 0 101.698 0v-4.767a.853.853 0 00-.849-.855zm0-8.848a.849.849 0 00-.849.854v4.766a.848.848 0 101.698 0v-4.766a.85.85 0 00-.849-.854zm-.849-25.706v4.766a.849.849 0 101.698 0v-4.766a.85.85 0 10-1.698 0zm.849-12.086a.853.853 0 00.849-.854V1.028a.85.85 0 10-1.698 0v4.768c0 .47.378.854.849.854zm0 99.76a.85.85 0 00-.849.852v4.769c0 .473.378.849.849.849a.847.847 0 00.849-.849v-4.769a.851.851 0 00-.849-.852zm0-17.704a.849.849 0 00-.849.853v4.766a.849.849 0 101.698 0V89.56a.85.85 0 00-.849-.853zm-.002 8.85a.852.852 0 00-.849.853v.359l-2.614-2.763a.851.851 0 00-1.202-.03.848.848 0 00-.033 1.205l2.001 2.113h-3.129a.852.852 0 000 1.705h4.771c.009 0 .019-.005.029-.007.058.037.114.07.179.091v2.097a.848.848 0 101.697 0v-4.77a.856.856 0 00-.85-.853zm.002-17.704a.85.85 0 00-.849.852v4.77a.848.848 0 101.698 0v-4.77a.853.853 0 00-.849-.852zm0-17.706a.849.849 0 00-.849.853v4.768a.849.849 0 101.698 0V63a.85.85 0 00-.849-.853zm0 8.855a.848.848 0 00-.849.852v4.764a.85.85 0 101.698 0v-4.764a.85.85 0 00-.849-.852z" fill="#000"/><path d="M132.003 38.935l-16.235-6.013v-.005l-.316-.116a.823.823 0 00.143-.445v-4.771a.846.846 0 00-.849-.847.844.844 0 00-.848.847v4.645L68.403 15.373h1.017a.85.85 0 100-1.7h-4.766a.847.847 0 00-.852.85c0 .292.152.533.373.687l-.065.025c-.005.005-.011.005-.02.005L17.36 33.158l-.678.26v.02c0 .139.096.236.219.288-.124-.05-.223-.149-.223-.289v-.017L2.264 38.948a3.064 3.064 0 00-1.762 3.959 3.06 3.06 0 003.957 1.763l11.03-4.228v.763c0 .472.382.855.852.855s.851-.383.851-.855v-1.42l.17-.065.968-.366-.602-.923.603.923.002-.002 16.026 24.586a.88.88 0 00.173.203v-.76a.671.671 0 01.001.002v18.715a.842.842 0 00-.287.174h-.958c-.47 0-.851.38-.851.854 0 .277.142.513.352.669l-2.083 2.2a.853.853 0 00.033 1.204.848.848 0 001.202-.035l3.019-3.188h3.096a.855.855 0 00.853-.85.854.854 0 00-.853-.854h-2.16V64.143c-.038.032-.078.067-.122.097-.059.036-.126.032-.188.055.062-.025.129-.019.186-.055a1.02 1.02 0 00.122-.097v-.287.287c.12-.11.21-.24.267-.384h.001v-.003l11.64-4.368v2.146c0 .24.197.434.437.434h3.922a.435.435 0 00.433-.434v-3.94l1.964-.736.558-.213v-.07a.277.277 0 00-.276-.279c.154 0 .278.123.278.28v.07l10.935-4.098 11.364 4.23v.002l.003.002v4.898H76.4a.278.278 0 00-.28.282v4.535c0 .154.124.279.28.279h2.509c.156 0 .28-.125.28-.28v-4.534a.278.278 0 00-.28-.282h-.93v-4.692l-.003-.002v-.41a.273.273 0 00-.276-.281h.004c.155 0 .276.122.276.279v.412l1.871.698V56.23L66.29 51.178a.682.682 0 00-.476 0l-13.219 4.958v-1.69a.434.434 0 00-.433-.437h-1.45v-1.134l15.34-5.753 15.831 5.89v-2.178l-15.474-5.76a1.024 1.024 0 00-.714 0L50.71 50.692v-4.603l-.55.208.549-.21v-.055a.435.435 0 00-.435-.434c.241 0 .438.195.438.433v.057l15.34-5.753 15.83 5.894v6.784l.874.33v-6.787l4.238 1.575v4.606l.682.256v3.209h2.766l1.83.68 7.07 2.633 1.099-1.77-5.957-2.22v.678a.68.68 0 01-.68.68h-.002a.682.682 0 00.682-.68v-.674l-.682-.256v.93-.928l-.682-.255v.5h-4.505l1.218.454-1.221-.453-.26-.095v-9.622h.195l.003.002h1.69v-.002h2.88v1.7l.682.254v-2.634 5.54l.682.254v-5.794a.683.683 0 00-.682-.684h-2.269v-3.45l15.663 5.833-2.977 4.812.914.343-.952 2.553-.003-.002.955-2.552-.914-.342-.003.002-9.734-3.626v2.907L102.754 54l-2.315 3.745-1.095 1.768-1.996 3.23.849.315c.234.089.38.306.415.554a.672.672 0 00-.418-.554l-.849-.316-.003.004-12.702-4.732-.223-.085.223.084V54.44a.433.433 0 00-.433-.433h-1.453v.869h1.017v2.809l.436.163v1.45l.433.165v.002l12.367 4.604v.002l.006.003c.056.144.143.27.264.376v.008c.043.036.09.076.142.108.167.103.351.152.537.152.223 0 .439-.086.62-.224-.18.141-.393.225-.62.225-.18 0-.368-.049-.537-.153-.052-.032-.096-.07-.145-.108V82.16c-.06.034-.124.06-.173.11l-.003.001h-1.844a.847.847 0 00-.848.854c0 .468.374.85.848.85h2.29l3.016 3.186a.847.847 0 001.202.037.853.853 0 00.034-1.207l-2.083-2.197a.838.838 0 00.351-.67.852.852 0 00-.852-.853h-.576V63.697c0 .002.003.002.003.003v.759a.982.982 0 00.186-.224l2.698-4.36v-.002a1.02 1.02 0 00.39-.488 1.029 1.029 0 00-.26-1.093c.231.222.357.54.316.866l11.924-19.27v1.317a.85.85 0 00.848.855.852.852 0 00.849-.855V39.39l.143.052s.003 0 .003.002l14.129 5.234a3.063 3.063 0 003.938-1.81 3.048 3.048 0 00-1.8-3.933zM78.63 62.236v3.982h-1.95v-3.982h.743v.004h.559v-.28.276h.648zm.28-.275v4.534-4.535zm18.348 2.203l.022.007-.022-.007zm3.702-4.113c-.059 0-.121-.022-.179-.034.058.012.117.034.179.034zm.355-1.978zm14.45-21.206v.003l-.17.273v-.005l.17-.271v-2.072a.345.345 0 00-.341-.34c.012 0 .022.009.033.009.17.025.309.158.309.331v2.065l-.001.007zm-.345-2.41c-.074 0-.142.037-.217.054.075-.017.143-.055.221-.055l-.004.001zm.173 4.015c.026-.014.053-.011.072-.03-.019.019-.046.019-.072.033v-.003zm.175-5.038a.34.34 0 01-.682.002v-.002a.342.342 0 00.682 0zm-98.577 5.04a.35.35 0 00.101-.104.275.275 0 01-.101.103zm.17-5.041v.003a.34.34 0 010-.003zm-.9 1.186a1.02 1.02 0 00-.446 1.033h-.001c-.068-.39.095-.805.447-1.033zm.901 3.252v-3.075c0-.174-.133-.302-.3-.326h.002c.165.024.3.152.3.328l-.002 3.073zm6.648 7.583l.596 1.592.691-.258-.691.261-.597-1.595zm4.031 6.224l.192-.072-.192.072zm.955 2.555l1.183-.446-1.524-2.34-3.098-4.756 15.589-5.846v3.597h-.007v.002h-2.496a.683.683 0 00-.684.681v2.832l-9.307 3.49 1.524 2.34 7.783-2.918v4.601l.682-.252-.682.254v.001l-5.372 2.016 1.142 1.753v.002l-1.142-1.755-.73.276a.99.99 0 00.002-.003l.728-.274-2.41-3.7-1.18.445zm13.51-9.107v.382a.728.728 0 01-.077.298h1.277l.534-.201-.533.2h.384v2.766l.682-.256v.002l-.682.254v6.952h-4.766v-.56l-.68.255.68-.257v-7.513l-.68.255.678-.255v-1.644h1.891a.672.672 0 01-.073-.296v-.002c0 .106.029.208.073.298h1.215a.676.676 0 00.076-.298v-.38h-.002v-.684h.002v.684zm-3.863 5.487l-.341.127.34-.127zm-3.43 13.792c-.067 0-.13-.024-.196-.035.065.01.129.035.195.035zm13.462-5.344v-4.183h1.163v-.434.436h1.889v6.218h-3.05V59.06l-.437.165v-.002l.435-.163zm3.488-2.761l.216-.081-.216.08zm-2.325-5.279v2.985h-1.6a.437.437 0 00-.435.436v3.491L35.81 62.428v.002l-2.078-3.188 6.286-2.357h-1.375a.684.684 0 01-.684-.68V56.2c0 .376.306.68.684.68h1.372l1.816-.68h.002l-1.816.68h4.755a.678.678 0 00.678-.68v-3.535l-.678.253.678-.255V48.06l4.386-1.644v4.604h.002zm32.046-4.99c0-.071.046-.122.077-.18-.031.058-.077.109-.077.18zm.634.433l.238.089-.238-.089zm5.158 1.92h-.003v-2.905h.003v2.904zm0-3.942a.681.681 0 00-.682.684v.098l.403.152-.403-.15v.003l-20.467-7.625a1.369 1.369 0 00-.953 0l-20.122 7.547v-.026a.68.68 0 00-.679-.683h-2.266v-4.107l23.552-8.831 24.115 8.98v4.641-.683h-2.498zm3.856-7.08v-5.384a.681.681 0 10-1.36 0v4.87L66.645 28.09a1.693 1.693 0 00-1.191 0l-22.95 8.61v-4.725a.68.68 0 00-1.361 0v5.234l-17.494 6.559 1.905 2.921h-.001l-1.904-2.918-.238.09v-.003l.238-.09-3.367-5.166 45.79-17.557 46.436 17.205 2.048-3.314a1.044 1.044 0 01.003-.001l-2.051 3.316v.002l-3.481 5.623-17.495-6.514zm24.762-1.349l-.211.337.211-.34a1.07 1.07 0 00.14-.379.981.981 0 01-.14.382z" fill="#000"/><path d="M45.451 54.849l4.386-1.647v-2.18l-4.386 1.643v2.184zm9.109 6.829h-1.022a.277.277 0 00-.276.283v4.534c0 .154.122.28.276.28h2.51a.28.28 0 00.281-.28v-4.534a.279.279 0 00-.28-.283h-.93v-5.034l-.558.213v4.821zm1.212 4.538h-1.955v-3.98h.744v.002h.558v-.003h.654v3.981zm28.435-4.684v-2.228l-.436-.16v1.952h-3.049v-3.088l-.436-.163.436.165v-3.131h1.158v.001h.874v-1.537l-.874-.326v.99h-1.597a.435.435 0 00-.433.437v3.241l.318.117-.318-.116v3.848c0 .24.195.435.436.435h3.922a.435.435 0 00.433-.435v-2.065l-.433-.16v2.223h-.001zm-3.924-7.088v1.946-1.946z" fill="#000"/><path d="M83.772 59.143l.436.16v-1.45l-.436-.16v1.45zm3.222-2.937c0 .373.303.68.679.68h4.6l-1.83-.68h-2.77v-3.211l-.679-.253v-.001l-4.238-1.578v2.18l4.238 1.579v1.284zm7.491-5.286l-.682-.253v4.607l.682.252V50.92zm-.682-.254V47.76l-.682-.252v7.512l.682.253v-4.607z" fill="#000"/></svg>