<svg width="82" height="82" fill="none" xmlns="http://www.w3.org/2000/svg"><path d="M1.03 10.225a8.495 8.495 0 016.683 6.683 1.279 1.279 0 002.511 0 8.495 8.495 0 016.683-6.683 1.28 1.28 0 000-2.511 8.501 8.501 0 01-6.683-6.683 1.28 1.28 0 00-2.51 0A8.501 8.501 0 011.03 7.714a1.28 1.28 0 000 2.51zm7.939-5.34a11.031 11.031 0 004.083 4.084 11.03 11.03 0 00-4.083 4.084 11.03 11.03 0 00-4.084-4.084A11.03 11.03 0 008.97 4.886zM74.312 19.22a3.848 3.848 0 00-3.843-3.844h-5.361a3.8 3.8 0 00.236-1.282c0-.706.574-1.28 1.28-1.28h10.25V10.25h-10.25a3.848 3.848 0 00-3.843 3.843c0 .706-.574 1.282-1.281 1.282h-4.63l4.563-13.69c.17-.504.01-1.059-.402-1.396a1.284 1.284 0 00-1.448-.122L51.37 4.862 45.645.282a1.283 1.283 0 00-1.602 0l-5.726 4.58L30.104.168a1.283 1.283 0 00-1.85 1.519l4.595 13.782a1.275 1.275 0 00-.818 1.188v.998A37.14 37.14 0 007.687 52.532v26.906H0v2.563h80.719c.708 0 1.28-.575 1.28-1.282V52.532c0-15.367-9.444-29.054-23.656-34.594h12.126c.707 0 1.28.575 1.28 1.281a3.848 3.848 0 003.845 3.844H82v-2.562h-6.406a1.283 1.283 0 01-1.282-1.282zM37.802 7.518a1.281 1.281 0 001.436-.111l5.606-4.485 5.605 4.485c.41.326.982.372 1.436.111l6.058-3.46-3.773 11.317H35.517L31.745 4.058l6.057 3.461zm41.635 45.013v26.906H10.25V52.532a34.576 34.576 0 0123.474-32.757 1.28 1.28 0 00.87-1.213v-.624h20.5v.624c0 .548.348 1.037.87 1.213a34.576 34.576 0 0123.473 32.757z" fill="#000"/><path d="M24.344 51.25c0 11.304 9.197 20.5 20.5 20.5s20.5-9.196 20.5-20.5c0-11.303-9.197-20.5-20.5-20.5s-20.5 9.197-20.5 20.5zm38.437 0c0 9.892-8.046 17.938-17.937 17.938-9.892 0-17.938-8.046-17.938-17.938 0-9.89 8.047-17.937 17.938-17.937 9.89 0 17.937 8.046 17.937 17.938z" fill="#000"/><path d="M29.469 51.25c0 8.478 6.897 15.375 15.375 15.375s15.375-6.897 15.375-15.374c0-8.479-6.897-15.375-15.375-15.375S29.469 42.772 29.469 51.25zm28.187 0c0 7.065-5.748 12.813-12.812 12.813-7.065 0-12.813-5.748-12.813-12.813 0-7.064 5.748-12.812 12.813-12.812 7.064 0 12.812 5.748 12.812 12.813z" fill="#000"/><path d="M43.563 41v2.563h-.641a4.49 4.49 0 00-4.484 4.484 4.49 4.49 0 004.484 4.485h.64v3.844H39.72v2.562h3.843v2.563h2.563v-2.563h.64a4.49 4.49 0 004.485-4.484 4.49 4.49 0 00-4.484-4.485h-.641v-3.843h3.844v-2.563h-3.844V41h-2.563zm3.203 11.532c1.06 0 1.922.862 1.922 1.922s-.863 1.922-1.922 1.922h-.641v-3.844h.64zm-3.203-2.563h-.641A1.924 1.924 0 0141 48.047c0-1.06.862-1.921 1.922-1.921h.64v3.843zM5.125 23.063a3.848 3.848 0 00-3.844 3.844 3.848 3.848 0 003.844 3.843 3.848 3.848 0 003.844-3.843 3.848 3.848 0 00-3.844-3.844zm0 5.125a1.283 1.283 0 01-1.281-1.281c0-.706.574-1.282 1.281-1.282s1.281.576 1.281 1.282c0 .706-.574 1.281-1.281 1.281zm71.75 35.875h-2.563v2.563h2.563v-2.563zm-5.125 0h-2.563v2.563h2.563v-2.563zm-5.125 0h-2.563v2.563h2.563v-2.563zm10.25-5.125h-2.563v2.563h2.563v-2.563zm-5.125 0h-2.563v2.563h2.563v-2.563zm5.125 15.375h-2.563v2.563h2.563v-2.563zm-5.125 0h-2.563v2.563h2.563v-2.563zm-5.125 0h-2.563v2.563h2.563v-2.563zm10.25-5.125h-2.563v2.563h2.563v-2.563zm-5.125 0h-2.563v2.563h2.563v-2.563zM82 0h-2.563v2.563H82V0zm-5.125 0h-2.563v2.563h2.563V0zM71.75 0h-2.563v2.563h2.563V0zM82 5.125h-2.563v2.563H82V5.125zm-5.125 0h-2.563v2.563h2.563V5.125zm-10.25 64.063h-2.563v2.563h2.563v-2.563zM61.5 74.313h-2.563v2.563H61.5v-2.563zm0-5.125h-2.563v2.563H61.5v-2.563zm-41-55.094h-2.563v2.563H20.5v-2.563z" fill="#000"/></svg>