<svg width="115" height="99" fill="none" xmlns="http://www.w3.org/2000/svg"><path d="M83.32 33.78h-65.8v2.91h56.378v20.59h3.212V36.69h6.21v-2.91zm-9.91 24.489H26.383v32.744h2.333v.825h4.467V90.56h-2.52l3.22-24.417H69.61l3.217 24.417H71.79v1.278h4.467v-.826h.853V58.268h-3.7zM21.451 32.804h9.128l-3.927-19.24h-9.13l3.93 19.24z" fill="#000"/><path d="M26.447 57.28h46.47v-7.874H33.97L31.574 37.67h-9.129l4.002 19.62v-.008zm71.345-47.032h-4.466v1.278h4.466V10.25zm7.179 0h-4.467v1.278h4.467V10.25zm7.179 0h-4.466v1.278h4.466V10.25zm-28.718 0h-4.465v1.278h4.465V10.25zm-28.713 0h-4.467v1.278h4.467V10.25zm14.357 0H64.61v1.278h4.467V10.25zm-43.072 0h-4.467v1.278h4.467V10.25zm21.537 0h-4.467v1.278h4.467V10.25zm-14.359 0h-4.467v1.278h4.467V10.25zm-28.715 0H0v1.278h4.467V10.25zm57.43 0h-4.465v1.278h4.465V10.25zm-21.536 0h-4.466v1.278h4.466V10.25zm-21.535 0H14.36v1.278h4.467V10.25zm50.25 80.312H64.61v1.278h4.467V90.56zm-7.179 0h-4.465v1.278h4.465V90.56zm-57.43 0H0v1.278h4.467V90.56zm50.252 0h-4.467v1.278h4.467V90.56zm-28.715 0h-4.467v1.278h4.467V90.56zm-7.178 0H14.36v1.278h4.467V90.56zm28.715 0h-4.467v1.278h4.467V90.56zm-7.18 0h-4.466v1.278h4.466V90.56zm43.071 0h-4.465v1.278h4.465V90.56zm21.539 0h-4.467v1.278h4.467V90.56zm-7.179 0h-4.466v1.278h4.466V90.56zm14.039 0h-4.147v1.278h4.147V90.56zm-9.08-56.252h-1.276v4.467h1.276v-4.467zm0-7.181h-1.276v4.469h1.276v-4.469zm0-7.177h-1.276v4.467h1.276V19.95zm0 28.715h-1.276v4.468h1.276v-4.468zm0-35.895h-1.276v4.469h1.276V12.77zm0 57.433h-1.276v4.466h1.276v-4.466zm0-28.717h-1.276v4.468h1.276v-4.468zm0 43.074h-1.276v4.467h1.276V84.56zm0-7.18h-1.276v4.468h1.276V77.38zm0-14.358h-1.276v4.468h1.276v-4.468zm10.716-4.899h-10.719v-2.279h-1.276v2.279h-4.534a.736.736 0 000 1.473h4.534v.716h1.276v-.716h10.719a.736.736 0 100-1.473zM96.205 33.42c0 .407.33.737.735.737h16.529a.736.736 0 100-1.473H96.94a.736.736 0 00-.735.736zm-8.509 46.447H86.42v4.467h1.276v-4.467zM87.694 8.08h-1.276v2.169h-.272v1.277h.272v1.02h1.276v-1.02h2.918V10.25h-2.918V8.08zM87.696.9H86.42v4.468h1.276V.9zm0 28.714H86.42v4.468h1.276v-4.468zm0-7.178H86.42v4.467h1.276v-4.466zm0-7.18H86.42v4.468h1.276v-4.468zm0 78.969H86.42v4.467h1.276v-4.467zm-.002-7.18h-1.276v3.515h-.272v1.278h4.466V90.56h-2.918v-3.515zm.002-14.356H86.42v4.468h1.276v-4.468zm0-14.359H86.42v4.467h1.276v-4.466zm0-21.536H86.42v4.468h1.276v-4.468zm0 28.714H86.42v4.469h1.276v-4.469zm0-21.535H86.42v4.467h1.276v-4.467zm0 7.177H86.42v4.469h1.276V51.15zM12.493 29.762h-1.276v4.468h1.276v-4.468zm0 7.178h-1.276v4.47h1.276v-4.47zm0 57.431h-1.276v2.287h1.276V94.37zm0-50.251h-1.276v4.466h1.276v-4.467zm0-43.073h-1.276v4.468h1.276V1.047zm0 50.251h-1.276v4.468h1.276v-4.468zm-1.276-41.05H7.18v1.278h4.037v1.167h1.276V8.225h-1.276v2.024zm1.276 5.156h-1.276v4.468h1.276v-4.468zm0 7.178h-1.276v4.467h1.276v-4.466zm0 35.895h-1.276v4.467h1.276v-4.467zM11.217 90.56H7.18v1.277h4.466v-.177h.847v-4.468h-1.276v3.367zm1.276-10.546h-1.276v4.467h1.276v-4.467zm0-7.179h-1.276v4.468h1.276v-4.468zm0-7.179h-1.276v4.468h1.276v-4.468zm63.514-53.659a.65.65 0 101.3 0V.65a.649.649 0 10-1.3 0v9.598H71.79v1.278h4.218v.47z" fill="#000"/></svg>