<svg width="105" height="109" fill="none" xmlns="http://www.w3.org/2000/svg"><path d="M8.429 70.41a.739.739 0 00.308-.065.655.655 0 00.402-.597c0-.365-.324-.66-.72-.66-.397 0-.724.295-.724.66 0 .258.172.484.405.597a.92.92 0 00.329.066zm4.866-5.201h.702v-4.067h-3.925v4.067h.703v-3.423h2.52v3.423zm-1.428 3.708c.798 0 1.572-.095 2.266-.256 2.127-.508 3.622-1.724 3.622-3.135H5.977c0 1.442 1.556 2.677 3.763 3.17a10.1 10.1 0 002.127.22zm1.09 14.536c0-.05-.01-.09-.01-.13a1.3 1.3 0 01-.351.056c-.126 0-.246-.024-.352-.056 0 .04-.01.087-.01.13l-.753 2.475a.578.578 0 00-.038.226c0 .724.512 1.306 1.145 1.306s1.14-.588 1.14-1.306a1.78 1.78 0 00-.016-.226l-.755-2.475zM12.04 60.68c3.84-.378 0-5.674 0-5.674s-3.838 5.296 0 5.675zM7.287 73.514c0 .725.507 1.306 1.14 1.306.634 0 1.145-.588 1.145-1.306 0-.083-.011-.154-.018-.226l-.758-2.477c0-.049-.009-.09-.009-.128a1.269 1.269 0 01-.35.057c-.125 0-.246-.025-.35-.057 0 .037-.011.09-.011.128l-.757 2.477a.618.618 0 00-.032.226zm4.58 8.873c0 .258.166.486.402.598a.766.766 0 00.615 0 .652.652 0 00.404-.598c0-.36-.325-.66-.72-.66-.396 0-.7.3-.7.66zm3.1-1.538c0-.338-.308-.63-.677-.63-.386 0-.71.293-.722.648 0 .345.293.625.679.625.385 0 .72-.297.72-.643zm20.693.024c-.014-.331-.318-.605-.67-.605-.379 0-.715.315-.696.67 0 .33.308.603.659.603.377.001.714-.322.706-.668zm-22.898-1.887c-.01.342.307.637.676.637.385 0 .711-.295.721-.652.01-.349-.298-.627-.679-.627-.382 0-.718.295-.718.642zm-.547-2.04c0 .348.308.63.687.62.376-.006.701-.313.701-.669-.007-.347-.316-.62-.692-.62-.396.008-.696.299-.696.669zm19.57-41.038c-.006-.347-.322-.627-.691-.62-.378.008-.668.297-.66.656 0 .343.314.616.693.61.38-.008.67-.298.658-.646zm-4.151 10.691c.36 0 .686-.292.694-.63.007-.338-.298-.636-.67-.645-.38-.007-.686.259-.701.605-.03.37.279.677.677.67zm5.272-14.616c.008-.34-.296-.637-.666-.645-.374-.008-.697.276-.707.614-.005.34.3.644.67.654.37.008.694-.283.703-.623zM15.53 82.977c.386 0 .722-.298.722-.645 0-.338-.307-.63-.675-.63-.39 0-.716.294-.723.647-.003.353.289.628.675.628zm16.789-49.025c-.012-.342-.337-.631-.698-.622-.358 0-.675.298-.675.634-.008.342.306.63.669.64.377.008.71-.3.704-.652zM19.044 59.56a.772.772 0 00.31-.065.655.655 0 00.402-.597c0-.361-.323-.66-.718-.66-.399 0-.724.297-.724.66 0 .255.167.484.405.597.107.04.215.065.325.065zm7.559-10.866c.377.018.723-.29.723-.645 0-.338-.308-.63-.677-.634-.37 0-.686.282-.695.619-.02.345.279.645.649.66zm-8.671 3.894a9.88 9.88 0 001.792.16 9.37 9.37 0 002.335-.28c2.093-.526 3.553-1.72 3.553-3.113h-11.77c-.012 1.516 1.715 2.796 4.09 3.233zm3.427-3.565h.552v-3.845h-3.93v3.846h.616v.007h.09v-3.208h2.521v3.2h.15zm-3.457 13.646c0 .727.51 1.306 1.142 1.306.633 0 1.145-.587 1.145-1.306 0-.08-.01-.15-.02-.224l-.752-2.476c0-.048-.014-.089-.014-.131a1.19 1.19 0 01-.347.06c-.123 0-.248-.027-.355-.06 0 .041-.01.09-.01.13l-.751 2.477a.554.554 0 00-.038.224zm13.279-24.681c-.008-.338-.323-.626-.692-.618-.378 0-.694.313-.676.674.016.34.345.615.712.597.37-.015.668-.314.656-.653zm-11.229 6.577c3.84-.377 0-5.673 0-5.673s-3.843 5.296 0 5.673zm-1.954 38.897c0-.355-.296-.622-.683-.613-.388 0-.686.281-.694.627-.01.354.29.646.668.646.383.001.71-.307.71-.66zm13.511-1.404c-.39-.008-.723.305-.712.663.005.329.297.602.667.602.388 0 .71-.306.71-.66-.008-.331-.31-.605-.665-.605zm-2.464 1.49c-.008.348.31.63.677.62.379-.007.706-.322.696-.669-.009-.346-.332-.61-.704-.596-.358.018-.669.314-.669.645zm-.497-6.431c-.386.007-.695.305-.684.67.006.345.325.619.692.604.368-.026.668-.316.668-.652-.002-.347-.3-.628-.676-.622zm-1.021 1.153c-.01-.34-.336-.621-.706-.606-.36.017-.673.315-.673.654 0 .34.322.637.685.627.366-.014.694-.329.694-.676zm1.021 5.98c0-.347-.307-.637-.678-.628-.377.007-.702.323-.694.669 0 .355.317.622.694.608.37-.021.669-.31.678-.65zm6.527-12.93c-.376 0-.713.307-.7.656.008.329.316.601.66.612.376.007.71-.307.7-.663-.01-.332-.301-.605-.66-.605zm-.308 2.032c-.01-.33-.3-.611-.66-.611-.361-.01-.685.281-.702.618-.018.348.281.643.66.655.38 0 .71-.307.702-.662zm-8.894 10.72c-.376-.007-.713.292-.713.647 0 .339.276.603.636.626.384.018.718-.273.737-.626.018-.347-.281-.639-.66-.647zm7.392-2.747c-.378-.01-.718.298-.718.653 0 .322.289.605.649.611.386.01.719-.289.719-.642 0-.335-.287-.614-.65-.622zm.237-6.763c.008-.356-.293-.637-.67-.637-.37 0-.685.281-.694.627-.02.346.289.644.668.644.37 0 .687-.287.696-.634zm-1.975.555c-.388-.007-.724.292-.724.644 0 .334.3.614.653.623.385.009.719-.29.719-.654-.002-.33-.282-.605-.648-.613zm-.74 1.646c-.01-.347-.325-.622-.694-.606-.36.016-.67.306-.67.652 0 .348.298.63.677.63.38-.007.697-.322.687-.676zm-5.774 11.349c-.008-.073-.008-.137-.018-.201a1.372 1.372 0 01-.404.064c-.14 0-.28-.026-.403-.064-.009.064-.009.136-.018.201l-.872 2.854c-.017.088-.017.178-.017.265-.007.831.58 1.51 1.303 1.51.727 0 1.314-.678 1.314-1.51 0-.087-.005-.177-.017-.265l-.868-2.854zm-5.835-4.392c-.387-.01-.721.295-.721.643 0 .348.298.627.686.627.365 0 .686-.28.695-.627.015-.347-.284-.644-.66-.644zm-1.873-6.328a.73.73 0 00.306-.067.656.656 0 00.404-.596c0-.363-.326-.661-.721-.661-.396 0-.724.297-.724.661 0 .257.171.485.405.596a.929.929 0 00.33.067zm4.008 7.928c.384-.007.712-.311.692-.668-.015-.33-.316-.606-.666-.606-.388-.007-.712.292-.712.654 0 .356.3.63.686.62zm-3.641-7.525c0-.049-.009-.09-.009-.13a1.34 1.34 0 01-.348.056c-.124 0-.246-.026-.352-.057 0 .04-.009.089-.009.131l-.758 2.474a1.869 1.869 0 00-.016.225c0 .724.51 1.306 1.142 1.306.617 0 1.125-.588 1.125-1.306 0-.08-.008-.153-.018-.225l-.757-2.474zm2.068-1.201c-.368.016-.677.303-.677.642 0 .348.317.638.69.631.385-.009.71-.324.7-.67-.011-.347-.335-.62-.714-.603zm3.875 7.712c-.388 0-.715.316-.702.662 0 .33.304.606.656.614.379.009.715-.298.722-.644-.002-.357-.302-.632-.676-.632zm-.439-6.474c-.38.01-.703.332-.685.678.017.33.317.598.677.598.378 0 .701-.298.701-.654-.009-.338-.323-.63-.693-.622zm.58 9.063c0 .298.192.564.464.685a.908.908 0 00.724 0 .748.748 0 00.464-.685c0-.42-.37-.757-.826-.757-.455-.01-.826.337-.826.757zm-2.286-8.221c.386.013.722-.276.729-.64.009-.345-.296-.642-.67-.642-.377 0-.719.312-.709.66.002.33.287.605.65.622zm4.252-.163c-.009-.333-.296-.605-.65-.614-.376-.006-.712.29-.712.654-.01.347.299.628.677.628.377-.008.697-.31.685-.668zm-11.9-4.096c.017-.345-.254-.634-.64-.66-.388-.024-.738.259-.755.606-.027.337.273.646.641.669.385.023.729-.261.754-.615zm32.993-45.922c.369.007.688-.283.697-.627.007-.34-.301-.637-.67-.648-.358-.007-.686.293-.693.63-.01.347.299.645.666.645zm.443 1.934c.367-.008.667-.297.667-.645-.008-.345-.314-.619-.694-.619-.37.008-.675.298-.668.645 0 .336.325.63.694.619zm4.797 1.556c.009.341.335.63.705.621.361-.01.677-.313.667-.654-.008-.345-.337-.628-.704-.614-.366.01-.676.307-.668.647zm-4.877-6.046c-.01-.338-.336-.627-.694-.62-.369.008-.68.306-.67.648.011.337.326.624.694.619.352 0 .67-.308.67-.647zm5.986 9.971c-.01.348.292.637.658.644.381.008.697-.267.697-.61.008-.35-.291-.64-.66-.655-.371-.006-.684.267-.695.62zm-.519-1.956c-.01.344.32.652.702.652.359-.01.675-.298.668-.64 0-.336-.316-.626-.677-.634-.37 0-.687.29-.693.622zm-3.448-7.362a.741.741 0 00.265-.053.561.561 0 00.345-.503c0-.305-.273-.556-.61-.556-.332 0-.607.25-.607.556 0 .219.142.411.348.503a.598.598 0 00.26.052zm-.701 9.546c.36 0 .686-.297.677-.639 0-.336-.325-.634-.686-.63-.36 0-.684.309-.674.64 0 .34.314.629.683.629zm-.829-3.806c.37-.008.678-.3.663-.647-.01-.347-.315-.628-.694-.62-.371.008-.68.306-.669.647.017.344.331.628.7.62zm.416 1.87c.368-.008.676-.3.67-.648 0-.345-.32-.627-.689-.627-.369.008-.674.298-.665.648 0 .336.316.627.684.627zm5.699 3.787c-.01.34.286.639.657.654.369.018.698-.258.713-.605.018-.353-.298-.668-.677-.674-.371.006-.687.288-.694.625zm-5.552-8.77c0 .613.432 1.103.966 1.103.537 0 .97-.492.97-1.103 0-.063-.008-.127-.02-.193l-.641-2.095c0-.025 0-.04-.007-.065a.995.995 0 01-.31.047.996.996 0 01-.306-.047c0 .015 0 .04-.01.065l-.642 2.095v.193zm16.542 33.452c0 .727.508 1.306 1.146 1.306.63 0 1.14-.587 1.14-1.306 0-.08-.005-.15-.018-.224l-.755-2.476c0-.048-.008-.089-.008-.131a1.28 1.28 0 01-.353.06c-.121 0-.243-.027-.348-.06 0 .041-.013.09-.013.13l-.753 2.477a.577.577 0 00-.038.224zm2.006-13.314H59.13c-.01 1.516 1.713 2.796 4.082 3.233a10 10 0 001.796.16c.835 0 1.626-.096 2.335-.28 2.092-.526 3.553-1.72 3.553-3.113h-4.118zm-17.89-11.213c.373.008.686-.275.694-.62.011-.338-.304-.636-.668-.644-.358-.01-.685.283-.691.62-.012.346.297.636.665.644zm17.03 21.418a.772.772 0 00.305-.065.662.662 0 00.404-.597c0-.361-.326-.66-.72-.66-.398 0-.721.297-.721.66 0 .255.168.484.403.597.108.04.213.065.329.065zM63.27 49.023h.617v.008h.085v-3.208h2.524v3.2h.701v-3.845h-3.928v3.846zm11.08 16.186h.705v-4.067h-3.932v4.067h.705v-3.423h2.522v3.423zm-1.432-4.529c3.84-.378 0-5.674 0-5.674s-3.846 5.296 0 5.675zM65.01 38.892s-3.838 5.296 0 5.673c3.841-.377 0-5.673 0-5.673zm-8.53 5.772c.366.008.682-.276.693-.615.005-.353-.311-.663-.693-.653-.37 0-.68.284-.68.63 0 .339.31.629.68.638zm1.876 4.03c.371-.016.672-.305.663-.653-.01-.339-.326-.627-.698-.621-.376 0-.684.292-.684.629-.002.354.33.651.719.645zM30.61 39.98c.01-.356-.289-.638-.665-.645-.379-.009-.687.274-.695.62 0 .36.289.644.668.654.376.008.685-.273.692-.629zm25.1-.01c-.01-.352-.308-.627-.695-.618-.376-.01-.677.281-.665.638.008.352.316.628.692.628.378-.007.678-.291.668-.647zm.082 2.718c.387.007.713-.29.693-.652-.005-.346-.327-.62-.693-.62-.353 0-.669.297-.669.636-.001.345.308.628.67.636zm1.547 3.911c.384 0 .7-.298.68-.67-.016-.346-.332-.618-.7-.604-.388.009-.693.305-.678.645.01.337.329.629.698.629zM37.562 33.573c0-.348-.3-.64-.67-.648-.375-.007-.683.275-.683.627 0 .348.3.64.672.648.365 0 .68-.29.68-.627zm-3.206 7.933c.006.344.324.617.694.617.36-.008.675-.306.675-.636-.009-.34-.335-.628-.692-.62-.371 0-.691.297-.677.639zm.887 2.054c-.01-.342-.324-.64-.694-.63-.361.008-.686.316-.676.645.008.337.323.63.694.62.366-.007.676-.296.676-.635zm-.301-4.022c.007.347.325.628.693.62.38-.01.67-.298.67-.647-.01-.347-.327-.636-.695-.62-.37.009-.679.306-.668.647zm-1.492 5.979c0 .34.324.628.694.628.369 0 .675-.29.675-.635 0-.346-.315-.637-.683-.628-.362 0-.687.296-.687.635zm3.699-10.02c0-.337-.316-.635-.677-.635-.356 0-.685.298-.685.627 0 .34.316.637.677.637.369.01.685-.28.685-.63zm-9.356 8.544c.008.347.324.63.694.622.37-.009.674-.298.674-.637 0-.347-.304-.63-.674-.64-.387.002-.703.302-.694.655zm2.033-1.989c0-.34-.313-.628-.673-.636-.372 0-.678.281-.696.62-.009.361.319.66.703.652.369-.008.666-.3.666-.636zm6.908-4.546c-.009-.34-.334-.628-.695-.62-.367.007-.674.304-.668.644.01.347.326.63.696.62.361-.016.677-.306.667-.644zm-3.959-6.918c.367 0 .686-.282.686-.627 0-.345-.308-.628-.678-.636-.378 0-.677.283-.677.628-.01.354.291.635.669.635zm.922-5.449c-.38.009-.677.308-.661.652.018.347.332.622.702.616.369-.01.676-.306.66-.653-.008-.347-.332-.623-.7-.615zm15.623 15.02c.37.007.688-.282.696-.62.009-.341-.308-.647-.668-.654-.367-.01-.686.28-.694.619a.664.664 0 00.666.655zM33.24 28.477c.37 0 .674-.298.674-.647 0-.344-.303-.627-.682-.627-.382 0-.685.292-.677.635 0 .35.313.64.684.64zm17.803-.647c0 .348.3.637.676.648.372 0 .685-.29.693-.63.012-.348-.297-.637-.674-.637-.377-.008-.684.276-.695.62zm-.649 16.365c.368.01.693-.284.693-.619.012-.329-.314-.637-.673-.645-.363-.01-.684.29-.697.63 0 .338.3.627.677.634zm.422 1.942c.37 0 .697-.29.697-.627 0-.332-.327-.628-.688-.637-.368-.008-.684.284-.684.63 0 .345.305.634.675.634zm-.906-4.014c.368.007.685-.274.692-.617.011-.342-.307-.64-.676-.648-.36-.007-.682.282-.694.621-.006.338.31.636.677.644zm2.275-11.535c.378 0 .678-.282.678-.635 0-.355-.3-.628-.678-.628-.376.008-.683.29-.683.636 0 .346.307.627.683.627zm-.927-5.449c-.372-.008-.696.268-.713.615-.01.337.3.636.668.653.379.007.695-.269.703-.616.018-.344-.282-.645-.658-.652zm-14.635 6.545c-.008.346.292.64.66.647.368.008.686-.276.694-.62.009-.35-.298-.639-.67-.646-.356 0-.676.273-.684.619zm2.52-5.721c.009-.341-.307-.64-.67-.647-.358-.008-.681.283-.692.62-.009.34.309.636.67.647.368.006.692-.283.692-.62zm-4.348 3.254c0 .613.431 1.103.967 1.103s.966-.492.966-1.103c0-.063-.008-.127-.018-.193l-.64-2.095c0-.025 0-.04-.007-.065a1.018 1.018 0 01-.618 0c0 .015 0 .04-.01.065l-.64 2.095c.008.067 0 .131 0 .193zm2.24.565c-.007.348.294.637.668.645.371.01.685-.283.695-.62.012-.34-.297-.636-.67-.644-.378-.001-.684.274-.693.62zm.41-1.916c.01.345.327.627.697.627.368-.008.675-.298.667-.645-.007-.338-.336-.637-.694-.63-.361.01-.67.307-.67.648zm-1.682-1.276a.759.759 0 00.264-.053c.2-.09.342-.284.342-.503 0-.305-.274-.556-.606-.556-.336 0-.607.25-.607.556 0 .219.142.411.343.503a.608.608 0 00.264.052zm.315 53.734c.386.01.721-.289.721-.642 0-.34-.281-.614-.643-.622-.377-.008-.712.292-.722.645 0 .33.291.61.644.62zM21.462 59.478c-.378-.008-.722.298-.722.648 0 .346.309.628.684.628.39 0 .705-.3.698-.662-.01-.33-.302-.606-.66-.614z" fill="#000"/><path d="M70.768 68.984c.018.105.06.206.142.32.138.202.083.51.124.823-1.698-1.418-3.246-.887-4.188.571a21.227 21.227 0 01-.14-.273c-.555-1.178-1.482-2.013-2.777-2.48-1.219-.448-2.381-.188-3.25.692-.874.878-1.047 1.998-.467 3.07.421.78 1.084 1.32 1.969 1.605.672.216 1.327.169 1.864-.298.547-.475.674-1.081.537-1.83l-.309.428c-.386.513-.887.7-1.502.557-.677-.154-1.117-.59-1.177-1.187-.07-.686.19-1.257.79-1.667.56-.4 1.161-.308 1.769-.058 1.771.741 2.168 2.304.937 3.684-.995 1.111-2.847 1.644-4.332 1.186-.803-.25-1.422-.781-1.977-1.355a17.261 17.261 0 01-2.611-3.548c-.685-1.217-1.151-2.522-1.932-3.692a9.709 9.709 0 00-2.998-2.894c-1.566-.96-3.277-1.453-5.159-1.129-.675.113-1.317.41-1.977.62-.082-.235-.187-.522-.3-.838.336-.219.291-.445-.08-.636 1.318-.791 1.734-1.991 1.892-3.296a7.417 7.417 0 00-.018-1.637 1.778 1.778 0 01.176-1.023c.79-1.636 1.771-3.136 3.373-4.215.81-.552 1.715-.903 2.744-.84 1.193.073 2.094.663 2.714 1.556.532.76.966 1.573 1.382 2.385.605 1.187 1.114 2.42 2.048 3.435.341.379.73.742 1.15 1.04 1.212.862 2.514.872 3.759.049.926-.605 1.623-1.395 2.166-2.29.474-.783.86-1.611 1.302-2.418a.693.693 0 01.234-.275 1.5 1.5 0 00.239-.177 10.99 10.99 0 01-1.643.129c-.829 0-1.616-.086-2.356-.265.06.128.221.234.487.371.11.066.26.176.271.282.095 1.026.07 2.032-.403 2.991-.8 1.615-2.682 1.902-3.991.604-.226-.226-.411-.483-.6-.732-.777-1.097-1.166-2.346-1.574-3.588-.316-.974-.612-1.958-1.068-2.876-.309-.63-.793-1.225-1.327-1.727-1.495-1.393-3.621-1.525-5.38-.403-1.09.691-1.862 1.63-2.427 2.708-.527 1.009-1 2.032-1.495 3.055-.04.095-.093.2-.183.379-.133-.34-.254-.596-.344-.871-.334-1.032-.686-2.056-.975-3.105-.194-.717-.081-1.433.308-2.104.062-.101.106-.208.154-.312.338-.62.486-1.234-.164-1.757.509-.856.456-.961-.59-1.235 1.002-1.878 1.014-3.748-.043-5.626.836-1.014.87-1.418.185-2.38.14-.16.31-.322.415-.507.105-.203.227-.437.211-.637-.037-.306-.037-.54.246-.769.07-.055-.081-.344-.125-.529-.037.008-.07.008-.106.008.114-.154.23-.306.344-.459.73-1.008.895-2.111.553-3.248-.272-.885-.588-1.774-1.01-2.61-.405-.807-.49-1.6-.324-2.445.123-.619.254-1.25.408-1.86.12-.435.066-.79-.34-1.087-.085-.066-.14-.25-.105-.347.623-1.799 2.594-2.92 4.596-2.63 1.362.193 2.337 1.061 2.495 2.257.044.283.026.589-.063.865-.317 1.005-1.6 1.311-2.425.595a1.606 1.606 0 01-.543-.83c.343.025.674-.048.93-.298.957-.937-.352-2.314-1.538-1.787a1.641 1.641 0 00-.623.482c-.755.966-.624 2.44.194 3.345.947 1.032 2.706.822 3.787 0 2.573-1.967.649-5.538-2.39-5.683-.296-.018-.598 0-.896 0l-.055-.123c.39-.192.776-.385 1.16-.58.547-.266 1.106-1.789 1.638-2.087H34.787c.526.298 1.09 1.821 1.633 2.087.388.187.774.388 1.16.58-.018.04-.033.082-.054.123-.298 0-.596-.018-.895 0-1.871.087-3.322 1.265-3.568 2.908-.166 1.092.442 2.298 1.406 2.927.995.654 2.445.83 3.367.04 1.01-.862 1.205-2.506.402-3.537-.157-.2-.384-.38-.622-.482-1.104-.497-2.258.563-1.678 1.577.218.388.595.587 1.02.636a1.758 1.758 0 01-.503.695c-.835.708-2.113.402-2.425-.597a2.198 2.198 0 01-.064-.863c.162-1.203 1.134-2.062 2.497-2.256 2.004-.284 3.964.83 4.598 2.627.035.105-.019.281-.106.345-.405.293-.459.654-.344 1.09.16.614.291 1.24.41 1.865.18.845.081 1.632-.322 2.44-.421.83-.738 1.725-1.01 2.613-.344 1.144-.18 2.239.555 3.247.106.153.229.306.342.459-.036-.008-.07-.008-.106-.008-.044.186-.193.474-.123.53.28.226.28.46.246.767-.027.208.102.442.21.637.104.187.274.347.41.509-.69.96-.655 1.363.188 2.379-1.055 1.878-1.047 3.747-.044 5.626-1.047.273-1.1.379-.588 1.232-.654.524-.503 1.14-.17 1.758.052.106.095.21.16.314.385.668.508 1.38.309 2.104-.294 1.043-.645 2.07-.978 3.104-.087.275-.211.532-.342.871-.088-.178-.135-.284-.188-.379-.49-1.014-.965-2.047-1.492-3.054-.563-1.08-1.335-2.017-2.424-2.71-1.759-1.12-3.878-.99-5.38.403-.528.5-1.021 1.097-1.327 1.726-.458.919-.758 1.901-1.071 2.877-.397 1.241-.793 2.491-1.577 3.585-.184.26-.369.517-.598.735-1.316 1.29-3.188 1.007-3.937-.605-.473-.958-.5-1.966-.403-2.99.008-.105.158-.229.274-.283.266-.13.42-.241.485-.37-.738.176-1.54.265-2.355.265-.563 0-1.12-.049-1.646-.13.062.058.15.123.238.179a.76.76 0 01.239.275c.427.805.824 1.636 1.3 2.42.544.892 1.239 1.682 2.161 2.287 1.258.816 2.549.816 3.763-.047a7.546 7.546 0 001.15-1.04c.933-1.024 1.444-2.251 2.05-3.437.41-.813.85-1.628 1.38-2.385.614-.893 1.52-1.482 2.712-1.554 1.031-.057 1.937.29 2.745.836 1.598 1.082 2.583 2.58 3.375 4.217.157.329.219.652.175 1.024a7.33 7.33 0 00-.018 1.635c.16 1.307.563 2.507 1.89 3.296-.37.193-.404.426-.078.637-.114.324-.212.605-.299.839-.658-.21-1.301-.509-1.977-.62-1.89-.324-3.598.168-5.158 1.128a9.963 9.963 0 00-3.002 2.893c-.789 1.169-1.245 2.474-1.93 3.69a17.158 17.158 0 01-2.61 3.55c-.556.572-1.179 1.103-1.976 1.355-1.488.458-3.344-.075-4.335-1.186-1.229-1.378-.827-2.943.938-3.685.61-.248 1.205-.332 1.77.058.586.418.861.983.79 1.67-.064.597-.5 1.022-1.179 1.184-.607.145-1.113-.04-1.503-.558-.087-.122-.174-.241-.305-.426-.14.749-.012 1.352.534 1.83.537.467 1.196.515 1.863.297.888-.29 1.545-.83 1.967-1.604.584-1.072.405-2.192-.463-3.072-.873-.878-2.022-1.136-3.251-.692-1.293.466-2.224 1.305-2.777 2.482-.043.09-.09.172-.143.275-.939-1.46-2.487-1.991-4.182-.57.045-.317-.01-.622.123-.825a.744.744 0 00.14-.323 9.833 9.833 0 01-2.328.266c-.637 0-1.242-.056-1.83-.16.041.178.192.297.527.427.124.05.273.064.388.13.158.096.36.186.438.33.96 1.75 2.307 3.192 4.045 4.32 2.032 1.314 4.26 2.024 6.768 1.631 3.152-.494 5.473-2.17 7.17-4.588.775-1.105 1.292-2.322 1.96-3.473.986-1.701 2.143-3.345 3.785-4.58.707-.522 1.479-.933 2.4-1.064.88-.119 1.961.236 2.382.805-.386 0-.756-.005-1.125 0-.307 0-.694-.11-.868.205-.179.33.104.595.286.861.046.066.107.12.16.176.66.687 1.423 1.245 2.384 1.54.241.081.351.179.28.413-.23.756-.432 1.514-.67 2.264-.235.773-.718 1.403-1.395 1.894-.773.566-1.689.566-2.408.025-.685-.515-.915-1.514-.518-2.257.386-.718 1.65-.989 2.344-.507.354.248.503.715.345 1.096-.15.354-.578.598-.993.557a.87.87 0 01-.228-.049.605.605 0 00-.43-1.06c-.388 0-.597.24-.636.513-.137.484.256 1.055.907 1.144.737.106 1.405-.096 1.9-.638.66-.717.49-1.747-.344-2.264-.888-.54-2.154-.51-3.006.08-.879.612-1.195 1.611-.818 2.629.38 1.022 1.328 1.7 2.39 1.707.974 0 1.756-.393 2.469-.957.256-.202.505-.397.767-.598.106.088.254.218.377.322-.45.267-4.914 3.265-5.194 3.58-.245.274-.158.46.107.626.465.293 5.748.704 6.098.897-.186.232-.317.515-.016.756.244.202.2.324-.01.516-.246.224-.24.5.016.711.231.185.21.305.01.492-.272.242-.255.509.01.766.087.08.123.21.182.314-.043-.018-.094-.04-.138-.056-.308.21-.65.385-.898.645-.06.072.179.379.284.588-1.171.718-1.197 2.03.145 2.732-.227.331-.348.701-.032 1.015a.96.96 0 01.244.421 1.674 1.674 0 011.163 0 .808.808 0 01.244-.421c.316-.314.193-.684-.037-1.015 1.347-.701 1.321-2.014.154-2.732.103-.21.343-.525.279-.588-.245-.26-.59-.436-.896-.645-.042.015-.095.038-.141.056.06-.104.099-.234.185-.314.263-.257.283-.515.01-.766-.202-.188-.217-.307.01-.492.263-.21.263-.493.018-.712-.213-.19-.257-.313-.01-.515.3-.241.167-.524-.018-.756.35-.193 5.634-.605 6.101-.897.264-.159.35-.352.105-.625-.28-.316-4.75-3.314-5.195-3.581.123-.105.271-.234.378-.322.263.21.517.396.767.598.712.571 1.502.957 2.468.957 1.064 0 2.01-.677 2.388-1.707.38-1.018.072-2.017-.818-2.629-.849-.596-2.117-.628-3.006-.08-.838.516-1 1.547-.341 2.264.492.542 1.15.736 1.898.638.782-.096 1.205-.901.757-1.417a.402.402 0 00-.113-.098.69.69 0 00-.396-.113.61.61 0 00-.452 1.056 1.056 1.056 0 01-.185.032c-.411.037-.841-.2-.992-.558-.165-.389-.019-.845.343-1.097.695-.484 1.962-.21 2.35.509.394.741.166 1.74-.522 2.257-.722.533-1.633.54-2.407-.025-.674-.5-1.16-1.13-1.396-1.894-.238-.749-.44-1.51-.67-2.265-.07-.242.044-.34.282-.41.946-.306 1.724-.856 2.381-1.54.053-.059.114-.114.157-.18.193-.265.474-.531.291-.863-.177-.316-.562-.191-.868-.199H45.06c.423-.573 1.496-.93 2.381-.805.923.12 1.698.538 2.399 1.06 1.645 1.237 2.806 2.88 3.787 4.58.67 1.154 1.187 2.37 1.96 3.475 1.695 2.417 4.016 4.086 7.172 4.584 2.506.396 4.737-.312 6.77-1.627a11.835 11.835 0 004.04-4.32c.073-.145.282-.242.442-.333.113-.064.263-.08.387-.127.331-.134.481-.25.526-.426-.592.101-1.206.158-1.826.158-.81 0-1.6-.094-2.33-.262zM14.94 72.328c-.5-.548-.385-1.187.281-1.595.713-.437 1.643-.355 2.164.272.289.356.548.79.633 1.22.218 1.054.758 1.868 1.776 2.401.027.017.05.057.13.143-2.014-.323-3.7-1.03-4.984-2.44zm27.535-5.2h-.648c.041-.33.085-.653.122-.982h1.054c.044.329.08.653.123.983h-.651zm27.552 5.21c-1.282 1.4-2.971 2.11-4.993 2.432.081-.078.098-.12.143-.135 1.02-.533 1.555-1.346 1.774-2.402.087-.428.344-.864.634-1.216.519-.628 1.45-.71 2.16-.274.671.398.79 1.037.282 1.594z" fill="#000"/><path d="M31.809 54.466c0 .613.43 1.102.964 1.102.536 0 .966-.49.966-1.102 0-.066-.009-.131-.017-.195l-.642-2.095c0-.025 0-.043-.01-.063a1.02 1.02 0 01-.614 0v.063l-.642 2.095c-.002.064-.005.13-.005.195zm38.183 26.383c0 .348.337.643.725.643.384 0 .674-.273.674-.625-.008-.355-.336-.648-.723-.648-.367 0-.683.292-.676.63zm7.681-7.335c0-.083-.01-.154-.018-.226L76.9 70.81c0-.049-.01-.09-.01-.128a1.293 1.293 0 01-.351.057c-.12 0-.245-.025-.35-.057 0 .037-.008.09-.008.128l-.756 2.477a.618.618 0 00-.034.226c0 .725.507 1.306 1.141 1.306.635 0 1.141-.59 1.141-1.306zM29.618 63.14c.01-.361-.28-.638-.669-.638-.37 0-.687.292-.695.63-.01.347.306.637.674.645.373-.008.68-.29.69-.638zm-4.958.192c-.007-.331-.316-.597-.675-.605-.386 0-.711.3-.704.654.01.347.318.628.695.628.377-.006.702-.33.685-.677zm7.137-1.345c.012-.348-.3-.638-.677-.638-.377 0-.684.283-.684.628-.008.347.298.645.669.64.367.005.692-.293.692-.63zm-4.817 1.6c-.008-.344-.323-.624-.693-.619-.36.01-.668.307-.676.646 0 .347.309.636.676.636.378 0 .705-.303.694-.663zm-5.298-1.61c-.01.342.3.645.66.655.378.008.712-.298.712-.655 0-.347-.309-.628-.685-.628-.371 0-.678.283-.687.628zm50.673 19.75c-.376.009-.703.298-.703.66 0 .258.166.486.404.598a.753.753 0 00.614 0 .658.658 0 00.406-.598c.002-.36-.327-.66-.721-.66zm-2.25.622c-.01-.353-.334-.646-.724-.646-.366 0-.681.293-.674.629 0 .355.334.645.723.645.384 0 .675-.275.675-.628zm.695-3.371c.008.356.337.654.721.654.369 0 .685-.297.675-.638-.008-.347-.34-.65-.72-.65-.376.006-.675.288-.675.634zm-2.02 1.291l-.756-2.474c0-.049-.013-.09-.013-.13-.108.03-.226.056-.347.056-.123 0-.248-.026-.353-.057 0 .04-.01.089-.01.131l-.756 2.474c-.01.072-.018.152-.018.225 0 .724.509 1.306 1.145 1.306.607 0 1.124-.588 1.124-1.306.001-.08-.01-.154-.017-.225zm-1.127-2.877a.755.755 0 00.309-.067.655.655 0 00.403-.596c0-.363-.324-.661-.72-.661-.395 0-.721.297-.721.661 0 .257.165.485.402.596.11.041.217.067.327.067zm5.078 5.932a1.273 1.273 0 01-.348.056 1.24 1.24 0 01-.353-.056c0 .04-.008.087-.008.13l-.755 2.475c-.008.072-.02.153-.02.226-.018.724.492 1.306 1.124 1.306.637 0 1.144-.588 1.144-1.306 0-.081-.008-.154-.018-.226l-.753-2.475c0-.05-.013-.09-.013-.13zm-.965-9.57c-.374.027-.658.316-.627.66.023.355.366.639.753.615.37-.023.66-.33.642-.669-.027-.347-.379-.621-.768-.606zm.287 2.524c-.379-.01-.687.274-.697.62-.008.347.326.662.705.669.379.008.674-.264.687-.621 0-.37-.308-.66-.695-.668zM50.597 58.576c-.37 0-.677.291-.67.645.014.355.31.619.688.619.38 0 .677-.28.667-.635-.002-.339-.316-.63-.685-.63zm17.056 24.273c-.384-.01-.692.257-.692.613 0 .353.326.661.713.661.376 0 .677-.291.665-.646-.007-.347-.304-.62-.686-.628zm-12.315-19.71c.01.348.319.63.687.63.369 0 .687-.297.677-.648-.01-.337-.326-.628-.695-.628-.385.009-.675.291-.669.646zm-3.002-2.984c-.37-.007-.695.292-.695.63s.316.637.686.645c.379.007.687-.274.687-.627 0-.338-.309-.64-.678-.648zm.828 1.832c.01.337.324.63.695.63.369 0 .675-.294.668-.64-.006-.345-.316-.628-.687-.628-.384 0-.686.29-.676.639zm22.641 7.761a.67.67 0 00.403.597c.105.041.21.066.324.066.113 0 .22-.025.308-.066a.653.653 0 00.402-.597c0-.365-.324-.66-.72-.66-.394 0-.717.295-.717.66zm-28.838-14.09c.017.338.35.62.712.604.367-.008.668-.306.651-.653-.027-.347-.344-.622-.714-.605-.369.008-.664.315-.649.654zm31.829 9.867H67.021c.01 1.442 1.566 2.677 3.764 3.17a10.03 10.03 0 002.125.222c.8 0 1.576-.095 2.268-.255 2.126-.509 3.618-1.724 3.618-3.137zm-30.39-7.947c0 .346.306.637.677.644.37.008.685-.282.694-.62 0-.338-.318-.636-.675-.644-.38-.011-.696.282-.696.62zm3.779-5.741a.684.684 0 00.265-.055.561.561 0 00.343-.502c0-.306-.273-.555-.608-.555-.334 0-.605.248-.605.555 0 .218.138.412.342.502.08.032.17.056.263.056zm6.48 11.131c-.371-.005-.687.276-.7.62-.008.358.318.662.7.662.369 0 .674-.29.668-.636.008-.339-.3-.635-.668-.646zm-20.675-7.31c.02-.34-.288-.646-.648-.653-.37-.01-.687.265-.702.605-.02.346.272.644.65.652.352.018.684-.266.7-.604zm-1.438 1.919c0-.337-.326-.629-.695-.619-.36.008-.68.306-.68.644 0 .339.33.628.698.62.37-.008.677-.3.677-.645zm-3.776-5.74a.71.71 0 00.263-.055.562.562 0 00.345-.502c0-.306-.27-.555-.608-.555-.333 0-.608.248-.608.555 0 .218.14.412.344.502a.678.678 0 00.264.056zm1.563 8.003c.377 0 .675-.271.683-.62.011-.346-.298-.637-.667-.644-.362 0-.678.291-.687.63-.006.355.283.634.67.634zm-2.392.963c0 .353.308.627.686.627.37-.008.685-.307.685-.645 0-.34-.325-.637-.694-.63-.369.008-.677.31-.677.648zm32.272-.669c0-.356-.347-.655-.725-.648-.358.01-.647.283-.66.616-.008.363.308.669.698.661.368-.001.687-.291.687-.63zm-3.929 3.198c-.018.347.318.67.684.677.369.01.685-.282.693-.628.013-.365-.316-.663-.7-.654-.359.008-.66.274-.677.605zm1.608-1.355c0 .347.345.663.713.655.361-.01.668-.308.658-.655-.008-.347-.313-.62-.695-.628-.357 0-.676.283-.676.628zm-8.762-7.707l-.641-2.095c0-.025 0-.043-.01-.063a.999.999 0 01-.615 0c0 .015 0 .038-.009.063l-.64 2.095c-.01.065-.02.13-.02.195 0 .613.432 1.102.969 1.102.537 0 .964-.49.964-1.102a.435.435 0 00.002-.195zm5.284 30.447c.016.353.361.645.74.627.358-.015.63-.29.63-.627 0-.355-.332-.654-.71-.646-.37.009-.67.31-.66.646zm1.465-6.819c-.351.009-.65.281-.65.614-.01.356.308.66.692.67.379 0 .68-.283.68-.629a.712.712 0 00-.722-.655zm-.34 8.997c0 .298.193.564.464.684a.86.86 0 00.36.075.877.877 0 00.359-.075.746.746 0 00.466-.684c0-.42-.368-.757-.826-.757-.457 0-.823.337-.823.757zm-3.622-3.347c0-.331-.306-.627-.668-.645-.38-.015-.693.25-.706.596-.017.349.309.67.685.67.371.01.689-.282.689-.62zm9.202.824c.008.34.324.618.693.618.381 0 .687-.28.687-.627 0-.353-.344-.653-.72-.644-.377.007-.67.297-.66.653zm-15.621-4.668c0-.354-.332-.66-.718-.645a.635.635 0 00-.636.621c0 .354.336.66.713.643.354-.008.65-.288.641-.62zm6.911-2.594c-.376-.008-.677.273-.677.618 0 .346.3.636.67.654.376.017.687-.258.692-.604.01-.362-.298-.661-.685-.667zm-.003 7.14c.008.348.309.628.68.647.373.016.692-.251.692-.607.008-.353-.319-.662-.692-.67-.37-.007-.688.285-.68.63zm1.734-6.594c-.368-.016-.695.265-.702.605-.01.347.326.67.702.67.353.007.677-.292.677-.62 0-.341-.318-.638-.677-.655zm-8.833 3.217c-.017.346.315.67.696.67.35 0 .66-.274.667-.604.01-.355-.316-.67-.695-.67-.353 0-.662.273-.668.604zm1.531-8.132c-.35.005-.653.281-.66.611-.01.355.325.67.7.663.381-.011.678-.307.66-.655-.015-.338-.343-.63-.7-.619zm.199 9.197c0 .36.335.66.723.65.36-.007.648-.29.648-.62 0-.355-.342-.66-.721-.653-.358.01-.65.292-.65.623zm4.494-5.136c0-.339-.309-.637-.668-.652-.371-.018-.685.257-.695.603-.008.356.306.663.685.67.376.009.678-.275.678-.62zm-5.664-5.482c-.36 0-.647.274-.656.605 0 .354.325.67.701.663.352-.01.653-.283.662-.612.006-.35-.325-.662-.707-.656zm3.588 10.738c-.358 0-.658.283-.668.605-.006.352.326.66.705.66.359 0 .658-.273.668-.602.008-.358-.329-.67-.705-.663zm-1.335-8.133c-.38 0-.675.281-.669.637.01.347.326.635.696.635.368 0 .686-.299.666-.645-.007-.346-.324-.627-.693-.627zm9.218 10.381c-.386 0-.684.275-.674.63.008.354.34.653.72.644.349-.007.65-.284.661-.614.006-.344-.328-.66-.707-.66zM42.474 86.5c.187 0 .352-.04.508-.106.4-.179.67-.538.67-.967 0-.402-.243-.757-.595-.942a1.215 1.215 0 00-.57-.137 1.21 1.21 0 00-.573.137c-.36.186-.598.53-.598.942 0 .429.273.799.67.967.138.065.314.105.488.105zm20.488-1.847c-.02.356.306.662.692.67.39.008.687-.265.687-.62 0-.354-.326-.654-.712-.654-.361-.001-.657.275-.667.604zm2.248-8.059c-.38-.02-.702.256-.71.604-.013.347.316.67.703.67.369.006.682-.285.682-.631 0-.338-.306-.627-.674-.643zm-17.751.709c-.352 0-.65.282-.66.604-.017.37.299.67.694.661.36 0 .65-.264.658-.603.009-.357-.315-.662-.693-.662zm-3.125 14.269c0-.132-.009-.251-.024-.374l-1.23-4.046h-.007c-.011-.153-.02-.295-.037-.427-.176.066-.36.098-.563.098-.201 0-.385-.032-.562-.098a8.262 8.262 0 01-.034.427h-.01l-1.24 4.046c-.007.123-.018.249-.018.374 0 1.174.835 2.133 1.863 2.133 1.027 0 1.862-.96 1.862-2.133zm19.092-14.18c-.366 0-.675.297-.668.642.01.364.344.653.732.64.358-.018.648-.3.648-.622 0-.348-.34-.66-.712-.66zm-24.643-1.668c-.358.017-.668.315-.658.651 0 .348.325.62.694.606.36-.015.668-.313.66-.652-.011-.348-.327-.622-.696-.605zm-.617 2.197c-.005-.338-.305-.611-.655-.611-.38 0-.704.303-.696.659.011.341.3.598.659.606.386 0 .706-.298.692-.654zM53.5 76.383c.358-.01.647-.29.647-.623 0-.352-.334-.659-.72-.643-.359.007-.652.282-.652.621 0 .356.336.662.725.645zm-7.325-.659c-.376-.017-.682.257-.692.605-.01.339.298.637.659.652.368.016.694-.268.703-.606 0-.33-.306-.636-.67-.651zm14.626 12.388c-.008-.073-.008-.137-.02-.201a1.382 1.382 0 01-.403.064c-.142 0-.284-.026-.406-.064-.01.064-.01.136-.02.201l-.867 2.854c-.018.088-.018.178-.018.265-.02.831.58 1.51 1.302 1.51.727 0 1.317-.678 1.317-1.51a1.83 1.83 0 00-.02-.265l-.865-2.854zm.983-10.27c-.368-.009-.692.275-.692.622-.01.347.324.654.713.654.348 0 .658-.277.665-.596.02-.349-.31-.672-.686-.68zM45.933 9.389h-4.316v1.234h4.316V9.39zm-6.934 0h-4.317v1.234h4.317V9.39zm13.874 0h-4.318v1.234h4.318V9.39zm34.68 0h-4.317v1.234h4.317V9.39zm-69.363 0h-4.317v1.234h4.317V9.39zm6.935 0h-4.316v1.234h4.316V9.39zm55.491 0h-4.317v1.234h4.317V9.39zm-76.299 0H0v1.234h4.317V9.39zm69.36 0h-4.318v1.234h4.318V9.39zm-6.934 0h-4.317v1.234h4.317V9.39zm-34.682 0h-4.317v1.234h4.317V9.39zm69.364 0h-4.318v1.234h4.318V9.39zm-41.618 0h-4.315v1.234h4.315V9.39zm20.809 86.782h-4.317v1.235h4.317V96.17zm-41.617 0h-4.317v1.235h4.317V96.17zm62.426 0h-4.318v1.235h4.318V96.17zm-13.872 0h-4.317v1.235h4.317V96.17zm-20.81 0h-4.317v1.235h4.317V96.17zm-13.87 0h-4.318v1.235h4.318V96.17zm-27.748 0h-4.316v1.235h4.316V96.17zm-6.935 0h-4.317v1.235h4.317V96.17zm27.743 0h-4.316v1.235h4.316V96.17zm-13.872 0h-4.317v1.235h4.317V96.17zm-20.808 0H6.937v1.235h4.316V96.17zm48.554 0h-4.315v1.235h4.315V96.17zm13.87 0h-4.318v1.235h4.318V96.17zm-69.36 0H0v1.235h4.317V96.17zm78.181-82.299h-1.234v4.317h1.234v-4.317zm0 6.938h-1.234v4.316h1.234V20.81zm0-13.872h-1.234v4.315h1.234V6.937zm0-6.938h-1.234v4.317h1.234V0zm0 27.745h-1.234v4.317h1.234v-4.317zm0 41.617h-1.234v4.318h1.234v-4.318zm0 20.811h-1.234v4.316h1.234v-4.316zm0 6.935h-1.234v4.317h1.234v-4.317zm0-20.808h-1.234v4.316h1.234V76.3zm0-41.619h-1.234v4.317h1.234v-4.317zm0 69.363h-1.234v4.317h1.234v-4.317zm0-20.809h-1.234v4.317h1.234v-4.317zm0-41.616h-1.234v4.316h1.234v-4.316zm0 20.807h-1.234v4.317h1.234v-4.317zm0-13.872h-1.234v4.317h1.234v-4.317zm0 6.938h-1.234v4.316h1.234v-4.316zm12.809-39.307h-1.235V20.5h1.235v-4.316zm0 13.872h-1.235v4.316h1.235v-4.316zM94.07 13.566h1.235V9.249H94.07v.14h-3.898v1.234h3.898v2.943zm1.237 9.554h-1.235v4.317h1.235V23.12zm0 13.872h-1.235v4.317h1.235v-4.317zm0 13.874h-1.235v4.316h1.235v-4.316zm0 34.681h-1.235v4.316h1.235v-4.316zm0-6.936h-1.235v4.317h1.235v-4.317zm-1.237 17.56h-3.898v1.234h4.315V96.8h.818v-4.318H94.07v3.689zM95.307 57.8h-1.235v4.318h1.235v-4.317zm0 13.873h-1.235v4.317h1.235v-4.317zM7.517 14.435a.627.627 0 00.628-.628v-3.184h3.107V9.388H8.145V2.844a.627.627 0 10-1.256 0v10.962c0 .348.281.63.628.63zm82.006 34.802h14.159a.618.618 0 00.616-.616.619.619 0 00-.616-.617h-8.376V43.93H94.07v4.074h-4.548a.618.618 0 00-.617.617c0 .339.278.616.617.616zM103.682 65.8h-8.376v-1.062H94.07v1.063h-4.548a.618.618 0 00-.617.616c0 .34.279.617.617.617h4.548v2.019h1.235v-2.02h8.376a.618.618 0 00.616-.616.618.618 0 00-.616-.616z" fill="#000"/></svg>