<svg width="59" height="59" fill="none" xmlns="http://www.w3.org/2000/svg"><path d="M57.214 30.817a2.25 2.25 0 000-3.182l-5.353-5.353a1.75 1.75 0 01-.513-1.238V7.026a2.25 2.25 0 00-2.25-2.25h-4.842a2.25 2.25 0 00-2.25 2.25v1.176c0 1.56-1.885 2.34-2.987 1.238l-8.202-8.203a2.25 2.25 0 00-3.182 0L1.237 27.635a2.25 2.25 0 000 3.182l1.126 1.125c.7.7 1.834.7 2.534 0 .814-.814 2.206-.238 2.206.914v23.223a2.25 2.25 0 002.25 2.25h39.745a2.25 2.25 0 002.25-2.25V32.856c0-1.152 1.392-1.728 2.206-.914.7.7 1.835.7 2.535 0l1.125-1.125zM3.294 29.56a.474.474 0 010-.67L27.989 4.197a1.75 1.75 0 012.475 0l10.064 10.064c1.417 1.417 3.84.413 3.84-1.591V8.888c0-.967.784-1.75 1.75-1.75h1.12c.966 0 1.75.783 1.75 1.75v12.9c0 .598.237 1.17.659 1.592l5.51 5.51a.474.474 0 11-.67.67L30.816 5.892a2.25 2.25 0 00-3.181 0l-23.67 23.67a.474.474 0 01-.67 0zm6.17-2.17v-.016L27.988 8.851a1.75 1.75 0 012.475 0l18.524 18.524v26.843a1.75 1.75 0 01-1.75 1.75H11.214a1.75 1.75 0 01-1.75-1.75V27.39z" fill="#000" stroke="#000" stroke-width=".5"/><path d="M43.53 38.533c0-.22-.022-.436-.062-.644-.197-1.017-.159-2.226.018-3.263a3.269 3.269 0 00-3.231-3.79h-5.568v-6.264a4.421 4.421 0 00-4.438-4.439 1.899 1.899 0 00-1.879 1.88v3.939c0 .199-.032.394-.1.574a13.713 13.713 0 01-4.058 5.726.294.294 0 00-.105-.019h-6.936a2.25 2.25 0 00-2.25 2.25v13.684a2.25 2.25 0 002.25 2.25h6.62a.659.659 0 00.658-.659c0-.112.127-.207.253-.153 1.25.531 2.573.812 3.965.812h9.075a3.05 3.05 0 003.042-3.042c0-.594.26-1.209.694-1.602a3.512 3.512 0 001.167-2.586c0-1.081.249-2.354.643-3.364a3.56 3.56 0 00.242-1.29zm-21.442 9.523h-3.056a1.75 1.75 0 01-1.75-1.75v-9.961c0-.967.784-1.75 1.75-1.75h1.306c.966 0 1.75.783 1.75 1.75v11.71zm17.003-3.723h-.465a1.18 1.18 0 00-1.18 1.18c0 .34.165.626.334.858a6.7 6.7 0 00.222.285l.041.052c.087.107.163.205.225.3a.674.674 0 01.108.367c0 .374-.307.68-.68.68H28.62a7.798 7.798 0 01-3.419-.79c-.505-.245-.798-.792-.798-1.39v-9.911c0-.535.244-1.04.663-1.372l.358-.284s0 0 0 0c2.46-1.939 4.256-4.54 5.248-7.517.04-.117.06-.241.06-.365v-1.927c0-.521.268-.962.569-1.155a.537.537 0 01.403-.095c.112.026.245.11.364.326.164.295.258.634.258.997v6.282A2.336 2.336 0 0034.67 33.2h5.585c.513 0 .913.4.913.913s-.4.913-.913.913a.483.483 0 00-.483.483v.698c0 .336.151.617.338.844.186.225.422.416.626.574.264.203.432.526.432.909 0 .653-.493 1.146-1.146 1.146h-.442a.272.272 0 00-.138.037 6.107 6.107 0 01-.083-.011.455.455 0 00-.518.458v.697c0 .336.152.617.338.843.186.225.423.417.626.574.264.204.432.527.432.91 0 .653-.493 1.146-1.146 1.146z" fill="#000" stroke="#000" stroke-width=".5"/></svg>