<svg width="61" height="56" fill="none" xmlns="http://www.w3.org/2000/svg"><path d="M49.225 14.699a1 1 0 01-.425-.819V2.5c0-.663-.269-1.298-.745-1.767A2.566 2.566 0 0046.258 0H14.742c-.674 0-1.32.264-1.797.733A2.482 2.482 0 0012.2 2.5v11.38a1 1 0 01-.425.819L.425 22.672A1 1 0 000 23.49V55a1 1 0 001 1h59a1 1 0 001-1V23.49a1 1 0 00-.425-.818L49.225 14.7zm5.18 8.554a1 1 0 01-.034 1.66l-4.03 2.591a1 1 0 01-1.541-.84V21.24a1 1 0 011.575-.818l4.03 2.831zM16.267 5a1 1 0 011-1h26.466a1 1 0 011 1v25.564a1 1 0 01-.459.842l-6.322 4.066a1 1 0 01-.995.05l-4.97-2.535a1 1 0 00-.882-.012l-5.524 2.623a1 1 0 01-.942-.045l-7.885-4.709a1 1 0 01-.487-.858V5zm14.772 32.447a1 1 0 01.884.013l24.465 12.478a1 1 0 01.545.89V51a1 1 0 01-1 1H5.067a1 1 0 01-1-1v-.112a1 1 0 01.57-.904L31.04 37.447zM4.067 29.71a1 1 0 011.512-.859l13.547 8.09a1 1 0 01-.083 1.763L5.496 45.135a1 1 0 01-1.43-.903V29.709zm39.096 8.979a1 1 0 01-.086-1.732l12.315-7.922a1 1 0 011.541.841v14.203a1 1 0 01-1.454.89l-12.316-6.28zM10.625 20.42a1 1 0 011.575.819v5.123a1 1 0 01-1.513.858l-3.941-2.354a1 1 0 01-.062-1.676l3.941-2.77z" fill="#000"/></svg>