<svg width="58" height="57" fill="none" xmlns="http://www.w3.org/2000/svg"><path d="M12.242 27.927v16.315h16.77l-3.497-3.403h-9.776v-9.51l-3.497-3.402z" fill="#000"/><path d="M57.483 53.24l-5.02-4.95v4.457H3.499v-7.06h3.497v-2.722H3.498V31.652h3.497V28.93H3.498V18.043h3.497V15.32H3.498V5.81l27.875 26.964v-4.797L2.99.503a1.764 1.764 0 00-.897-.47A1.794 1.794 0 001.078.13C.758.26.484.48.291.76A1.668 1.668 0 000 1.712V54.45c0 .45.184.883.512 1.202.328.32.773.499 1.237.499H56.24c.347.002.688-.097.977-.284.29-.187.515-.453.648-.765s.168-.656.1-.987a1.687 1.687 0 00-.483-.873z" fill="#000"/><path d="M38.473 49.345h6.995c.928 0 1.817-.358 2.473-.996a3.356 3.356 0 001.025-2.406V13.11l-4.022-7.197a3.452 3.452 0 00-1.302-1.257 3.574 3.574 0 00-1.776-.444 3.57 3.57 0 00-1.802.503 3.441 3.441 0 00-1.276 1.335l-3.812 7.094v32.799c0 .902.368 1.768 1.024 2.406a3.548 3.548 0 002.473.996zm0-35.385l3.393-6.413 3.602 6.43v25.161h-6.995V13.96zm0 27.951h6.995v4.15h-6.995v-4.15z" fill="#000"/></svg>