<svg width="56" height="56" fill="none" xmlns="http://www.w3.org/2000/svg"><path d="M24.576 47.939h0a.366.366 0 01-.012-.022l-.009-.016v-.002l-.008-.012a1.038 1.038 0 01-.13-.26m.159.312l-.16-.312m.16.312l.006.008c.052.078.112.14.165.19.05.051.11.11.188.163h0l.009.006.034.019.005.002.016.01c.058.037.149.095.254.128h.001c.29.09.584.059.827-.067l3.062-.7c.435-.1.724-.445.789-.852l9.633-9.633V53.06H2.951v-38.3h10.716c.603 0 1.093-.49 1.093-1.093V2.95h24.805v26.417l-6.92 6.92a.992.992 0 00-.422-.096h-21.93a1.094 1.094 0 000 2.187h20.262l-4.587 4.586c-.375.085-.69.364-.784.774l-.7 3.062m.092 1.138l-.092-1.138m-.068.826a1.098 1.098 0 01.068-.826m-.068.826l.068-.826m30.19-27.431l-1.189-1.19a1.933 1.933 0 00-2.733 0l-9 9.001V2.701c0-1.07-.867-1.937-1.937-1.937H14.51c-.105 0-.208-.003-.315-.007l-.103-.003a4.507 4.507 0 00-.426.002c-.279.018-.578.085-.81.316L1.072 12.856c-.229.23-.297.513-.316.79a4.605 4.605 0 00-.002.424l.003.096c.004.113.007.226.007.344v38.8c0 1.07.867 1.937 1.937 1.937h37.114c1.07 0 1.937-.867 1.937-1.937V35.026l12.923-12.923a1.933 1.933 0 000-2.733zm-50.18-6.797l8.08-8.08v8.08h-8.08zm48.46 8.163L28.09 45.599l-1.05.24.255-1.118 24.822-24.82.835.835zm-42.662.772h21.93a1.094 1.094 0 000-2.187h-21.93a1.094 1.094 0 000 2.187zm0 8.435h21.93a1.094 1.094 0 000-2.187h-21.93a1.094 1.094 0 000 2.187z" fill="#000" stroke="#000" stroke-width=".5"/></svg>