<svg width="42" height="42" fill="none" xmlns="http://www.w3.org/2000/svg"><rect x=".246" width="41.303" height="41.303" rx="5" fill="#BDBDBD"/><path d="M21.483 7.075c1.454-.023 2.9-.01 4.345-.023.087 1.735.699 3.502 1.944 4.728 1.243 1.258 3 1.833 4.71 2.028v4.564c-1.602-.054-3.212-.394-4.667-1.098-.633-.292-1.223-.669-1.8-1.054-.008 3.312.012 6.62-.022 9.917-.086 1.585-.599 3.162-1.502 4.467-1.454 2.174-3.977 3.59-6.568 3.635-1.589.093-3.177-.35-4.531-1.164-2.244-1.35-3.824-3.82-4.054-6.473a19.335 19.335 0 01-.013-1.686c.2-2.157 1.246-4.22 2.87-5.623 1.84-1.635 4.417-2.413 6.83-1.953.023 1.68-.042 3.356-.042 5.035-1.103-.364-2.392-.262-3.355.42a3.916 3.916 0 00-1.516 1.984c-.23.575-.164 1.213-.15 1.823.263 1.86 2.017 3.423 3.889 3.254 1.24-.013 2.43-.748 3.077-1.823.209-.377.443-.762.456-1.205.109-2.027.066-4.046.079-6.073.009-4.569-.014-9.125.02-13.68z" fill="#fff"/></svg>