<svg width="86" height="86" fill="none" xmlns="http://www.w3.org/2000/svg"><path d="M4.204 0C1.816.287 0 2.389 0 4.778v4.778h9.556V0H4.204zm14.907 0v9.556h9.556V0H19.11zm19.111 0v9.556h9.556V0h-9.556zm19.111 0v9.556h9.556V0h-9.556zm19.111 0v9.556H86V4.204C85.713 1.816 83.611 0 81.222 0h-4.778zM0 19.111v9.556h9.556V19.11H0zm76.444 0v9.556H86V19.11h-9.556zM0 38.222v9.556h9.556v-9.556H0zM77.926 43a2.59 2.59 0 00-1.72.669l-7.454 7.501-4.586-4.587-3.393 3.393 3.393 3.392-21.31 21.309V86h11.372l21.26-21.309 3.345 3.392 3.44-3.392-4.586-4.587L85.14 52.7c.86-.956.86-2.532 0-3.44l-5.59-5.59a2.275 2.275 0 00-1.624-.67zM0 57.333v9.556h9.556v-9.556H0zm66.889 0l4.634 4.635-19.302 19.254-4.587-4.586L66.89 57.333zM0 76.444v5.352C.287 84.184 2.389 86 4.778 86h4.778v-9.556H0zm19.111 0V86h9.556v-9.556H19.11z" fill="#000"/></svg>