<svg width="125" height="123" fill="none" xmlns="http://www.w3.org/2000/svg"><path d="M117 87c-1.1 0-2.4.2-3.8.6L91.9 95v-1.4c0-.2-.1-.5-.1-.7v-.1c-.9-3.9-4.5-6.8-8.7-6.8H66.2c-7.8-9.9-25.9-10-26.7-10h-13v-4.8H0v44.101h26.5v-4.2l32.8 10.4c.2.1 5.1 1.5 10.7 1.5 3.4 0 6.4-.5 9-1.6 6.6-2.7 33.1-16.9 41.1-21.2 2.2-1.2 5.2-4.6 3.5-8.7-1.3-3-3.5-4.5-6.6-4.5zm-94.5 24.201H4v-36.1h18.5v36.1zm95.6-14.6c-7.9 4.3-34.3 18.3-40.7 21-2 .8-4.5 1.3-7.4 1.3-5.1 0-9.6-1.3-9.6-1.3l-34-10.7v-27.1h13c.2 0 17.8.1 24 9.2l.6.9h18.9c2.5 0 4.6 1.8 4.9 4.2v.6c0 .2 0 .4-.1.6v.3c0 .2-.1.4-.2.6 0 .1 0 .2-.1.2-.1.3-.2.5-.4.7-.8 1.2-2.2 2-3.8 2h-26v4h26c2.7 0 5.2-1.3 6.8-3.3l24.3-8.4c1-.3 1.9-.4 2.7-.4 1.5 0 2.2.5 2.8 1.9.8 1.9-1.1 3.4-1.7 3.7zM103.398 69.8V32l4.7 4.7 2.8-2.8-7.5-7.5V6.2h-12.1v8L76.998 0l-33.9 33.9 2.8 2.8 4.7-4.7v37.8h52.8zm-8.1-45.9V10.2h4.1v55.6h-44.8V28l22.4-22.4 18.3 18.3z" fill="#000"/></svg>