<svg width="136" height="112" fill="none" xmlns="http://www.w3.org/2000/svg"><path d="M61.849 21.779l-48.49 27.69h14.426v35.544h7.926V56.508h20.562v28.505h39.64V49.47h14.427L61.849 21.779zm13.679 49.144H62.062V56.83h13.466v14.093zm14.987 0H77.049V56.83h13.468v14.093zm11.251 18.149H21.937v4.019h-5.134v1.495h5.229v-.748h3.174v.748h5.227v-.748h3.175v.748h5.226v-.748h3.175v.748h5.226v-.748h3.174v.748h5.228v-.748h3.174v.748h5.229v-.748h3.172v.748h5.23v-.748h3.172v.748h5.227v-.748h3.176v.748h5.226v-.748h3.175v.748h5.227v-.748h3.172v.748h5.231v-1.495h-4.282v-4.019zM55.634 13.35h-5.228v1.494h5.228V13.35zm-16.801 0h-5.227v1.494h5.227V13.35zm25.205 0h-5.23v1.494h5.23V13.35zm-58.81 0H0v1.494h5.228V13.35zm42.008 0h-5.228v1.494h5.227V13.35zm58.812 0h-5.23v1.494h5.23V13.35zm25.202 0h-5.227v1.494h5.227V13.35zm-58.808 0h-5.23v1.494h5.23V13.35zm25.202 0h-5.226v1.494h5.226V13.35zm-8.402 0h-5.226v1.494h5.226V13.35zm-8.402 0h-5.227v1.494h5.226V13.35zm-58.81 0h-5.227v1.494h5.227V13.35zM5.228 93.091H0v1.496h5.228V93.09zm126.022 0h-5.227v1.496h5.227V93.09zm-117.624 0H8.398v1.496h4.212v4.796h1.494v-5.227h-.478V93.09zm109.514-12.53h-1.492v5.228h1.492v-5.228zm0-8.403h-1.492v5.23h1.492v-5.23zm-1.492 20.934h-4.027v1.495h5.228v-.854h.291v-4.77h-1.492v4.129zm1.492-37.735h-1.492v5.23h1.492v-5.23zm0 8.402h-1.492v5.227h1.492V63.76zm0-33.609h-1.492v5.23h1.492v-5.23zm0-8.399h-1.492v5.228h1.492V21.75zm-1.492-3.173h1.492V13.35h-5.519v1.495h4.027v3.734zm1.492 19.976h-1.492v5.227h1.492v-5.227zM28.329 20.66h1.492v-5.816h.61V13.35h-.61V2.32h-1.492v11.03h-3.126v1.495h3.126v5.816zm94.811 28.385v-2.09h-1.492v2.09h-5.816v1.495h5.816v1.645h1.492V50.54h12.772v-1.495H123.14zm-13.064-23.84h-1.492v5.228h1.492v-5.228zm0 58.811h-1.492v5.23h1.492v-5.23zm0-16.803h-1.492v5.228h1.492v-5.228z" fill="#000"/><path d="M110.076 50.41h-1.492v5.227h1.492V50.41zm0 8.4h-1.492v5.228h1.492V58.81zm0-50.409h-1.492v5.228h.635v1.215h5.229V13.35h-4.372V8.401zm0 67.212h-1.492v5.23h1.492v-5.23zm0 25.204h-1.492v4.117h1.492v-4.117zm0-84.016h-1.492v5.23h1.492V16.8zm0 25.207h-1.492v5.229h1.492v-5.23zm0 50.41h-1.492v5.227h1.492v-3.059h4.372v-1.495h-4.372v-.673zm0-58.813h-1.492v5.23h1.492v-5.23zm0-33.605h-1.492v5.23h1.492V0zM14.103 35.342h-1.494v5.23h1.494v-5.23zm0-33.604h-1.494v5.23h1.494v-5.23zm0 58.811h-1.494v5.229h1.494v-5.23zm0-33.606h-1.494v5.227h1.494v-5.227zm0 42.007h-1.494v5.228h1.494V68.95zm0 8.4h-1.494v5.23h1.494v-5.23zm0 25.207h-1.494v4.116h1.494v-4.116zm-1.493-87.19h1.494V10.14H12.61v3.21H8.398v1.495h4.212v.522zm1.493 70.387h-1.494v5.23h1.494v-5.23zm0-67.213h-1.494v5.23h1.494v-5.23zm0 33.607h-1.494v5.227h1.494v-5.227zm0-8.402h-1.494v5.23h1.494v-5.23zm42.047 62.772H35.04v-3.948h-1.493v9.391h1.494v-3.948h21.11v3.948h1.493v-9.391H56.15v3.948z" fill="#000"/></svg>