<svg width="49" height="53" fill="none" xmlns="http://www.w3.org/2000/svg"><path d="M48.1 2.598L48.067.833a.42.42 0 00-.318-.402L46.034.013a.402.402 0 00-.36.083l-7.38 5.9-.217-.268a3.015 3.015 0 00-4.234-.469l-2.519 2.016a1.674 1.674 0 00-.26 2.352l.804 1.004-2.217 1.774-2.176-2.72a1.609 1.609 0 00-1.087-.602 1.67 1.67 0 00-1.197.343l-1.883 1.506-.451-.56a1.694 1.694 0 00-1.155-.637c-.46-.05-.912.076-1.272.369l-16.7 13.37c-4.285 3.422-4.98 9.698-1.557 13.973 1.958 2.452 4.853 3.724 7.773 3.724a9.885 9.885 0 006.2-2.176l.427-.343 10.434 13.045c.452.56 1.087.912 1.807.995a2.696 2.696 0 001.983-.577l11.831-9.447c.56-.451.912-1.087.996-1.807a2.66 2.66 0 00-.577-1.983 2.698 2.698 0 00-1.808-.995 2.66 2.66 0 00-1.983.577l-5.681 4.552-3.43-4.293 2.485-1.991a1.83 1.83 0 00.694-1.464 1.864 1.864 0 00-.728-1.448l-5.112-3.874 5.38-4.3c.36-.285.586-.703.636-1.155.05-.46-.084-.912-.368-1.272l-.452-.56 1.882-1.507c.703-.56.812-1.59.251-2.292l-2.175-2.72 2.217-1.773.803 1.004c.335.41.82.627 1.314.627.368 0 .736-.117 1.046-.368l2.518-2.017a3.015 3.015 0 00.469-4.233l-.435-.544 7.371-5.899a.393.393 0 00.16-.335zM33.182 43.857c.142.184.41.209.585.067l6.008-4.812c.385-.31.87-.451 1.364-.393.493.059.937.301 1.247.686.31.385.451.87.393 1.364a1.872 1.872 0 01-.686 1.247L30.278 51.47c-.385.31-.87.452-1.363.393a1.872 1.872 0 01-1.247-.686L17.234 38.142l6.936-5.548 5.046 6.3c.008.01.008.018.008.026.008.008.017.008.017.017l3.94 4.92zm-1.096-9.38c.25.193.393.477.401.787a1.01 1.01 0 01-.376.803l-2.485 1.991-4.795-5.999 1.983-1.59 5.272 4.008zm.25-9.497l-8.341 6.677c-.009.009-.017.009-.026.017-.008.009-.008.017-.016.025l-7.547 6.041c-.009.009-.017.009-.025.009-.009.008-.009.016-.017.025l-.728.585c-3.916 3.138-9.664 2.502-12.802-1.422-3.138-3.924-2.502-9.664 1.422-12.802l16.701-13.37a.887.887 0 011.247.142l9.564 11.94.71.887a.877.877 0 01.193.652.932.932 0 01-.334.594zm1.825-5.597a.788.788 0 01-.126 1.113l-1.882 1.506-8.326-10.4 1.883-1.507a.783.783 0 01.586-.167.764.764 0 01.527.293l2.418 3.029a.025.025 0 01.008.016c.009.009.009.009.017.009l2.443 3.045c.009.009.009.017.009.026l.016.016 2.427 3.02zm-2.042-3.9l-1.941-2.426 2.217-1.774 1.941 2.427-2.217 1.774zm7.89-2.526l-2.518 2.016a.831.831 0 01-1.18-.134l-4.585-5.731a.832.832 0 01.134-1.18l2.518-2.016a2.179 2.179 0 011.356-.477 2.15 2.15 0 011.698.82l2.92 3.648c.745.937.594 2.31-.343 3.054zm.034-4.778L38.82 6.648 46.034.875l1.196.292.025 1.239-7.212 5.773z" fill="#000"/><path d="M20.999 15.166a.415.415 0 00-.586-.067l-5.907 4.727a.415.415 0 00-.067.586c.084.1.2.159.326.159a.427.427 0 00.26-.092l5.907-4.728a.422.422 0 00.067-.585zm2.351 2.937a.415.415 0 00-.585-.067l-5.907 4.727a.415.415 0 00-.067.586c.083.1.2.159.326.159a.427.427 0 00.26-.092l5.907-4.728a.421.421 0 00.066-.585zm2.35 2.937a.415.415 0 00-.586-.067L19.207 25.7a.415.415 0 00-.067.586c.084.1.201.159.326.159a.427.427 0 00.26-.092l5.907-4.728a.421.421 0 00.067-.585zm1.76 2.878l-5.907 4.727a.415.415 0 00-.067.586c.084.1.2.16.326.16a.427.427 0 00.26-.093l5.907-4.727a.415.415 0 00.067-.586.414.414 0 00-.586-.067zM10.633 26a5.115 5.115 0 00-3.807 1.097 5.118 5.118 0 00-1.908 3.472 5.178 5.178 0 001.096 3.799 5.183 5.183 0 007.28.82 5.136 5.136 0 001.907-3.472 5.167 5.167 0 00-1.104-3.807A5.15 5.15 0 0010.633 26zm-3.958 7.84a4.319 4.319 0 01-.92-3.179 4.31 4.31 0 011.598-2.911 4.281 4.281 0 012.694-.946h.05l-.945 8.551a4.269 4.269 0 01-2.477-1.514zm7.69-2.216a4.31 4.31 0 01-1.598 2.911c-.82.661-1.816.946-2.795.93l.946-8.544c.987.201 1.874.72 2.51 1.515a4.233 4.233 0 01.937 3.188z" fill="#000"/></svg>