<svg width="126" height="125" fill="none" xmlns="http://www.w3.org/2000/svg"><path d="M125.6 62.8L109.8 47V10.8h-19V28l-28-28L0 62.8l7.8 7.8 8-8v62.2h94V62.6l8 8 7.8-7.8zm-120 0L62.8 5.6l32 32V14.8h11v33.8L120 62.8l-2.2 2.2-55-55-55 55-2.2-2.2zm100.2-4v62h-86v-62h-.2l43.2-43.2L106 58.8h-.2z" fill="#000"/><path d="M93.002 82.8c0-1.9-.8-3.6-2-4.9 1.2-1.2 2-2.8 2-4.6 0-3.6-2.9-6.5-6.5-6.5h-12c-.3 0-.5-.2-.5-.5V52.8c0-5-4-9-9-9-1.9 0-3.5 1.6-3.5 3.5v9.2c-1.9 5.4-5.2 10.1-9.6 13.6v-.3h-19.3v38h19.4v-2.3c3 1.5 6.2 2.3 9.6 2.3h19.5c3.3 0 6-2.7 6-6 0-.9-.2-1.7-.5-2.5 2.6-1 4.5-3.6 4.5-6.5 0-1.5-.5-2.9-1.3-4.1 1.9-1.2 3.2-3.4 3.2-5.9zm-45.1 21h-11.3v-30h11.4v30h-.1zm36.1-8h-3v4c1.1 0 2 .9 2 2s-.9 2-2 2h-19.5c-3.4 0-6.7-1-9.6-2.9V75.2l2.4-1.9c5.2-4.1 9-9.6 11.1-15.9l.1-.3v-9.3c2.5.3 4.5 2.4 4.5 5v13.5c0 2.5 2 4.5 4.5 4.5h12c1.4 0 2.5 1.1 2.5 2.5s-1.1 2.5-2.5 2.5h-.5v4c1.7 0 3 1.3 3 3s-1.3 3-3 3h-1v.1c-.3 0-.7-.1-1-.1v4c1.7 0 3 1.3 3 3s-1.3 3-3 3z" fill="#000"/></svg>