<svg width="52" height="52" fill="none" xmlns="http://www.w3.org/2000/svg"><path d="M48.833 8.54h-2.19V6.626c0-.985-.796-1.78-1.78-1.78h-.623v-.789a2.882 2.882 0 00-2.876-2.875H11.96a2.882 2.882 0 00-2.875 2.875v.788h-.623c-.985 0-1.78.796-1.78 1.78v4.618c0 .985.795 1.78 1.78 1.78h.623v.788c0 .103.015.197.031.292a.46.46 0 00-.031.15v9.084a2.851 2.851 0 105.704 0V21.28a2.06 2.06 0 114.12 0v1.269a2.851 2.851 0 105.704 0v-1.19a2.06 2.06 0 114.12 0v1.19a2.851 2.851 0 105.704 0v-2.356a2.069 2.069 0 012.066-2.064 2.06 2.06 0 012.056 2.064v.71l-1.434.409a1.999 1.999 0 00-1.323 1.875v7.8h-1.316a1.09 1.09 0 00-1.024 1.458l.732 2.032h-.291c-.788 0-1.426.639-1.426 1.427v11.203a3.712 3.712 0 007.422 0V35.904c0-.788-.639-1.427-1.427-1.427h-.291l.733-2.032a1.09 1.09 0 00-1.025-1.458h-1.315v-7.8c0-.504.323-.961.772-1.127l1.19-.338V25.7a2.851 2.851 0 105.704 0v-5.61l5.255-1.504a1.999 1.999 0 001.324-1.875v-6.177a1.99 1.99 0 00-1.986-1.994zM9.085 12.236h-.623a.994.994 0 01-.992-.993V6.626c0-.552.449-.993.992-.993h.623v6.603zm29.387 23.03c.355 0 .639.283.639.638v11.203a2.927 2.927 0 01-2.923 2.923 2.927 2.927 0 01-2.923-2.923V35.904c0-.355.283-.639.638-.639h4.569zm-.575-3.491c.103 0 .19.047.245.126a.31.31 0 01.039.276l-.835 2.3H35.03l-.836-2.3a.29.29 0 01.04-.276.283.283 0 01.244-.126h3.42zM44.24 5.633h.622c.552 0 .993.45.993.993v4.617c0 .551-.45.993-.993.993h-.622V5.633zM9.873 4.057A2.09 2.09 0 0111.96 1.97h29.404c1.15 0 2.088.937 2.088 2.087v9.754c0 1.111-.977 2.088-2.088 2.088H11.96a2.098 2.098 0 01-1.386-.543 2.125 2.125 0 01-.694-1.545V4.057h-.007zM43.452 25.7a2.066 2.066 0 01-2.064 2.065 2.061 2.061 0 01-2.064-2.065v-4.207l4.12-1.182v5.39h.008zm0-6.2l-4.12 1.182V20.2a2.855 2.855 0 00-2.845-2.852 2.856 2.856 0 00-2.852 2.852v2.356a2.066 2.066 0 01-2.064 2.064 2.061 2.061 0 01-2.065-2.064v-1.19a2.858 2.858 0 00-2.86-2.852 2.85 2.85 0 00-2.844 2.852v1.19a2.066 2.066 0 01-2.064 2.064 2.061 2.061 0 01-2.064-2.064v-1.269a2.855 2.855 0 00-2.845-2.852 2.856 2.856 0 00-2.852 2.852v2.057a2.066 2.066 0 01-2.064 2.064 2.061 2.061 0 01-2.064-2.064v-7.556c.008.008.024.016.031.024a2.9 2.9 0 002.057.874h29.427c.756 0 1.529-.33 2.056-.875.008-.007.024-.015.032-.023v3.71zm6.579-2.79c0 .505-.323.962-.772 1.127l-5.02 1.434v-5.01a.32.32 0 00-.03-.15c.007-.095.03-.19.03-.292v-.788h.623c.985 0 1.78-.795 1.78-1.78V9.336h2.191c.662 0 1.198.536 1.198 1.198v6.177z" fill="#000"/><path d="M25.11 32.224c.387-.394.623-.937.623-1.528a2.2 2.2 0 00-2.198-2.198H3.901a2.199 2.199 0 00-2.198 2.198c0 .598.236 1.134.622 1.528-.299.11-.575.3-.78.56a1.69 1.69 0 00-.299 1.489 12.808 12.808 0 002.71 5.12l1.056 9.463a2.207 2.207 0 002.19 1.962h13.04a2.202 2.202 0 002.19-1.962l1.056-9.462a12.838 12.838 0 002.71-5.13 1.735 1.735 0 00-.3-1.488 1.776 1.776 0 00-.787-.552zM2.003 34.076a.918.918 0 01.166-.804c.213-.276.701-.417 1.04-.449.134.812.197 1.71.291 2.545.095.827.182 1.654.276 2.49 0 .015 0 .031.008.039a11.936 11.936 0 01-1.78-3.821zM21.644 48.77a1.417 1.417 0 01-1.41 1.26H7.194a1.417 1.417 0 01-1.41-1.26l-.945-8.446c.48.457 1 .866 1.552 1.252a1.94 1.94 0 00.89 2.025 12.374 12.374 0 006.43 1.789c2.237 0 4.475-.6 6.428-1.789a1.94 1.94 0 00.89-2.025 13.257 13.257 0 001.553-1.245l-.938 8.439zM7.313 41.34a1.16 1.16 0 011.591-.394c2.923 1.78 6.697 1.78 9.628 0a1.162 1.162 0 011.592.386c.33.544.157 1.26-.386 1.592-3.656 2.23-8.383 2.23-12.04 0a1.151 1.151 0 01-.385-1.584zm15.419-2.285a12.034 12.034 0 01-2.01 1.78 1.934 1.934 0 00-2.6-.55c-2.67 1.63-6.13 1.63-8.8 0a1.927 1.927 0 00-2.6.56 12.5 12.5 0 01-2.017-1.79l-.686-6.153h19.406l-.693 6.153zm-18.83-6.949c-.78 0-1.411-.638-1.411-1.41 0-.772.638-1.41 1.41-1.41h19.634c.78 0 1.41.638 1.41 1.41 0 .772-.63 1.41-1.41 1.41H3.901zm21.532 1.962a11.858 11.858 0 01-1.78 3.821l.236-2.104c.063-.551.126-1.095.18-1.646.04-.355.056-.82.135-1.166.008-.048.016-.118.031-.166.379.134.765.103 1.032.457a.923.923 0 01.166.804z" fill="#000"/></svg>