<svg width="49" height="55" fill="none" xmlns="http://www.w3.org/2000/svg"><path d="M28.31 15.909h13.826v.25a3.707 3.707 0 012.016.598l.135-.21c2.447 1.57 3.963 4.384 3.963 7.355a9.06 9.06 0 01-1.512 5.043 9.85 9.85 0 01.308 2.336v.004a9.06 9.06 0 01-1.513 5.043c.198.759.297 1.54.297 2.333a9.06 9.06 0 01-1.513 5.044c.198.758.296 1.54.296 2.333 0 3.406-1.85 6.49-4.743 7.84a3.865 3.865 0 01-1.664.372H2.88c-1.199 0-2.13-1.053-2.13-2.308v-23.41c0-1.254.931-2.308 2.13-2.308h7.402L15.28 6.412C16.116 3.092 18.908.75 22.09.75c0 0 0 0 0 0V1a5.8 5.8 0 012.492.555c.787.37 1.497.912 2.085 1.593l1.642 12.76zm0 0l.34-7.643h0c.086-1.972-.55-3.848-1.793-5.281l1.453 12.924zm12.716 11.926l.134-.127 1.285-1.221s0 0 0 0a3.59 3.59 0 001.075-2.585c0-1.118-.577-2.202-1.52-2.863H23.347l.011-.261.564-12.76h0a2.12 2.12 0 00-.766-1.757h0a1.694 1.694 0 00-1.08-.374 2.2 2.2 0 00-1.398.526 2.61 2.61 0 00-.84 1.363s0 0 0 0L13.999 30.93v18.183h24.089c1.078-.558 1.784-1.749 1.784-3.081v-.002a3.637 3.637 0 00-.38-1.642l.224-.112-.223.112-.817-1.634-.083-.165.134-.128 1.287-1.221 1.011-13.405zm0 0l.082.166m-.082-.166l.082.166m0 0l.817 1.633a3.64 3.64 0 01.379 1.643v.001m-1.196-3.277l1.196 3.277m0 0c0 .997-.397 1.94-1.074 2.584l1.074-2.584zm-2.495 3.934l.135-.128 1.286-1.221-1.42 1.349zm0 0l.083.165m-.083-.165l.083.165m0 0l.817 1.634.223-.112m-1.04-1.522l1.04 1.522m0 0l-.223.112c.25.502.382 1.068.379 1.643v.001m-.156-1.756l.156 1.756m0 0c0 .996-.398 1.94-1.074 2.584l1.074-2.584zm-27.09 10.708h-.25v-.25l.25.25zM5.48 49.12V31.355h4.259V49.12H5.48z" fill="#000" stroke="#fff" stroke-width=".5"/></svg>