<svg width="48" height="63" fill="none" xmlns="http://www.w3.org/2000/svg"><path d="M12.725 45.325c-2.3 0-4.5-.8-6.2-2.2l-6 12.8 9.5-3.4 3.5 9.5 6.1-13c-1-.5-1.8-1.1-2.6-1.9-1.2-1.2-2.7-1.8-4.3-1.8zm27.7-1.4c-1.5.9-3.2 1.4-5.1 1.4-1.6 0-3.1.6-4.2 1.8-1.1 1.1-2.4 1.9-3.9 2.4l5.8 12.5 3.5-9.5 9.5 3.5-5.6-12.1zm-16.4-35.9c-8.8 0-16 7.2-16 16s7.2 16 16 16 16-7.2 16-16-7.2-16-16-16zm7 25.7l-7-3.7-7 3.7 1.3-7.8-5.7-5.5 7.8-1.1 3.5-7.1 3.5 7.1 7.8 1.1-5.7 5.5 1.5 7.8z" fill="#000"/><path d="M35.325 43.325c4.4 0 8-3.6 8-8 0-2.1.8-4.2 2.3-5.7 3.1-3.1 3.1-8.2 0-11.3-1.5-1.5-2.3-3.5-2.3-5.7 0-4.4-3.6-8-8-8-2.1 0-4.2-.8-5.7-2.3-3.1-3.1-8.2-3.1-11.3 0-1.5 1.5-3.5 2.3-5.7 2.3-4.4 0-8 3.6-8 8 0 2.1-.8 4.2-2.3 5.7a8.15 8.15 0 000 11.4c1.5 1.5 2.3 3.5 2.3 5.7 0 4.4 3.6 8 8 8 2.1 0 4.2.8 5.7 2.3 3.1 3.1 8.2 3.1 11.3 0 1.6-1.5 3.6-2.4 5.7-2.4zm-11.3-1.3c-9.9 0-18-8.1-18-18s8.1-18 18-18 18 8.1 18 18-8.1 18-18 18z" fill="#000"/></svg>