<svg width="195" height="40" fill="none" xmlns="http://www.w3.org/2000/svg"><path d="M38.26.43c.082 0 .123.123.123.368 0 .246-.041.369-.123.369-1.27 0-2.825.798-4.667 2.395-1.843 1.556-3.48 3.52-4.913 5.896l-6.387 10.685v13.695c0 1.27.102 2.19.307 2.764a1.84 1.84 0 001.167 1.167c.614.204 1.576.307 2.886.307.123 0 .184.123.184.368 0 .246-.061.369-.184.369a62.86 62.86 0 01-3.193-.062l-4.606-.061-4.545.061c-.819.041-1.924.062-3.316.062-.082 0-.123-.123-.123-.369 0-.245.041-.368.123-.368 1.31 0 2.272-.103 2.886-.307.614-.205 1.024-.594 1.229-1.167.245-.614.368-1.535.368-2.764V21.433L6.51 7.493C4.995 5.117 3.726 3.48 2.702 2.578 1.72 1.638.88 1.167.184 1.167.061 1.167 0 1.044 0 .798 0 .553.061.43.184.43l1.904.06c.9.082 1.535.123 1.904.123 1.433 0 3.5-.04 6.202-.123l4.054-.06c.082 0 .123.123.123.368 0 .246-.041.369-.123.369-.696 0-1.249.164-1.658.491-.369.328-.553.758-.553 1.29 0 .655.286 1.433.86 2.333l8.413 13.266 5.65-9.642c1.105-1.843 1.658-3.419 1.658-4.729 0-.983-.307-1.72-.921-2.21-.573-.533-1.412-.8-2.518-.8-.123 0-.184-.122-.184-.368 0-.245.061-.368.184-.368l3.255.061c1.883.082 3.562.123 5.036.123.696 0 1.535-.04 2.518-.123L38.26.43zm43.505 37.646c.205 0 .307.123.307.368 0 .246-.102.369-.307.369-.819 0-2.088-.041-3.808-.123-1.801-.082-3.09-.123-3.869-.123-1.023 0-2.272.041-3.746.123a59.527 59.527 0 01-3.316.123c-.164 0-.246-.123-.246-.369 0-.245.082-.368.246-.368 1.065 0 1.822-.103 2.272-.307.492-.246.737-.655.737-1.229 0-.696-.41-1.862-1.228-3.5l-4.176-8.29H49.523l-2.395 5.342c-.532 1.187-.798 2.293-.798 3.316 0 1.474.512 2.62 1.535 3.44 1.065.818 2.477 1.228 4.238 1.228.204 0 .307.123.307.368 0 .246-.103.369-.307.369-.737 0-1.802-.041-3.194-.123a78.477 78.477 0 00-4.053-.123c-1.105 0-2.436.041-3.992.123a60.078 60.078 0 01-3.377.123c-.164 0-.246-.123-.246-.369 0-.245.082-.368.246-.368 1.146 0 2.108-.225 2.886-.676.778-.491 1.556-1.33 2.334-2.518.777-1.228 1.699-3.03 2.763-5.404L58.797.184c.082-.123.266-.184.552-.184.328 0 .512.061.553.184L75.255 30.4c1.433 2.907 2.62 4.913 3.562 6.019.942 1.105 1.924 1.658 2.948 1.658zM50.322 23.03H63.71L56.647 9.028 50.322 23.03zM129.164.43c.082 0 .123.123.123.368 0 .246-.041.369-.123.369-1.637 0-2.927.655-3.869 1.965-.941 1.27-1.412 2.989-1.412 5.159v31.443c0 .123-.102.205-.307.245-.164.041-.287.021-.369-.06L94.405 7.123v23.89c0 2.17.45 3.889 1.351 5.158.9 1.27 2.15 1.904 3.746 1.904.082 0 .123.123.123.368 0 .246-.041.369-.123.369-1.146 0-2.026-.02-2.64-.062l-3.317-.061-3.807.061c-.697.041-1.7.062-3.01.062-.122 0-.184-.123-.184-.369 0-.245.062-.368.184-.368 1.802 0 3.214-.635 4.238-1.904 1.064-1.27 1.597-2.989 1.597-5.159V5.036c-1.352-1.474-2.518-2.477-3.501-3.01-.942-.573-1.924-.86-2.948-.86-.082 0-.123-.122-.123-.368 0-.245.041-.368.123-.368l2.58.061c.532.041 1.31.062 2.333.062L95.695.49c.573-.04 1.269-.061 2.088-.061.327 0 .573.082.736.246.164.163.45.511.86 1.044.696.941 1.188 1.576 1.474 1.903l21.249 24.504V8.29c0-2.211-.45-3.951-1.351-5.22-.901-1.27-2.15-1.904-3.746-1.904-.082 0-.123-.123-.123-.369 0-.245.041-.368.123-.368l2.64.061c1.311.082 2.416.123 3.317.123.819 0 1.965-.04 3.439-.123l2.763-.061zm44.607 37.646c.123 0 .185.123.185.368 0 .246-.062.369-.185.369h-6.878c-.655 0-1.208.02-1.658.061-.45.041-.819.061-1.105.061-.655 0-1.229-.143-1.72-.43-.45-.327-1.023-.9-1.719-1.719-.656-.819-1.843-2.395-3.562-4.729a12.3 12.3 0 00-.737-.92 38.555 38.555 0 00-.86-1.23L147.487 19.1l-1.351 1.351v13.388c0 1.27.102 2.19.307 2.764a1.84 1.84 0 001.167 1.167c.614.204 1.576.307 2.886.307.164 0 .246.123.246.368 0 .246-.082.369-.246.369a64.32 64.32 0 01-3.193-.062l-4.606-.061-4.545.061c-.819.041-1.924.062-3.316.062-.082 0-.123-.123-.123-.369 0-.245.041-.368.123-.368 1.31 0 2.272-.103 2.886-.307.614-.205 1.024-.594 1.229-1.167.245-.614.368-1.535.368-2.764V5.404c0-1.228-.123-2.129-.368-2.702-.205-.573-.615-.962-1.229-1.167-.573-.245-1.494-.368-2.763-.368-.123 0-.184-.123-.184-.369 0-.245.061-.368.184-.368l3.255.061c1.883.082 3.377.123 4.483.123 1.228 0 2.784-.04 4.667-.123l3.132-.061c.123 0 .184.123.184.368 0 .246-.061.369-.184.369-1.269 0-2.211.123-2.825.368-.573.246-.982.676-1.228 1.29-.205.573-.307 1.474-.307 2.702v13.02l11.545-11.792c1.188-1.187 1.781-2.272 1.781-3.254 0-.737-.327-1.31-.982-1.72-.655-.41-1.577-.614-2.764-.614-.123 0-.184-.123-.184-.369 0-.245.061-.368.184-.368l2.887.061c1.801.082 3.48.123 5.035.123 1.679 0 3.419-.04 5.22-.123l2.764-.061c.123 0 .184.123.184.368 0 .246-.061.369-.184.369-1.883 0-3.951.553-6.203 1.658a22.5 22.5 0 00-6.141 4.299l-6.94 7.062 9.09 12.283c2.661 3.807 4.646 6.51 5.957 8.106 1.351 1.556 2.436 2.539 3.254 2.948.819.368 1.863.553 3.132.553zm16.476-4.238c0 1.27.102 2.19.307 2.764a1.84 1.84 0 001.167 1.167c.614.204 1.576.307 2.886.307.123 0 .184.123.184.368 0 .246-.061.369-.184.369-1.351 0-2.416-.02-3.193-.062l-4.668-.061-4.544.061a70.06 70.06 0 01-3.317.062c-.081 0-.122-.123-.122-.369 0-.245.041-.368.122-.368 1.311 0 2.273-.103 2.887-.307.614-.205 1.023-.594 1.228-1.167.246-.614.369-1.535.369-2.764V5.404c0-1.228-.123-2.129-.369-2.702-.205-.573-.614-.962-1.228-1.167-.614-.245-1.576-.368-2.887-.368-.081 0-.122-.123-.122-.369 0-.245.041-.368.122-.368l3.317.061c1.883.082 3.398.123 4.544.123 1.269 0 2.846-.04 4.729-.123l3.132-.061c.123 0 .184.123.184.368 0 .246-.061.369-.184.369-1.269 0-2.211.123-2.825.368-.614.246-1.023.676-1.228 1.29-.205.573-.307 1.474-.307 2.702v28.311z" fill="#E0BEA2"/></svg>